SplineFontDB: 3.0
FontName: Mikhak-Bold
FullName: Mikhak Bold
FamilyName: Mikhak Bold
Weight: Bold
Copyright: Copyright (c) 2019, Amin Abedi (www.opentypeshop.com|aminabedi68@gmail.com),\nwith Reserved Font Name Mikhak.\n\nThis Font Software is licensed under the SIL Open Font License, Version 1.1.\nThis license is available with a FAQ at: http://scripts.sil.org/OFL
Version: 2.100
ItalicAngle: 0
UnderlinePosition: -450
UnderlineWidth: 100
Ascent: 1638
Descent: 410
InvalidEm: 0
sfntRevision: 0x00021a2e
LayerCount: 2
Layer: 0 0 "Back" 1
Layer: 1 0 "Fore" 0
PreferredKerning: 4
XUID: [1021 89 1101065813 17353]
StyleMap: 0x0040
FSType: 0
OS2Version: 4
OS2_WeightWidthSlopeOnly: 0
OS2_UseTypoMetrics: 1
CreationTime: 1497005464
ModificationTime: 1553940774
PfmFamily: 33
TTFWeight: 700
TTFWidth: 5
LineGap: 0
VLineGap: 0
OS2TypoAscent: 512
OS2TypoAOffset: 1
OS2TypoDescent: -675
OS2TypoDOffset: 1
OS2TypoLinegap: 0
OS2WinAscent: -240
OS2WinAOffset: 1
OS2WinDescent: -149
OS2WinDOffset: 1
HheadAscent: -240
HheadAOffset: 1
HheadDescent: 149
HheadDOffset: 1
OS2SubXSize: 1277
OS2SubYSize: 1185
OS2SubXOff: 0
OS2SubYOff: 256
OS2SupXSize: 1277
OS2SupYSize: 1185
OS2SupXOff: 0
OS2SupYOff: 870
OS2StrikeYSize: 91
OS2StrikeYPos: 766
OS2CapHeight: 1400
OS2XHeight: 1012
OS2Vendor: 'AA68'
Lookup: 4 1 0 "'ccmp' Glyph Composition/Decomposition in Arabic lookup 0" { "'ccmp' Glyph Composition/Decomposition in Arabic lookup 0 subtable 0"  } ['ccmp' ('arab' <'FAR ' 'dflt' > ) ]
Lookup: 1 9 0 "Single Substitution 1" { "Single Substitution 1 subtable"  } []
Lookup: 2 9 0 "Multiple Substitution 2" { "Multiple Substitution 2 subtable"  } []
Lookup: 2 9 0 "Multiple Substitution 3" { "Multiple Substitution 3 subtable"  } []
Lookup: 1 9 0 "'fina' Terminal Forms in Arabic lookup 4" { "'fina' Terminal Forms in Arabic lookup 4 subtable"  } ['fina' ('arab' <'FAR ' 'dflt' > ) ]

StartChar: a
Encoding: 97 97 0
Width: 1269
VWidth: 2426
Flags: HMW
LayerCount: 2
Fore
SplineSet
879 835 m 1
 868 831 856 830 844 830 c 0
 822 830 800 836 781 849 c 0
 754 867 710 888 650 888 c 0
 433 888 272 642 272 419 c 0
 272 244 359 128 521 128 c 0
 658 128 735 203 788 337 c 0
 809 389 824 450 834 511 c 2
 879 835 l 1
650 1114 m 0
 768 1114 858 1071 911 1033 c 1
 930 1072 971 1098 1014 1098 c 0
 1078 1098 1125 1045 1125 986 c 0
 1125 981 1125 976 1124 971 c 2
 1060 504 l 2
 1059 495 1058 487 1057 478 c 2
 1053 448 l 2
 1046 395 1042 348 1042 293 c 0
 1042 168 1054 158 1109 158 c 0
 1170 158 1222 106 1222 45 c 0
 1222 -16 1170 -68 1109 -68 c 0
 1008 -68 920 -23 872 51 c 1
 788 -38 668 -98 521 -98 c 0
 205 -98 48 164 48 419 c 0
 48 712 253 1114 650 1114 c 0
EndSplineSet
Colour: ffff
EndChar

StartChar: c
Encoding: 99 99 1
Width: 1031
VWidth: 2426
Flags: HMW
LayerCount: 2
Fore
SplineSet
967 907 m 0
 967 844 915 795 855 795 c 0
 829 795 802 804 781 822 c 0
 730 866 679 888 611 888 c 0
 430 888 272 642 272 411 c 0
 272 249 333 128 528 128 c 0
 646 128 729 158 813 209 c 0
 831 220 850 225 870 225 c 0
 927 225 983 180 983 114 c 0
 983 76 964 38 929 17 c 0
 821 -48 690 -98 528 -98 c 0
 177 -98 48 181 48 411 c 0
 48 696 232 1114 611 1114 c 0
 737 1114 846 1064 929 992 c 0
 954 970 967 939 967 907 c 0
EndSplineSet
Colour: ffff
EndChar

StartChar: e
Encoding: 101 101 2
Width: 1131
VWidth: 2426
Flags: HMW
LayerCount: 2
Fore
SplineSet
335 528 m 1
 467 558 595 608 711 677 c 0
 785 721 826 766 826 805 c 0
 826 842 788 888 703 888 c 0
 524 888 372 732 335 528 c 1
971 263 m 0
 1031 263 1083 213 1083 151 c 0
 1083 120 1071 90 1047 68 c 0
 930 -38 777 -98 620 -98 c 0
 379 -98 196 74 130 276 c 1
 78 285 38 329 38 385 c 0
 38 429 64 472 104 490 c 1
 126 799 355 1114 703 1114 c 0
 860 1114 1052 1012 1052 805 c 0
 1052 622 899 527 825 483 c 0
 682 398 524 337 361 303 c 1
 411 198 508 128 620 128 c 0
 721 128 820 166 896 234 c 0
 917 253 944 263 971 263 c 0
EndSplineSet
Colour: ffff
EndChar

StartChar: f
Encoding: 102 102 3
Width: 773
VWidth: 2426
Flags: HMW
LayerCount: 2
Fore
SplineSet
613 704 m 0
 556 704 501 715 446 718 c 1
 439 460 436 193 436 2 c 0
 436 0 436 -2 436 -4 c 0
 436 -65 384 -116 323 -116 c 0
 258 -116 211 -63 211 2 c 0
 211 194 213 460 220 719 c 1
 200 718 180 718 160 718 c 0
 100 718 48 766 48 830 c 0
 48 888 94 938 152 942 c 0
 179 944 203 945 228 946 c 1
 234 1084 242 1213 251 1319 c 0
 263 1461 300 1670 472 1715 c 0
 487 1719 503 1722 519 1722 c 0
 595 1722 652 1678 696 1629 c 0
 715 1608 724 1581 724 1554 c 0
 724 1494 674 1442 612 1442 c 0
 577 1442 548 1459 524 1484 c 1
 503 1449 482 1377 475 1299 c 0
 466 1199 459 1077 453 943 c 1
 510 940 568 935 626 928 c 0
 683 921 726 872 726 816 c 0
 726 751 672 704 613 704 c 0
EndSplineSet
Colour: ffff
EndChar

StartChar: g
Encoding: 103 103 4
Width: 1177
VWidth: 2426
Flags: HMW
LayerCount: 2
Fore
SplineSet
869 1012 m 1
 885 1053 926 1083 974 1083 c 0
 1033 1083 1083 1036 1086 976 c 0
 1088 925 1090 842 1090 764 c 0
 1090 743 1090 722 1090 701 c 0
 1090 304 1087 -7 1001 -233 c 0
 919 -450 704 -552 503 -552 c 0
 346 -552 182 -491 73 -357 c 0
 56 -336 48 -311 48 -286 c 0
 48 -227 97 -174 160 -174 c 0
 193 -174 225 -188 247 -215 c 0
 306 -287 402 -328 503 -328 c 0
 634 -328 749 -262 791 -153 c 0
 807 -110 820 -57 830 4 c 1
 751 -57 651 -98 524 -98 c 0
 267 -98 56 94 56 420 c 0
 56 705 222 1114 593 1114 c 0
 676 1114 820 1089 869 1012 c 1
863 508 m 0
 864 588 864 674 864 764 c 0
 864 806 864 848 863 886 c 1
 841 859 807 842 773 842 c 0
 753 842 734 847 716 858 c 0
 688 875 634 888 593 888 c 0
 426 888 282 663 282 420 c 0
 282 200 389 128 524 128 c 0
 718 128 820 303 861 500 c 0
 862 503 862 505 863 508 c 0
EndSplineSet
Colour: ffff
EndChar

StartChar: o
Encoding: 111 111 5
Width: 1109
VWidth: 2426
Flags: HMW
LayerCount: 2
Fore
SplineSet
567 1114 m 0
 899 1114 1062 801 1062 538 c 0
 1062 249 882 -98 540 -98 c 0
 224 -98 48 202 48 486 c 0
 48 774 210 1114 567 1114 c 0
567 888 m 0
 390 888 272 718 272 486 c 0
 272 274 396 128 540 128 c 0
 698 128 836 311 836 538 c 0
 836 735 725 888 567 888 c 0
EndSplineSet
Colour: ffff
EndChar

StartChar: s
Encoding: 115 115 6
Width: 980
VWidth: 2426
Flags: HMW
LayerCount: 2
Fore
SplineSet
920 816 m 0
 920 760 877 703 809 703 c 0
 761 703 716 733 701 781 c 0
 685 833 617 890 507 890 c 0
 399 890 328 818 320 755 c 1
 322 677 400 639 553 601 c 0
 677 570 932 497 932 239 c 0
 932 -3 672 -98 488 -98 c 0
 326 -98 148 -44 66 79 c 0
 54 98 48 119 48 140 c 0
 48 198 94 253 159 253 c 0
 196 253 233 235 254 203 c 0
 264 188 370 128 488 128 c 0
 638 128 708 205 708 239 c 0
 708 305 641 348 499 383 c 0
 376 414 94 479 94 760 c 0
 94 762 95 766 95 769 c 0
 112 976 304 1114 507 1114 c 0
 689 1114 861 1019 915 849 c 0
 918 838 920 827 920 816 c 0
EndSplineSet
Colour: ffff
EndChar

StartChar: t
Encoding: 116 116 7
Width: 775
VWidth: 2426
Flags: HMW
LayerCount: 2
Fore
SplineSet
242 715 m 1
 215 713 188 708 160 708 c 0
 101 708 48 755 48 820 c 0
 48 876 91 925 147 932 c 0
 185 937 222 940 260 942 c 1
 269 1038 279 1134 290 1229 c 0
 297 1286 346 1328 402 1328 c 0
 467 1328 514 1275 514 1216 c 2
 514 1203 l 1
 504 1116 494 1029 486 943 c 1
 535 941 582 938 629 932 c 0
 685 925 727 875 727 820 c 0
 727 755 674 708 615 708 c 0
 567 708 519 717 468 719 c 1
 460 598 456 477 456 355 c 0
 456 178 472 128 538 128 c 0
 558 128 588 134 612 134 c 0
 670 134 725 90 725 23 c 0
 725 -30 687 -79 633 -89 c 0
 599 -95 567 -98 538 -98 c 0
 233 -98 230 223 230 348 c 2
 230 355 l 2
 230 477 235 596 242 715 c 1
EndSplineSet
Colour: ffff
EndChar

StartChar: v
Encoding: 118 118 8
Width: 1084
VWidth: 2426
Flags: HMW
LayerCount: 2
Fore
SplineSet
48 970 m 0
 48 1026 92 1083 159 1083 c 0
 201 1083 243 1059 262 1019 c 0
 355 822 463 583 541 339 c 1
 652 547 749 771 816 1002 c 0
 830 1051 876 1083 925 1083 c 0
 993 1083 1036 1026 1036 970 c 0
 1036 960 1035 950 1032 940 c 0
 931 593 770 265 598 -14 c 0
 580 -44 548 -67 503 -67 c 0
 451 -67 403 -30 392 23 c 0
 333 325 183 656 58 923 c 0
 51 938 48 954 48 970 c 0
EndSplineSet
Colour: ffff
EndChar

StartChar: w
Encoding: 119 119 9
Width: 1501
VWidth: 2426
Flags: HMW
LayerCount: 2
Fore
SplineSet
303 1066 m 0
 369 1066 414 1010 414 953 c 0
 414 934 410 916 400 899 c 0
 355 819 272 562 272 374 c 0
 272 200 324 128 406 128 c 0
 519 128 666 465 666 681 c 0
 666 743 718 793 779 793 c 0
 843 793 890 739 891 683 c 0
 896 379 942 128 1038 128 c 0
 1148 128 1228 264 1228 513 c 0
 1228 659 1193 815 1150 901 c 0
 1142 917 1139 933 1139 950 c 0
 1139 1006 1183 1063 1250 1063 c 0
 1292 1063 1332 1040 1352 1001 c 0
 1417 871 1454 691 1454 513 c 0
 1454 268 1374 -98 1038 -98 c 0
 880 -98 786 17 740 130 c 1
 673 18 565 -98 406 -98 c 0
 118 -98 48 188 48 374 c 0
 48 616 133 883 204 1009 c 0
 224 1045 263 1066 303 1066 c 0
EndSplineSet
Colour: ffff
EndChar

StartChar: x
Encoding: 120 120 10
Width: 1137
VWidth: 2426
Flags: HMW
LayerCount: 2
Fore
SplineSet
123 956 m 0
 123 1012 167 1069 234 1069 c 0
 276 1069 317 1046 336 1007 c 0
 391 896 467 777 554 659 c 1
 868 1042 l 2
 890 1069 922 1083 955 1083 c 0
 1018 1083 1067 1030 1067 971 c 0
 1067 946 1059 921 1042 900 c 2
 696 477 l 1
 816 332 943 194 1057 80 c 0
 1079 58 1089 29 1089 -0 c 0
 1089 -61 1038 -112 977 -112 c 0
 948 -112 920 -102 898 -80 c 0
 788 30 667 160 550 299 c 1
 247 -71 l 2
 225 -98 193 -112 160 -112 c 0
 97 -112 48 -59 48 0 c 0
 48 25 56 50 73 71 c 2
 406 478 l 1
 300 618 204 765 134 907 c 0
 126 923 123 939 123 956 c 0
EndSplineSet
Colour: ffff
EndChar

StartChar: y
Encoding: 121 121 11
Width: 1127
VWidth: 2426
Flags: HMW
LayerCount: 2
Fore
SplineSet
809 964 m 0
 809 1024 859 1076 922 1076 c 0
 981 1076 1031 1028 1034 968 c 0
 1038 864 1040 698 1040 546 c 2
 1040 480 l 2
 1040 57 1025 -546 462 -546 c 0
 291 -546 150 -478 67 -357 c 0
 54 -338 48 -317 48 -295 c 0
 48 -237 94 -182 159 -182 c 0
 195 -182 231 -199 253 -231 c 0
 289 -284 349 -322 462 -322 c 0
 644 -322 732 -212 775 -29 c 1
 706 -72 624 -98 526 -98 c 0
 119 -98 92 335 92 589 c 0
 92 719 100 853 114 983 c 0
 120 1040 170 1083 226 1083 c 0
 291 1083 338 1030 338 971 c 0
 338 967 338 963 338 959 c 0
 324 837 318 711 318 589 c 0
 318 291 361 128 526 128 c 0
 671 128 756 219 808 396 c 0
 810 401 812 406 814 411 c 2
 814 546 l 2
 814 699 809 866 809 964 c 0
EndSplineSet
Colour: ffff
EndChar

StartChar: z
Encoding: 122 122 12
Width: 1054
VWidth: 2426
Flags: HMW
LayerCount: 2
Fore
SplineSet
160 770 m 0
 102 770 48 816 48 882 c 0
 48 936 88 984 142 993 c 0
 231 1008 376 1026 538 1026 c 0
 553 1026 570 1027 587 1027 c 0
 703 1027 857 1019 918 887 c 0
 929 864 934 838 934 813 c 0
 934 757 908 692 853 643 c 0
 652 459 508 299 351 109 c 1
 494 124 717 141 894 141 c 0
 955 141 1007 91 1007 29 c 0
 1007 -31 957 -82 896 -83 c 0
 692 -87 409 -108 303 -124 c 0
 284 -128 262 -130 246 -130 c 0
 204 -130 157 -120 117 -88 c 0
 78 -56 58 -7 58 37 c 0
 58 90 80 132 108 168 c 0
 293 395 452 579 681 791 c 1
 646 798 594 802 538 802 c 0
 394 802 257 784 178 771 c 0
 172 770 166 770 160 770 c 0
EndSplineSet
Colour: ffff
EndChar

StartChar: A
Encoding: 65 65 13
Width: 1416
VWidth: 1823
Flags: HMW
LayerCount: 2
Fore
SplineSet
159 -80 m 0
 91 -80 48 -23 48 33 c 0
 48 48 50 63 57 78 c 2
 236 474 l 1
 229 488 226 504 226 520 c 0
 226 572 261 613 305 627 c 1
 635 1362 l 2
 654 1404 696 1428 739 1428 c 0
 790 1428 829 1393 843 1357 c 2
 1168 530 l 1
 1188 509 1200 482 1200 452 c 2
 1200 448 l 1
 1361 41 l 2
 1366 28 1368 15 1368 1 c 0
 1368 -55 1325 -112 1257 -112 c 0
 1212 -112 1168 -85 1151 -41 c 2
 998 347 l 1
 448 397 l 1
 263 -14 l 2
 244 -55 202 -80 159 -80 c 0
545 614 m 1
 906 581 l 1
 731 1026 l 1
 545 614 l 1
EndSplineSet
Colour: ffff
EndChar

StartChar: B
Encoding: 66 66 14
Width: 1138
VWidth: 2426
Flags: HMW
LayerCount: 2
Fore
SplineSet
336 844 m 1
 402 849 482 858 556 875 c 0
 720 913 784 972 784 1028 c 0
 784 1156 690 1234 533 1234 c 0
 466 1234 391 1221 319 1201 c 1
 327 1089 333 978 336 844 c 1
879 773 m 1
 1016 693 1090 549 1090 376 c 0
 1090 15 760 -98 501 -98 c 0
 386 -98 270 -80 169 -48 c 0
 121 -33 91 14 91 60 c 2
 91 67 l 1
 106 262 112 518 112 706 c 0
 112 935 103 1089 88 1271 c 0
 88 1274 88 1277 88 1280 c 0
 88 1327 118 1369 159 1385 c 0
 274 1430 406 1458 533 1458 c 0
 768 1458 1010 1312 1010 1028 c 0
 1010 918 951 829 879 773 c 1
536 626 m 0
 473 626 403 624 337 619 c 1
 336 471 330 299 321 145 c 1
 378 134 441 128 501 128 c 0
 728 128 866 203 866 376 c 0
 866 546 778 626 536 626 c 0
EndSplineSet
Colour: ffff
EndChar

StartChar: C
Encoding: 67 67 15
Width: 1271
VWidth: 2426
Flags: HMW
LayerCount: 2
Fore
SplineSet
1188 1291 m 0
 1188 1223 1131 1180 1075 1180 c 0
 1060 1180 1045 1183 1030 1189 c 0
 963 1219 890 1234 814 1234 c 0
 502 1234 272 983 272 662 c 0
 272 351 494 128 810 128 c 0
 896 128 982 149 1059 189 c 0
 1075 198 1092 201 1110 201 c 0
 1166 201 1223 157 1223 90 c 0
 1223 49 1201 9 1163 -11 c 0
 1053 -69 932 -98 810 -98 c 0
 374 -98 48 231 48 662 c 0
 48 1093 368 1458 814 1458 c 0
 918 1458 1023 1439 1122 1395 c 0
 1164 1376 1188 1334 1188 1291 c 0
EndSplineSet
Colour: ffff
EndChar

StartChar: D
Encoding: 68 68 16
Width: 1279
VWidth: 2426
Flags: HMW
LayerCount: 2
Fore
SplineSet
192 1435 m 0
 262 1451 335 1458 406 1458 c 0
 875 1458 1232 1200 1232 701 c 0
 1232 258 897 -98 452 -98 c 0
 352 -98 252 -79 159 -43 c 0
 114 -25 88 21 88 64 c 0
 88 68 87 72 88 76 c 0
 116 296 132 568 132 811 c 0
 132 1006 125 1122 105 1313 c 1
 105 1324 l 2
 105 1378 147 1425 192 1435 c 0
339 1231 m 1
 352 1090 358 973 358 811 c 0
 358 591 346 355 323 142 c 1
 364 133 409 128 452 128 c 0
 769 128 1006 374 1006 701 c 0
 1006 1062 791 1234 406 1234 c 0
 384 1234 363 1233 339 1231 c 1
EndSplineSet
Colour: ffff
EndChar

StartChar: E
Encoding: 69 69 17
Width: 1098
VWidth: 2426
Flags: HMW
LayerCount: 2
Fore
SplineSet
937 1471 m 0
 994 1471 1050 1427 1050 1360 c 0
 1050 1309 1015 1261 963 1249 c 0
 815 1215 636 1204 472 1204 c 0
 429 1204 386 1204 344 1206 c 1
 351 1129 354 1056 354 960 c 2
 354 864 l 1
 402 866 450 866 500 866 c 0
 626 866 749 860 872 845 c 0
 929 838 972 789 972 733 c 0
 972 668 918 621 859 621 c 0
 855 621 850 620 846 621 c 0
 732 634 618 642 500 642 c 0
 446 642 395 641 344 638 c 1
 337 532 326 428 312 331 c 0
 310 316 310 308 310 295 c 0
 310 180 430 158 768 158 c 2
 922 158 l 2
 983 158 1035 108 1035 46 c 0
 1035 -14 985 -65 924 -66 c 0
 873 -67 822 -68 770 -68 c 2
 698 -68 l 2
 445 -68 84 -52 84 295 c 0
 84 316 86 338 90 364 c 0
 102 448 111 538 118 631 c 1
 78 647 48 686 48 735 c 0
 48 784 81 829 128 843 c 1
 129 882 130 921 130 960 c 0
 130 1102 123 1179 106 1311 c 0
 106 1314 106 1317 106 1320 c 0
 106 1367 145 1438 218 1438 c 0
 220 1438 223 1437 225 1437 c 0
 308 1432 391 1428 472 1428 c 0
 624 1428 793 1441 913 1469 c 0
 921 1471 929 1471 937 1471 c 0
EndSplineSet
Colour: ffff
EndChar

StartChar: F
Encoding: 70 70 18
Width: 1092
VWidth: 2426
Flags: HMW
LayerCount: 2
Fore
SplineSet
931 1450 m 0
 988 1450 1044 1406 1044 1339 c 0
 1044 1288 1009 1240 957 1228 c 0
 809 1194 629 1184 466 1184 c 0
 424 1184 379 1185 339 1186 c 1
 349 1073 355 964 358 850 c 1
 402 852 445 854 489 854 c 0
 612 854 735 845 856 831 c 0
 912 824 956 775 956 719 c 0
 956 654 902 607 843 607 c 0
 839 607 834 606 830 607 c 0
 717 621 602 628 489 628 c 0
 446 628 403 627 360 625 c 1
 360 611 360 597 360 583 c 0
 360 374 349 171 329 -12 c 0
 323 -69 273 -112 217 -112 c 0
 152 -112 105 -59 105 0 c 0
 105 4 105 8 105 12 c 0
 124 185 136 382 136 583 c 0
 136 593 135 602 135 611 c 1
 87 622 48 665 48 721 c 0
 48 772 83 818 133 830 c 1
 129 989 120 1133 101 1291 c 1
 101 1299 l 2
 101 1345 140 1417 213 1417 c 0
 215 1417 218 1416 220 1416 c 0
 301 1411 384 1408 466 1408 c 0
 619 1408 787 1420 907 1448 c 0
 915 1450 923 1450 931 1450 c 0
EndSplineSet
Colour: ffff
EndChar

StartChar: G
Encoding: 71 71 19
Width: 1349
VWidth: 2426
Flags: HMW
LayerCount: 2
Fore
SplineSet
536 650 m 0
 536 716 590 761 648 761 c 0
 654 761 662 761 668 760 c 0
 714 752 905 748 990 748 c 0
 1055 748 1121 753 1165 760 c 0
 1171 761 1177 761 1183 761 c 0
 1245 761 1292 707 1296 657 c 0
 1299 614 1302 573 1302 532 c 0
 1302 201 1149 -98 716 -98 c 0
 333 -98 48 246 48 639 c 2
 48 646 l 1
 52 1049 270 1458 763 1458 c 0
 885 1458 1006 1419 1104 1346 c 0
 1133 1324 1149 1290 1149 1255 c 0
 1149 1191 1095 1144 1037 1144 c 0
 1014 1144 990 1151 970 1166 c 0
 912 1209 837 1234 763 1234 c 0
 433 1234 276 982 272 644 c 1
 272 639 l 2
 272 348 481 128 716 128 c 0
 1003 128 1074 263 1076 525 c 1
 1049 524 1019 522 990 522 c 2
 984 522 l 2
 890 522 716 522 628 538 c 0
 574 548 536 597 536 650 c 0
EndSplineSet
Colour: ffff
EndChar

StartChar: H
Encoding: 72 72 20
Width: 1319
VWidth: 2426
Flags: HMW
LayerCount: 2
Fore
SplineSet
272 1428 m 0
 334 1428 384 1377 384 1316 c 0
 384 1140 382 963 375 787 c 1
 540 785 740 780 918 774 c 1
 895 1311 l 1
 895 1316 l 2
 895 1376 944 1428 1007 1428 c 0
 1066 1428 1116 1381 1119 1321 c 2
 1144 764 l 1
 1194 752 1231 706 1231 654 c 0
 1231 604 1198 562 1154 547 c 1
 1178 -16 l 1
 1178 -21 l 2
 1178 -81 1129 -133 1066 -133 c 0
 1007 -133 957 -86 954 -26 c 2
 928 549 l 1
 745 555 534 560 364 562 c 1
 353 368 339 177 320 -11 c 0
 314 -68 265 -112 208 -112 c 0
 143 -112 96 -59 96 0 c 2
 96 11 l 1
 115 198 129 389 139 582 c 1
 108 602 88 637 88 676 c 0
 88 718 112 756 147 775 c 1
 154 955 158 1136 160 1317 c 0
 161 1378 211 1428 272 1428 c 0
EndSplineSet
Colour: ffff
EndChar

StartChar: I
Encoding: 73 73 21
Width: 435
VWidth: 2426
Flags: HMW
LayerCount: 2
Fore
SplineSet
200 -112 m 0
 137 -112 86 -59 88 3 c 2
 123 1364 l 2
 125 1424 175 1473 235 1473 c 0
 298 1473 349 1420 347 1358 c 2
 312 -3 l 2
 310 -63 260 -112 200 -112 c 0
EndSplineSet
Colour: ffff
EndChar

StartChar: J
Encoding: 74 74 22
Width: 680
VWidth: 2426
Flags: HMW
LayerCount: 2
Fore
SplineSet
160 130 m 0
 184 130 209 128 233 128 c 0
 344 128 362 150 362 300 c 0
 362 629 353 905 319 1204 c 1
 173 1204 l 2
 112 1204 60 1256 60 1317 c 0
 60 1378 112 1430 173 1430 c 2
 520 1430 l 2
 582 1430 632 1378 632 1317 c 0
 632 1258 584 1216 546 1207 c 1
 579 906 588 624 588 300 c 0
 588 94 490 -98 233 -98 c 0
 206 -98 178 -96 151 -94 c 0
 93 -89 48 -39 48 18 c 0
 48 82 101 130 160 130 c 0
EndSplineSet
Colour: ffff
EndChar

StartChar: K
Encoding: 75 75 23
Width: 1217
VWidth: 2426
Flags: HMW
LayerCount: 2
Fore
SplineSet
987 1473 m 0
 1051 1473 1098 1418 1098 1360 c 0
 1098 1337 1091 1314 1076 1294 c 0
 887 1040 626 844 377 692 c 1
 581 472 866 258 1118 95 c 0
 1151 74 1169 36 1169 -1 c 0
 1169 -66 1113 -112 1056 -112 c 0
 1035 -112 1014 -107 996 -95 c 0
 775 47 529 228 323 425 c 1
 312 -3 l 2
 310 -63 260 -112 200 -112 c 0
 137 -112 86 -59 88 3 c 2
 105 666 l 1
 97 682 93 701 93 720 c 0
 93 740 97 760 107 778 c 1
 123 1363 l 2
 125 1423 175 1472 235 1472 c 0
 298 1472 349 1419 347 1357 c 2
 337 932 l 1
 547 1068 752 1233 896 1428 c 0
 918 1457 952 1473 987 1473 c 0
EndSplineSet
Colour: ffff
EndChar

StartChar: L
Encoding: 76 76 24
Width: 1166
VWidth: 2426
Flags: HMW
LayerCount: 2
Fore
SplineSet
106 1316 m 2
 106 1376 154 1428 218 1428 c 0
 276 1428 326 1382 330 1323 c 0
 341 1153 346 990 346 830 c 0
 346 602 336 378 321 154 c 1
 1009 134 l 2
 1069 132 1118 82 1118 22 c 0
 1118 -40 1067 -90 1006 -90 c 0
 1005 -90 1004 -90 1003 -90 c 2
 197 -67 l 2
 141 -65 88 -17 88 45 c 2
 88 53 l 1
 108 315 122 570 122 830 c 0
 122 986 117 1145 106 1309 c 1
 106 1316 l 2
EndSplineSet
Colour: ffff
EndChar

StartChar: M
Encoding: 77 77 25
Width: 1599
VWidth: 2426
Flags: HMW
LayerCount: 2
Fore
SplineSet
190 -112 m 0
 125 -112 78 -59 78 0 c 0
 78 4 78 8 78 12 c 2
 215 1312 l 2
 221 1370 272 1412 328 1412 c 0
 385 1412 425 1367 435 1330 c 0
 496 1108 635 805 735 633 c 0
 755 598 774 571 787 555 c 1
 799 570 813 589 830 618 c 0
 943 809 1085 1165 1120 1338 c 0
 1131 1391 1179 1428 1231 1428 c 0
 1300 1428 1340 1364 1342 1320 c 0
 1360 812 1416 480 1519 38 c 0
 1521 30 1522 21 1522 13 c 0
 1522 -44 1477 -100 1410 -100 c 0
 1359 -100 1312 -65 1300 -14 c 0
 1236 261 1188 500 1157 766 c 1
 1114 671 1069 579 1024 504 c 0
 972 416 907 316 787 316 c 0
 655 316 593 432 541 521 c 0
 493 603 441 704 389 817 c 1
 302 -12 l 2
 296 -69 246 -112 190 -112 c 0
EndSplineSet
Colour: ffff
EndChar

StartChar: N
Encoding: 78 78 26
Width: 1307
VWidth: 2426
Flags: HMW
LayerCount: 2
Fore
SplineSet
200 -112 m 0
 137 -112 88 -60 88 0 c 0
 88 2 88 4 88 6 c 0
 110 450 127 866 133 1317 c 0
 134 1378 185 1428 245 1428 c 0
 283 1428 317 1406 334 1384 c 0
 570 1075 788 746 984 417 c 1
 995 1362 l 2
 996 1423 1046 1473 1107 1473 c 0
 1169 1473 1220 1422 1219 1360 c 2
 1204 3 l 2
 1203 -52 1157 -108 1093 -108 c 0
 1053 -108 1014 -88 994 -51 c 0
 802 295 587 645 351 981 c 1
 343 650 329 329 312 -6 c 0
 309 -65 259 -112 200 -112 c 0
EndSplineSet
Colour: ffff
EndChar

StartChar: O
Encoding: 79 79 27
Width: 1485
VWidth: 2426
Flags: HMW
LayerCount: 2
Fore
SplineSet
713 -98 m 0
 327 -98 48 206 48 613 c 0
 48 1045 350 1458 799 1458 c 0
 1213 1458 1438 1061 1438 684 c 0
 1438 244 1130 -98 713 -98 c 0
713 128 m 0
 994 128 1212 348 1212 684 c 0
 1212 995 1037 1234 799 1234 c 0
 506 1234 272 953 272 613 c 0
 272 312 459 128 713 128 c 0
EndSplineSet
Colour: ffff
EndChar

StartChar: P
Encoding: 80 80 28
Width: 1269
VWidth: 2426
Flags: HMW
LayerCount: 2
Fore
SplineSet
160 1055 m 0
 98 1055 48 1107 48 1167 c 0
 48 1193 57 1220 75 1241 c 0
 201 1385 436 1458 636 1458 c 0
 969 1458 1222 1189 1222 862 c 0
 1222 503 863 296 560 296 c 0
 517 296 456 298 393 306 c 1
 370 -8 l 2
 366 -66 316 -112 258 -112 c 0
 194 -112 146 -60 146 0 c 2
 146 8 l 1
 174 403 l 1
 168 417 165 432 165 448 c 0
 165 471 171 491 182 507 c 1
 222 1073 l 1
 203 1061 182 1055 160 1055 c 0
457 1205 m 1
 409 534 l 1
 463 527 527 522 560 522 c 0
 789 522 996 679 996 862 c 0
 996 1073 841 1234 636 1234 c 0
 579 1234 516 1222 457 1205 c 1
EndSplineSet
Colour: ffff
EndChar

StartChar: Q
Encoding: 81 81 29
Width: 1485
VWidth: 1823
Flags: HMW
LayerCount: 2
Fore
SplineSet
771 438 m 0
 771 496 818 551 882 551 c 0
 917 551 952 535 974 505 c 0
 1104 325 1217 194 1382 50 c 0
 1407 28 1420 -4 1420 -35 c 0
 1420 -97 1368 -147 1308 -147 c 0
 1282 -147 1255 -138 1234 -120 c 0
 1056 36 928 185 792 373 c 0
 778 393 771 415 771 438 c 0
EndSplineSet
Refer: 27 79 N 1 0 0 1 0 0 2
Colour: ffff
EndChar

StartChar: R
Encoding: 82 82 30
Width: 1270
VWidth: 1823
Flags: HMW
LayerCount: 2
Fore
SplineSet
160 1055 m 0
 98 1055 48 1107 48 1167 c 0
 48 1193 57 1220 75 1241 c 0
 199 1382 421 1458 622 1458 c 0
 959 1458 1190 1183 1190 862 c 0
 1190 605 1002 402 768 327 c 1
 1166 98 l 2
 1202 77 1222 38 1222 -1 c 0
 1222 -67 1166 -112 1109 -112 c 0
 1090 -112 1071 -108 1054 -98 c 2
 410 273 l 1
 394 -6 l 2
 391 -65 341 -112 282 -112 c 0
 219 -112 170 -60 170 0 c 0
 170 2 170 4 170 6 c 2
 192 402 l 1
 170 423 158 453 158 484 c 0
 158 522 176 553 202 572 c 1
 231 1080 l 1
 211 1064 185 1055 160 1055 c 0
464 1210 m 1
 425 539 l 1
 471 526 516 520 560 520 c 0
 790 520 964 685 964 862 c 0
 964 1079 823 1234 622 1234 c 0
 570 1234 516 1224 464 1210 c 1
EndSplineSet
Colour: ffff
EndChar

StartChar: S
Encoding: 83 83 31
Width: 1182
VWidth: 2426
Flags: HMW
LayerCount: 2
Fore
SplineSet
1073 1259 m 0
 1073 1192 1017 1148 960 1148 c 0
 942 1148 923 1153 906 1162 c 0
 822 1209 722 1234 619 1234 c 0
 413 1234 278 1124 278 996 c 0
 278 895 383 844 615 774 c 0
 806 716 1134 637 1134 343 c 0
 1134 28 826 -98 578 -98 c 0
 405 -98 231 -59 106 10 c 0
 69 30 48 69 48 109 c 0
 48 176 104 220 161 220 c 0
 179 220 198 215 215 206 c 0
 292 163 439 128 578 128 c 0
 784 128 910 220 910 343 c 0
 910 423 794 484 549 558 c 0
 362 615 52 693 52 996 c 0
 52 1306 355 1458 619 1458 c 0
 758 1458 896 1425 1016 1358 c 0
 1053 1338 1073 1299 1073 1259 c 0
EndSplineSet
Colour: ffff
EndChar

StartChar: T
Encoding: 84 84 32
Width: 1423
VWidth: 2426
Flags: HMW
LayerCount: 2
Fore
SplineSet
1375 1297 m 0
 1375 1235 1324 1185 1263 1185 c 2
 1261 1185 l 1
 824 1192 l 1
 815 979 810 768 810 551 c 0
 810 368 820 186 820 3 c 0
 820 -58 771 -109 708 -109 c 0
 648 -109 598 -61 596 -1 c 0
 590 183 586 366 586 551 c 0
 586 769 590 982 599 1196 c 1
 158 1204 l 2
 97 1205 48 1256 48 1316 c 0
 48 1378 99 1428 160 1428 c 2
 162 1428 l 1
 1265 1409 l 2
 1326 1408 1375 1358 1375 1297 c 0
EndSplineSet
Colour: ffff
EndChar

StartChar: U
Encoding: 85 85 33
Width: 1310
VWidth: 2426
Flags: HMW
LayerCount: 2
Fore
SplineSet
275 1446 m 0
 342 1446 386 1390 386 1333 c 0
 386 1325 386 1318 384 1310 c 0
 343 1120 312 940 312 734 c 0
 312 359 385 128 631 128 c 0
 938 128 998 624 998 1095 c 0
 998 1182 990 1272 990 1361 c 0
 990 1421 1039 1473 1102 1473 c 0
 1161 1473 1211 1426 1214 1366 c 0
 1218 1279 1222 1187 1222 1095 c 0
 1222 712 1222 -98 631 -98 c 0
 159 -98 88 381 88 734 c 0
 88 962 121 1162 164 1358 c 0
 175 1410 223 1446 275 1446 c 0
EndSplineSet
Colour: ffff
EndChar

StartChar: V
Encoding: 86 86 34
Width: 1368
VWidth: 2426
Flags: HMW
LayerCount: 2
Fore
SplineSet
48 1315 m 0
 48 1371 91 1428 159 1428 c 0
 206 1428 250 1399 266 1353 c 2
 617 341 l 1
 1107 1365 l 2
 1126 1405 1167 1428 1209 1428 c 0
 1276 1428 1320 1371 1320 1315 c 0
 1320 1299 1316 1282 1309 1267 c 2
 701 -4 l 2
 686 -35 650 -67 601 -67 c 0
 554 -67 510 -38 494 8 c 2
 54 1279 l 2
 50 1291 48 1303 48 1315 c 0
EndSplineSet
Colour: ffff
EndChar

StartChar: W
Encoding: 87 87 35
Width: 2006
VWidth: 2426
Flags: HMW
LayerCount: 2
Fore
SplineSet
48 1348 m 0
 48 1404 91 1461 159 1461 c 0
 207 1461 253 1429 268 1381 c 2
 571 377 l 1
 926 1223 l 2
 944 1266 987 1291 1031 1291 c 0
 1084 1291 1124 1253 1137 1215 c 2
 1415 395 l 1
 1739 1352 l 2
 1755 1398 1800 1428 1847 1428 c 0
 1915 1428 1958 1371 1958 1315 c 0
 1958 1303 1957 1292 1953 1280 c 2
 1522 9 l 2
 1509 -30 1470 -67 1416 -67 c 0
 1369 -67 1324 -38 1308 9 c 2
 1019 862 l 1
 657 1 l 2
 643 -32 605 -67 554 -67 c 0
 506 -67 460 -36 445 13 c 2
 52 1317 l 2
 49 1328 48 1337 48 1348 c 0
EndSplineSet
Colour: ffff
EndChar

StartChar: X
Encoding: 88 88 36
Width: 1267
VWidth: 2426
Flags: HMW
LayerCount: 2
Fore
SplineSet
91 1276 m 0
 91 1334 137 1389 202 1389 c 0
 238 1389 273 1373 295 1342 c 2
 622 879 l 1
 977 1401 l 2
 999 1433 1035 1450 1071 1450 c 0
 1136 1450 1182 1395 1182 1337 c 0
 1182 1315 1176 1294 1163 1275 c 2
 760 682 l 1
 1199 61 l 2
 1213 42 1219 19 1219 -3 c 0
 1219 -61 1173 -116 1108 -116 c 0
 1072 -116 1037 -100 1015 -69 c 2
 625 484 l 1
 253 -63 l 2
 231 -95 195 -112 159 -112 c 0
 94 -112 48 -57 48 1 c 0
 48 23 54 44 67 63 c 2
 487 680 l 1
 111 1212 l 2
 97 1231 91 1254 91 1276 c 0
EndSplineSet
Colour: ffff
EndChar

StartChar: Y
Encoding: 89 89 37
Width: 1267
VWidth: 2426
Flags: HMW
LayerCount: 2
Fore
SplineSet
748 2 m 2
 749 -60 699 -112 636 -112 c 0
 576 -112 525 -63 524 -2 c 2
 513 596 l 1
 68 1222 l 2
 54 1241 48 1263 48 1286 c 0
 48 1344 94 1399 159 1399 c 0
 194 1399 230 1383 252 1352 c 2
 623 830 l 1
 1014 1401 l 2
 1036 1433 1072 1450 1108 1450 c 0
 1173 1450 1219 1395 1219 1337 c 0
 1219 1315 1213 1294 1200 1275 c 2
 738 599 l 1
 748 2 l 2
EndSplineSet
Colour: ffff
EndChar

StartChar: Z
Encoding: 90 90 38
Width: 1422
VWidth: 2426
Flags: HMW
LayerCount: 2
Fore
SplineSet
161 1158 m 0
 104 1158 48 1202 48 1269 c 0
 48 1319 82 1366 133 1379 c 0
 339 1431 528 1458 745 1458 c 0
 769 1458 801 1460 838 1460 c 0
 957 1460 1123 1445 1192 1320 c 0
 1205 1297 1212 1269 1212 1241 c 0
 1212 1179 1181 1131 1146 1093 c 0
 866 784 639 506 425 182 c 1
 676 204 929 216 1197 216 c 2
 1262 216 l 2
 1323 216 1375 165 1375 104 c 0
 1375 43 1323 -8 1262 -8 c 2
 1197 -8 l 2
 856 -8 537 -29 218 -65 c 1
 208 -65 l 2
 139 -65 94 -10 94 48 c 0
 94 68 99 87 110 105 c 0
 363 521 625 852 954 1216 c 1
 897 1228 809 1234 745 1234 c 0
 548 1234 381 1209 187 1161 c 0
 178 1159 170 1158 161 1158 c 0
EndSplineSet
Colour: ffff
EndChar

StartChar: zero
Encoding: 48 48 39
Width: 1141
VWidth: 2426
Flags: HMW
LayerCount: 2
Fore
SplineSet
48 486 m 0
 48 785 98 1458 580 1458 c 0
 924 1458 1094 1130 1094 843 c 0
 1094 488 1015 -98 510 -98 c 0
 159 -98 48 225 48 486 c 0
272 486 m 0
 272 257 349 128 510 128 c 0
 771 128 868 456 868 843 c 0
 868 1068 746 1234 580 1234 c 0
 374 1234 272 845 272 486 c 0
EndSplineSet
Colour: ffff
EndChar

StartChar: one
Encoding: 49 49 40
Width: 715
VWidth: 2426
Flags: HMW
LayerCount: 2
Fore
SplineSet
506 -112 m 0
 444 -112 394 -61 394 1 c 2
 401 1083 l 1
 342 1034 282 989 218 951 c 0
 200 940 181 936 161 936 c 0
 104 936 48 981 48 1047 c 0
 48 1086 67 1124 102 1145 c 0
 208 1209 322 1305 397 1390 c 0
 417 1412 448 1428 481 1428 c 2
 515 1428 l 2
 565 1428 627 1383 627 1315 c 2
 618 -1 l 2
 618 -62 567 -112 506 -112 c 0
EndSplineSet
Colour: ffff
EndChar

StartChar: two
Encoding: 50 50 41
Width: 1171
VWidth: 2426
Flags: HMW
LayerCount: 2
Fore
SplineSet
161 -67 m 2
 99 -67 48 -16 48 45 c 0
 48 76 60 106 84 128 c 2
 461 472 l 2
 693 684 840 871 840 1021 c 0
 840 1125 761 1234 609 1234 c 0
 441 1234 320 1090 320 904 c 0
 320 843 269 792 208 792 c 0
 147 792 96 843 96 904 c 0
 96 1184 291 1458 609 1458 c 0
 887 1458 1066 1243 1066 1021 c 0
 1066 743 843 516 613 306 c 2
 472 177 l 1
 525 178 574 180 626 180 c 0
 755 180 885 174 1016 168 c 0
 1076 165 1124 115 1124 56 c 0
 1124 -7 1071 -56 1011 -56 c 2
 1006 -56 l 1
 876 -50 749 -46 626 -46 c 0
 471 -46 322 -51 172 -67 c 1
 161 -67 l 2
EndSplineSet
Colour: ffff
EndChar

StartChar: three
Encoding: 51 51 42
Width: 1078
VWidth: 2426
Flags: HMW
LayerCount: 2
Fore
SplineSet
224 955 m 0
 157 955 113 1011 113 1068 c 0
 113 1076 113 1084 115 1092 c 0
 166 1318 355 1458 581 1458 c 0
 791 1458 982 1300 982 1008 c 0
 982 891 928 795 852 730 c 1
 956 668 1025 559 1030 414 c 1
 1030 117 774 -98 484 -98 c 0
 345 -98 202 -54 89 39 c 0
 62 61 48 93 48 126 c 0
 48 189 101 238 160 238 c 0
 185 238 211 230 232 213 c 0
 299 158 391 128 484 128 c 0
 668 128 804 260 805 410 c 1
 801 513 751 555 619 572 c 0
 592 576 563 578 531 578 c 0
 478 578 423 567 376 560 c 0
 371 559 366 559 361 559 c 0
 302 559 249 607 249 671 c 0
 249 727 293 774 341 782 c 0
 425 797 516 811 587 837 c 0
 710 882 758 935 758 1008 c 0
 758 1192 671 1234 581 1234 c 0
 451 1234 362 1164 335 1042 c 0
 323 990 275 955 224 955 c 0
EndSplineSet
Colour: ffff
EndChar

StartChar: four
Encoding: 52 52 43
Width: 1268
VWidth: 2426
Flags: HMW
LayerCount: 2
Fore
SplineSet
804 893 m 0
 869 893 916 840 916 781 c 2
 916 770 l 1
 885 448 l 1
 952 460 1017 474 1081 490 c 0
 1090 492 1098 493 1107 493 c 0
 1164 493 1221 449 1221 382 c 0
 1221 331 1186 284 1135 272 c 0
 1047 251 955 231 862 215 c 1
 840 -11 l 2
 834 -68 785 -112 728 -112 c 0
 663 -112 616 -59 616 0 c 2
 616 11 l 1
 633 185 l 1
 545 176 456 172 368 172 c 0
 323 172 277 173 229 180 c 0
 190 184 114 197 70 273 c 0
 55 299 48 330 48 359 c 0
 48 419 70 459 92 488 c 0
 311 784 477 1008 618 1358 c 0
 636 1401 678 1428 723 1428 c 0
 791 1428 834 1371 834 1315 c 0
 834 1301 831 1287 826 1274 c 0
 681 916 510 674 306 398 c 1
 327 397 346 396 368 396 c 0
 463 396 559 402 655 413 c 1
 692 792 l 2
 698 850 747 893 804 893 c 0
EndSplineSet
Colour: ffff
EndChar

StartChar: five
Encoding: 53 53 44
Width: 1113
VWidth: 2426
Flags: HMW
LayerCount: 2
Fore
SplineSet
942 1449 m 0
 999 1449 1055 1405 1055 1338 c 0
 1055 1286 1018 1238 966 1227 c 0
 885 1210 774 1204 637 1204 c 0
 540 1204 439 1207 356 1214 c 1
 332 978 l 1
 395 999 456 1008 518 1008 c 0
 781 1008 1066 859 1066 470 c 0
 1066 113 792 -98 496 -98 c 0
 353 -98 209 -51 90 44 c 0
 62 66 48 99 48 132 c 0
 48 196 102 244 161 244 c 0
 186 244 210 236 230 220 c 0
 307 159 403 128 496 128 c 0
 688 128 840 245 840 470 c 0
 840 715 703 784 518 784 c 0
 434 784 345 754 274 690 c 0
 257 675 227 662 199 662 c 0
 137 662 87 714 87 774 c 2
 87 785 l 1
 143 1352 l 2
 148 1402 196 1453 256 1453 c 0
 263 1453 270 1452 277 1451 c 0
 346 1437 497 1428 637 1428 c 0
 766 1428 869 1436 920 1447 c 0
 928 1449 934 1449 942 1449 c 0
EndSplineSet
Colour: ffff
EndChar

StartChar: six
Encoding: 54 54 45
Width: 1099
VWidth: 2426
Flags: HMW
LayerCount: 2
Fore
SplineSet
827 409 m 0
 827 623 705 698 576 698 c 0
 454 698 318 611 274 558 c 1
 273 531 272 503 272 475 c 0
 272 250 360 128 548 128 c 0
 710 128 827 250 827 409 c 0
956 1280 m 0
 956 1212 899 1169 843 1169 c 0
 833 1169 822 1170 812 1173 c 0
 737 1195 672 1204 619 1204 c 0
 449 1204 356 1093 306 857 c 1
 384 895 476 924 576 924 c 0
 819 924 1052 742 1052 409 c 0
 1052 132 837 -98 548 -98 c 0
 200 -98 48 186 48 475 c 0
 48 564 51 653 60 739 c 0
 96 1075 232 1430 619 1430 c 0
 698 1430 783 1417 876 1389 c 0
 924 1375 956 1328 956 1280 c 0
EndSplineSet
Colour: ffff
EndChar

StartChar: eight
Encoding: 56 56 46
Width: 1079
VWidth: 2426
Flags: HMW
LayerCount: 2
Fore
SplineSet
344 866 m 1
 455 976 583 1074 703 1148 c 1
 653 1207 601 1234 523 1234 c 0
 348 1234 272 1137 272 1024 c 0
 272 973 298 917 344 866 c 1
378 564 m 1
 310 471 276 385 276 324 c 0
 276 206 358 128 488 128 c 0
 618 128 694 212 694 295 c 0
 694 379 574 485 411 550 c 0
 400 554 389 559 378 564 c 1
1008 1030 m 0
 1008 973 965 917 897 917 c 0
 866 917 836 929 814 952 c 1
 723 896 625 821 538 740 c 1
 696 669 918 534 918 295 c 0
 918 66 718 -98 488 -98 c 0
 250 -98 52 74 52 324 c 0
 52 458 114 583 196 695 c 1
 117 775 48 888 48 1024 c 0
 48 1269 244 1458 523 1458 c 0
 689 1458 822 1375 910 1247 c 1
 918 1247 l 2
 975 1247 1031 1202 1031 1135 c 0
 1031 1108 1022 1082 1004 1061 c 1
 1007 1051 1008 1040 1008 1030 c 0
EndSplineSet
Colour: ffff
EndChar

StartChar: period
Encoding: 46 46 47
Width: 478
VWidth: 2517
Flags: HMW
LayerCount: 2
Fore
SplineSet
58 87 m 0
 58 160 123 232 206 232 c 0
 306 232 342 145 342 94 c 0
 342 31 294 -60 201 -60 c 0
 90 -60 58 36 58 87 c 0
EndSplineSet
Colour: ffff
EndChar

StartChar: comma
Encoding: 44 44 49
Width: 478
VWidth: 1823
Flags: HMW
LayerCount: 2
Fore
SplineSet
111 -319 m 0
 45 -319 0 -263 -0 -206 c 0
 0 -187 5 -167 15 -150 c 2
 245 246 l 2
 266 282 304 301 343 301 c 0
 409 301 454 245 454 188 c 0
 454 169 449 149 439 132 c 2
 209 -264 l 2
 188 -300 150 -319 111 -319 c 0
EndSplineSet
Colour: ffff
EndChar

StartChar: bracketleft
Encoding: 91 91 51
Width: 715
VWidth: 2426
Flags: HMW
LayerCount: 2
Fore
SplineSet
515 1433 m 0
 574 1433 627 1385 627 1321 c 0
 627 1263 582 1214 524 1209 c 0
 469 1205 415 1204 361 1204 c 2
 328 1204 l 1
 334 1125 336 1049 336 972 c 0
 336 742 312 502 312 282 c 2
 312 266 l 2
 312 169 313 166 515 157 c 0
 575 154 623 104 623 45 c 0
 623 -18 570 -67 510 -67 c 2
 505 -67 l 1
 309 -58 88 -9 88 266 c 0
 88 495 112 740 112 972 c 0
 112 1084 105 1196 92 1308 c 0
 92 1311 92 1314 92 1317 c 0
 92 1365 133 1434 204 1434 c 0
 256 1434 306 1428 361 1428 c 0
 416 1428 466 1433 515 1433 c 0
EndSplineSet
Colour: ffff
EndChar

StartChar: bracketright
Encoding: 93 93 52
Width: 726
VWidth: 2426
Flags: HMW
LayerCount: 2
Fore
SplineSet
88 1343 m 0
 88 1409 142 1455 200 1455 c 0
 206 1455 212 1455 218 1454 c 0
 308 1440 411 1430 512 1428 c 0
 577 1427 622 1369 622 1313 c 0
 622 1306 622 1299 620 1292 c 0
 586 1135 584 1064 584 875 c 0
 584 683 638 482 638 285 c 0
 638 -4 398 -68 207 -68 c 0
 146 -68 95 -16 95 45 c 0
 95 106 146 158 207 158 c 0
 380 158 414 176 414 285 c 0
 414 475 360 677 360 875 c 0
 360 1011 360 1102 376 1210 c 1
 309 1215 243 1222 182 1232 c 0
 127 1241 88 1289 88 1343 c 0
EndSplineSet
PairPos2: "'kern' Horizontal Kerning in Arabic lookup 2 per glyph data 0" uni0622 dx=300 dy=0 dh=300 dv=0 dx=0 dy=0 dh=0 dv=0
Colour: ffff
EndChar

StartChar: braceleft
Encoding: 123 123 53
Width: 695
VWidth: 1839
Flags: HMW
LayerCount: 2
Fore
SplineSet
422 413 m 0
 422 341 408 279 408 215 c 0
 408 202 406 192 406 184 c 0
 406 160 416 158 495 158 c 0
 556 158 608 106 608 45 c 0
 608 -16 556 -68 495 -68 c 0
 310 -68 182 41 182 215 c 0
 182 284 196 335 196 413 c 0
 196 495 185 590 169 637 c 1
 127 654 88 688 88 746 c 0
 88 802 127 846 184 859 c 1
 189 888 192 933 192 983 c 0
 192 1063 186 1127 186 1186 c 0
 186 1348 296 1474 492 1474 c 0
 553 1474 605 1422 605 1361 c 0
 605 1300 553 1248 492 1248 c 0
 418 1248 410 1246 410 1219 c 2
 410 1186 l 2
 410 1131 417 1078 417 1019 c 0
 417 1006 416 994 416 983 c 0
 416 889 415 803 377 726 c 1
 412 634 422 518 422 413 c 0
EndSplineSet
Colour: ffff
EndChar

StartChar: braceright
Encoding: 125 125 54
Width: 695
VWidth: 0
Flags: HMW
LayerCount: 2
Fore
SplineSet
512 1190 m 0
 512 1121 498 1070 498 992 c 0
 498 910 510 815 526 768 c 1
 568 751 607 717 607 659 c 0
 607 603 568 559 511 546 c 1
 506 517 504 472 504 422 c 0
 504 342 510 278 510 219 c 0
 510 57 399 -68 203 -68 c 0
 142 -68 91 -17 91 44 c 0
 91 105 142 156 203 156 c 0
 277 156 285 159 285 186 c 0
 285 194 284 205 284 219 c 0
 284 274 278 327 278 386 c 2
 278 422 l 2
 278 516 280 602 318 679 c 1
 283 771 274 887 274 992 c 0
 274 1043 277 1091 283 1133 c 0
 286 1156 288 1175 288 1190 c 0
 288 1203 289 1213 289 1221 c 0
 289 1245 279 1248 200 1248 c 0
 139 1248 88 1299 88 1360 c 0
 88 1421 139 1472 200 1472 c 0
 385 1472 512 1364 512 1190 c 0
EndSplineSet
PairPos2: "'kern' Horizontal Kerning in Arabic lookup 2 per glyph data 0" uni0622 dx=300 dy=0 dh=300 dv=0 dx=0 dy=0 dh=0 dv=0
Colour: ffff
EndChar

StartChar: grave
Encoding: 96 96 55
Width: 539
VWidth: 2426
Flags: HMW
LayerCount: 2
Fore
SplineSet
68 1482 m 0
 68 1541 116 1594 180 1594 c 0
 214 1594 246 1580 268 1552 c 0
 338 1463 413 1324 462 1215 c 0
 469 1200 471 1185 471 1170 c 0
 471 1114 428 1057 360 1057 c 0
 317 1057 276 1082 257 1123 c 0
 214 1218 140 1351 92 1412 c 0
 76 1432 68 1458 68 1482 c 0
EndSplineSet
Colour: ffff
EndChar

StartChar: bar
Encoding: 124 124 56
Width: 417
VWidth: 2426
Flags: HMW
LayerCount: 2
Fore
SplineSet
200 -112 m 0
 138 -112 88 -61 88 0 c 0
 88 367 104 1041 104 1459 c 0
 104 1520 156 1572 217 1572 c 0
 278 1572 330 1520 330 1459 c 0
 330 1038 320 366 313 -2 c 0
 312 -63 260 -112 200 -112 c 0
EndSplineSet
Colour: ffff
EndChar

StartChar: asciicircum
Encoding: 94 94 57
Width: 718
VWidth: 2426
Flags: HMW
LayerCount: 2
Fore
SplineSet
179 1057 m 0
 113 1057 68 1113 68 1170 c 0
 68 1190 73 1210 84 1228 c 2
 250 1497 l 2
 271 1531 309 1550 347 1550 c 0
 381 1550 417 1529 434 1508 c 2
 626 1267 l 2
 642 1247 650 1222 650 1197 c 0
 650 1138 602 1085 538 1085 c 0
 505 1085 472 1099 450 1127 c 2
 358 1243 l 1
 276 1110 l 2
 255 1076 217 1057 179 1057 c 0
EndSplineSet
Colour: ffff
EndChar

StartChar: hyphen
Encoding: 45 45 58
Width: 1037
VWidth: 2426
Flags: HMW
LayerCount: 2
Fore
SplineSet
160 325 m 2
 101 325 48 373 48 437 c 0
 48 494 92 544 150 549 c 0
 408 571 631 574 877 574 c 0
 938 574 990 522 990 461 c 0
 990 400 938 348 877 348 c 0
 632 348 418 347 170 325 c 1
 160 325 l 2
EndSplineSet
Colour: ffff
EndChar

StartChar: plus
Encoding: 43 43 59
Width: 1033
VWidth: 2426
Flags: HMW
LayerCount: 2
Fore
SplineSet
160 529 m 0
 101 529 48 576 48 641 c 0
 48 697 90 746 146 753 c 0
 230 763 313 770 394 774 c 1
 386 865 373 955 357 1028 c 0
 355 1036 355 1044 355 1052 c 0
 355 1109 399 1165 466 1165 c 0
 517 1165 565 1130 577 1078 c 0
 597 988 612 883 620 779 c 1
 705 779 791 777 878 773 c 0
 938 770 986 720 986 661 c 0
 986 598 933 549 873 549 c 0
 791 549 708 554 628 554 c 1
 628 437 621 336 593 256 c 0
 577 210 533 181 486 181 c 0
 418 181 375 238 375 294 c 0
 375 306 377 318 381 330 c 0
 391 360 402 446 403 549 c 1
 327 545 252 538 174 529 c 0
 170 528 164 529 160 529 c 0
EndSplineSet
Colour: ffff
EndChar

StartChar: exclam
Encoding: 33 33 60
Width: 583
VWidth: 0
Flags: HMW
LayerCount: 2
Fore
SplineSet
446 85 m 0
 446 25 395 -68 298 -68 c 0
 240 -68 138 -29 138 84 c 0
 138 170 207 240 294 240 c 0
 389 240 446 155 446 85 c 0
138 1361 m 0
 138 1419 184 1473 250 1473 c 0
 305 1473 353 1432 361 1376 c 0
 398 1105 408 838 408 547 c 0
 408 508 408 466 407 422 c 0
 406 362 354 312 294 312 c 0
 232 312 182 363 182 424 c 2
 182 547 l 2
 182 834 174 1089 139 1346 c 0
 138 1351 138 1356 138 1361 c 0
EndSplineSet
Colour: ffff
EndChar

StartChar: quotesingle
Encoding: 39 39 62
Width: 331
VWidth: 2426
Flags: HMW
LayerCount: 2
Fore
SplineSet
160 860 m 0
 131 860 110 884 110 910 c 2
 110 915 l 1
 117 977 121 1051 121 1126 c 0
 121 1205 110 1287 110 1361 c 0
 110 1387 131 1411 160 1411 c 0
 185 1411 208 1392 210 1366 c 0
 217 1290 221 1207 221 1126 c 0
 221 1047 217 971 210 905 c 0
 207 880 185 860 160 860 c 0
EndSplineSet
Colour: ffff00
EndChar

StartChar: parenleft
Encoding: 40 40 63
Width: 606
VWidth: 1839
Flags: HMW
LayerCount: 2
Fore
SplineSet
361 1524 m 0
 428 1524 472 1467 472 1411 c 0
 472 1395 469 1378 461 1363 c 0
 339 1113 312 958 312 682 c 0
 312 420 379 266 507 3 c 0
 515 -12 518 -29 518 -45 c 0
 518 -101 474 -158 407 -158 c 0
 365 -158 324 -135 305 -95 c 0
 177 168 88 374 88 682 c 0
 88 976 125 1185 259 1461 c 0
 278 1501 319 1524 361 1524 c 0
EndSplineSet
Colour: ffff
EndChar

StartChar: parenright
Encoding: 41 41 64
Width: 606
VWidth: 1839
Flags: HMW
LayerCount: 2
Fore
SplineSet
245 -158 m 0
 178 -158 134 -101 134 -45 c 0
 134 -29 137 -12 145 3 c 0
 267 253 294 408 294 684 c 0
 294 946 227 1100 99 1363 c 0
 91 1378 88 1395 88 1411 c 0
 88 1467 132 1524 199 1524 c 0
 241 1524 282 1501 301 1461 c 0
 429 1198 518 992 518 684 c 0
 518 390 481 181 347 -95 c 0
 328 -135 287 -158 245 -158 c 0
EndSplineSet
PairPos2: "'kern' Horizontal Kerning in Arabic lookup 2 per glyph data 0" uni0622 dx=320 dy=0 dh=320 dv=0 dx=0 dy=0 dh=0 dv=0
Colour: ffff
EndChar

StartChar: less
Encoding: 60 60 65
Width: 645
VWidth: 1839
Flags: HMW
LayerCount: 2
Fore
SplineSet
597 414 m 0
 597 357 552 301 486 301 c 0
 448 301 410 320 389 355 c 0
 321 467 239 563 146 644 c 0
 120 667 109 697 109 726 c 0
 109 761 125 796 148 815 c 0
 241 892 321 985 387 1101 c 0
 408 1137 447 1157 486 1157 c 0
 552 1157 597 1101 597 1044 c 0
 597 1025 593 1006 583 989 c 0
 526 889 460 804 385 728 c 1
 457 653 524 565 581 471 c 0
 592 453 597 434 597 414 c 0
EndSplineSet
Colour: ffff
EndChar

StartChar: backslash
Encoding: 92 92 66
Width: 1105
VWidth: 2426
Flags: HMW
LayerCount: 2
Fore
SplineSet
68 1315 m 0
 68 1373 115 1428 179 1428 c 0
 214 1428 248 1412 270 1383 c 0
 584 961 835 596 1031 37 c 0
 1035 25 1037 13 1037 1 c 0
 1037 -55 994 -112 926 -112 c 0
 879 -112 835 -83 819 -37 c 0
 633 494 402 829 90 1249 c 0
 75 1269 68 1292 68 1315 c 0
EndSplineSet
Colour: ffff
EndChar

StartChar: asterisk
Encoding: 42 42 67
Width: 1108
VWidth: 1839
Flags: HMW
LayerCount: 2
Fore
SplineSet
405 1345 m 0
 405 1403 450 1457 516 1457 c 0
 569 1457 618 1419 628 1365 c 0
 644 1275 654 1187 660 1100 c 1
 740 1139 823 1174 909 1206 c 0
 922 1211 934 1213 947 1213 c 0
 1003 1213 1060 1170 1060 1102 c 0
 1060 1056 1033 1013 988 996 c 0
 916 969 846 939 779 907 c 1
 848 860 915 810 979 757 c 0
 1006 735 1019 703 1019 670 c 0
 1019 607 966 558 907 558 c 0
 882 558 856 566 835 583 c 0
 778 630 720 674 659 716 c 1
 653 631 642 547 628 463 c 0
 619 409 571 370 517 370 c 0
 451 370 405 424 405 482 c 0
 405 488 405 495 406 501 c 0
 417 569 426 637 432 705 c 1
 377 666 324 626 272 583 c 0
 251 566 225 558 200 558 c 0
 141 558 88 607 88 670 c 0
 88 703 101 735 128 757 c 0
 193 810 260 860 329 907 c 1
 262 939 193 969 121 996 c 0
 76 1013 48 1056 48 1102 c 0
 48 1170 105 1213 161 1213 c 0
 174 1213 187 1211 200 1206 c 0
 281 1176 358 1143 434 1106 c 1
 428 1178 419 1251 406 1325 c 0
 405 1331 405 1339 405 1345 c 0
EndSplineSet
Colour: ffff
EndChar

StartChar: numbersign
Encoding: 35 35 68
Width: 1734
VWidth: 1823
Flags: HMW
LayerCount: 2
Fore
SplineSet
387 -112 m 0
 319 -112 276 -55 276 1 c 0
 276 11 277 22 280 32 c 2
 383 375 l 1
 156 384 l 2
 96 386 48 437 48 496 c 0
 48 559 100 608 160 608 c 2
 164 608 l 1
 449 598 l 1
 515 817 l 1
 255 810 l 2
 254 810 253 810 252 810 c 0
 191 810 140 860 140 922 c 0
 140 982 189 1032 249 1034 c 2
 583 1044 l 1
 687 1393 l 2
 701 1441 748 1473 796 1473 c 0
 864 1473 907 1416 907 1360 c 0
 907 1350 906 1339 903 1329 c 2
 820 1051 l 1
 1141 1061 l 1
 1202 1382 l 2
 1212 1435 1261 1473 1314 1473 c 0
 1381 1473 1425 1417 1425 1360 c 0
 1425 1353 1425 1347 1424 1340 c 2
 1371 1068 l 1
 1571 1073 l 2
 1572 1073 1573 1073 1574 1073 c 0
 1635 1073 1686 1023 1686 961 c 0
 1686 901 1637 851 1577 849 c 2
 1328 841 l 1
 1276 566 l 1
 1514 557 l 2
 1574 555 1622 505 1622 445 c 0
 1622 382 1570 333 1510 333 c 2
 1506 333 l 1
 1233 343 l 1
 1164 -21 l 2
 1154 -74 1105 -112 1052 -112 c 0
 985 -112 941 -56 941 1 c 0
 941 8 941 14 942 21 c 2
 1006 351 l 1
 615 366 l 1
 496 -32 l 2
 482 -80 435 -112 387 -112 c 0
1098 834 m 1
 752 824 l 1
 682 589 l 1
 1048 575 l 1
 1098 834 l 1
EndSplineSet
Colour: ffff
EndChar

StartChar: slash
Encoding: 47 47 70
Width: 965
VWidth: 1839
Flags: HMW
LayerCount: 2
Fore
SplineSet
199 -112 m 0
 133 -112 88 -56 88 1 c 0
 88 21 93 40 104 58 c 0
 371 501 560 930 655 1384 c 0
 666 1436 714 1473 766 1473 c 0
 833 1473 878 1417 878 1360 c 0
 878 1353 877 1345 875 1338 c 0
 774 852 571 399 296 -58 c 0
 275 -93 237 -112 199 -112 c 0
EndSplineSet
Colour: ffff
EndChar

StartChar: greater
Encoding: 62 62 71
Width: 645
VWidth: 1823
Flags: HMW
LayerCount: 2
Fore
SplineSet
48 1045 m 0
 48 1102 93 1158 159 1158 c 0
 197 1158 235 1139 256 1104 c 0
 324 992 406 896 499 815 c 0
 525 792 536 762 536 733 c 0
 536 698 520 663 497 644 c 0
 404 567 324 474 258 358 c 0
 237 322 198 302 159 302 c 0
 93 302 48 358 48 415 c 0
 48 434 52 453 62 470 c 0
 119 570 185 655 260 731 c 1
 188 806 121 894 64 988 c 0
 53 1006 48 1025 48 1045 c 0
EndSplineSet
Colour: ffff
EndChar

StartChar: equal
Encoding: 61 61 72
Width: 1037
VWidth: 1839
Flags: HMW
LayerCount: 2
Fore
SplineSet
48 472 m 0
 48 539 104 583 161 583 c 0
 168 583 175 582 182 581 c 0
 213 575 398 568 498 568 c 0
 602 568 741 573 868 583 c 0
 871 583 874 583 877 583 c 0
 936 583 990 535 990 471 c 0
 990 413 944 363 886 359 c 0
 753 349 608 344 498 344 c 0
 388 344 219 345 138 361 c 0
 85 371 48 420 48 472 c 0
48 875 m 0
 48 939 101 987 160 987 c 2
 170 987 l 1
 278 978 468 974 557 974 c 0
 664 974 777 979 867 987 c 1
 877 987 l 2
 936 987 990 939 990 875 c 0
 990 818 945 768 887 763 c 0
 791 755 672 748 557 748 c 0
 462 748 272 752 150 763 c 0
 92 768 48 818 48 875 c 0
EndSplineSet
Colour: ffff
EndChar

StartChar: AE
Encoding: 198 198 75
Width: 1908
VWidth: 2426
Flags: HMW
LayerCount: 2
Fore
SplineSet
1747 1486 m 0
 1804 1486 1860 1442 1860 1375 c 0
 1860 1324 1825 1276 1774 1264 c 0
 1598 1223 1414 1204 1224 1204 c 0
 1211 1204 1180 1205 1139 1205 c 1
 1139 1177 1140 1148 1140 1119 c 0
 1140 1026 1140 925 1138 823 c 1
 1334 823 1525 817 1672 805 c 0
 1730 800 1776 751 1776 693 c 0
 1776 629 1722 581 1663 581 c 0
 1660 581 1657 581 1654 581 c 0
 1515 592 1324 598 1131 598 c 1
 1125 452 1114 311 1094 196 c 0
 1092 184 1090 176 1090 173 c 0
 1090 163 1109 120 1253 112 c 0
 1379 104 1477 100 1602 100 c 2
 1726 100 l 2
 1787 100 1839 50 1839 -12 c 0
 1839 -72 1789 -123 1729 -124 c 0
 1686 -125 1645 -126 1604 -126 c 2
 1602 -126 l 2
 1471 -126 1367 -120 1239 -112 c 0
 1101 -104 866 -53 866 173 c 0
 866 197 868 215 872 238 c 0
 889 333 899 460 905 597 c 1
 782 595 646 592 537 588 c 1
 485 342 396 105 246 -73 c 0
 224 -99 192 -112 160 -112 c 0
 97 -112 48 -59 48 0 c 0
 48 26 56 52 74 73 c 0
 186 206 262 400 309 613 c 1
 289 633 276 660 276 692 c 0
 276 737 303 776 342 794 c 1
 369 973 380 1158 380 1325 c 0
 380 1383 429 1437 492 1437 c 0
 560 1437 1152 1430 1224 1430 c 0
 1400 1430 1566 1447 1722 1484 c 0
 1730 1486 1739 1486 1747 1486 c 0
575 814 m 1
 681 818 802 821 912 822 c 1
 914 925 914 1026 914 1119 c 2
 914 1207 l 1
 804 1208 687 1209 603 1210 c 1
 600 1085 592 950 575 814 c 1
EndSplineSet
Colour: ffff
EndChar

StartChar: cedilla
Encoding: 184 184 77
Width: 717
VWidth: 2426
Flags: HMW
LayerCount: 2
Fore
SplineSet
215 0 m 0
 215 63 268 112 327 112 c 0
 352 112 378 104 398 87 c 0
 498 6 670 -169 670 -361 c 0
 670 -551 495 -614 319 -614 c 0
 247 -614 180 -604 129 -589 c 0
 80 -575 48 -529 48 -480 c 0
 48 -412 104 -369 161 -369 c 0
 171 -369 181 -370 191 -373 c 0
 217 -380 269 -388 319 -388 c 0
 409 -388 444 -371 444 -361 c 0
 444 -309 334 -150 256 -87 c 0
 229 -65 215 -33 215 0 c 0
EndSplineSet
Colour: ffff
EndChar

StartChar: Oslash
Encoding: 216 216 78
Width: 1494
VWidth: 1823
Flags: HMW
LayerCount: 2
Fore
SplineSet
169 -112 m 0
 104 -112 58 -57 58 1 c 0
 58 22 63 43 76 62 c 0
 432 596 815 997 1259 1399 c 0
 1280 1418 1307 1428 1334 1428 c 0
 1394 1428 1446 1378 1446 1316 c 0
 1446 1285 1434 1255 1410 1233 c 0
 973 837 608 454 264 -62 c 0
 243 -94 206 -112 169 -112 c 0
EndSplineSet
Refer: 27 79 N 1 0 0 1 0 0 2
Colour: ffff
EndChar

StartChar: uni0627
Encoding: 1575 1575 80
Width: 445
VWidth: 1839
Flags: HMW
AnchorPoint: "Anchor-3" 200 1169 basechar 0
AnchorPoint: "Anchor-1" 218 0 basechar 0
LayerCount: 2
Fore
SplineSet
88 1166 m 0
 88 1224 134 1278 200 1278 c 0
 255 1278 305 1237 312 1181 c 0
 344 940 358 797 358 531 c 0
 358 363 350 161 336 -8 c 0
 331 -66 281 -111 224 -111 c 0
 160 -111 112 -58 112 1 c 0
 112 4 112 7 112 10 c 0
 126 171 132 369 132 531 c 0
 132 791 120 912 88 1151 c 0
 87 1156 88 1161 88 1166 c 0
EndSplineSet
PairPos2: "'kern' Horizontal Kerning in Arabic lookup 2 per glyph data 0" uni063A dx=-267 dy=0 dh=-267 dv=0 dx=0 dy=0 dh=0 dv=0
PairPos2: "'kern' Horizontal Kerning in Arabic lookup 2 per glyph data 0" uni0639 dx=-267 dy=0 dh=-267 dv=0 dx=0 dy=0 dh=0 dv=0
Substitution2: "'fina' Terminal Forms in Arabic lookup 4 subtable" uniFE8E
PairPos2: "'kern' Horizontal Kerning in Arabic lookup 2 per glyph data 1" uni0639 dx=-200 dy=0 dh=-200 dv=0 dx=0 dy=0 dh=0 dv=0
PairPos2: "'kern' Horizontal Kerning in Arabic lookup 2 per glyph data 1" uni063A dx=-200 dy=0 dh=-200 dv=0 dx=0 dy=0 dh=0 dv=0
Colour: ffff
EndChar

StartChar: uni066E
Encoding: 1646 1646 81
Width: 1726
VWidth: 2370
Flags: HMW
AnchorPoint: "Anchor-3" 838 489 basechar 0
AnchorPoint: "Anchor-1" 803 -30 basechar 0
LayerCount: 2
Fore
SplineSet
48 373 m 0
 48 492 70 698 201 698 c 0
 268 698 312 641 312 585 c 0
 312 568 309 552 301 536 c 0
 293 519 272 427 272 373 c 0
 272 188 506 128 843 128 c 0
 1161 128 1454 201 1454 383 c 0
 1454 450 1428 539 1410 571 c 0
 1400 588 1396 607 1396 626 c 0
 1396 683 1441 739 1507 739 c 0
 1546 739 1585 719 1606 683 c 0
 1652 603 1678 492 1678 383 c 0
 1678 -67 1103 -98 843 -98 c 0
 558 -98 48 -66 48 373 c 0
EndSplineSet
Substitution2: "'fina' Terminal Forms in Arabic lookup 4 subtable" uniFBE8
Colour: ffff
EndChar

StartChar: uni0631
Encoding: 1585 1585 82
Width: 807
VWidth: 2370
Flags: HMW
AnchorPoint: "Anchor-1" 425 -394 basechar 0
AnchorPoint: "Anchor-3" 522 566 basechar 0
LayerCount: 2
Fore
SplineSet
430 483 m 0
 430 540 473 596 541 596 c 0
 591 596 638 563 651 513 c 0
 695 349 720 204 720 71 c 0
 720 -266 545 -492 183 -567 c 0
 176 -569 168 -569 161 -569 c 0
 104 -569 48 -525 48 -458 c 0
 48 -406 84 -358 137 -347 c 0
 413 -290 494 -174 494 71 c 0
 494 174 473 303 433 455 c 0
 431 464 430 474 430 483 c 0
EndSplineSet
PairPos2: "'kern' Horizontal Kerning in Arabic lookup 2 per glyph data 2" uniFC3E dx=-400 dy=0 dh=-400 dv=0 dx=0 dy=0 dh=0 dv=0
PairPos2: "'kern' Horizontal Kerning in Arabic lookup 2 per glyph data 2" uniFC3D dx=-400 dy=0 dh=-400 dv=0 dx=0 dy=0 dh=0 dv=0
PairPos2: "'kern' Horizontal Kerning in Arabic lookup 2 per glyph data 2" uniE028 dx=-400 dy=0 dh=-400 dv=0 dx=0 dy=0 dh=0 dv=0
PairPos2: "'kern' Horizontal Kerning in Arabic lookup 2 per glyph data 2" uniE027 dx=-234 dy=0 dh=-234 dv=0 dx=0 dy=0 dh=0 dv=0
PairPos2: "'kern' Horizontal Kerning in Arabic lookup 2 per glyph data 2" uniE026 dx=-234 dy=0 dh=-234 dv=0 dx=0 dy=0 dh=0 dv=0
PairPos2: "'kern' Horizontal Kerning in Arabic lookup 2 per glyph data 2" uniE023 dx=-400 dy=0 dh=-400 dv=0 dx=0 dy=0 dh=0 dv=0
PairPos2: "'kern' Horizontal Kerning in Arabic lookup 2 per glyph data 2" uniFC37 dx=-400 dy=0 dh=-400 dv=0 dx=0 dy=0 dh=0 dv=0
PairPos2: "'kern' Horizontal Kerning in Arabic lookup 2 per glyph data 2" uniFC36 dx=-234 dy=0 dh=-234 dv=0 dx=0 dy=0 dh=0 dv=0
PairPos2: "'kern' Horizontal Kerning in Arabic lookup 2 per glyph data 2" uniFC35 dx=-234 dy=0 dh=-234 dv=0 dx=0 dy=0 dh=0 dv=0
PairPos2: "'kern' Horizontal Kerning in Arabic lookup 2 per glyph data 2" uniFC32 dx=-234 dy=0 dh=-234 dv=0 dx=0 dy=0 dh=0 dv=0
PairPos2: "'kern' Horizontal Kerning in Arabic lookup 2 per glyph data 2" uniFC31 dx=-234 dy=0 dh=-234 dv=0 dx=0 dy=0 dh=0 dv=0
PairPos2: "'kern' Horizontal Kerning in Arabic lookup 2 per glyph data 2" uniFD08 dx=-234 dy=0 dh=-234 dv=0 dx=0 dy=0 dh=0 dv=0
PairPos2: "'kern' Horizontal Kerning in Arabic lookup 2 per glyph data 2" uniFD07 dx=-234 dy=0 dh=-234 dv=0 dx=0 dy=0 dh=0 dv=0
PairPos2: "'kern' Horizontal Kerning in Arabic lookup 2 per glyph data 2" uniFD06 dx=-234 dy=0 dh=-234 dv=0 dx=0 dy=0 dh=0 dv=0
PairPos2: "'kern' Horizontal Kerning in Arabic lookup 2 per glyph data 2" uniFD05 dx=-234 dy=0 dh=-234 dv=0 dx=0 dy=0 dh=0 dv=0
PairPos2: "'kern' Horizontal Kerning in Arabic lookup 2 per glyph data 2" uniFCFE dx=-234 dy=0 dh=-234 dv=0 dx=0 dy=0 dh=0 dv=0
PairPos2: "'kern' Horizontal Kerning in Arabic lookup 2 per glyph data 2" uniFCFD dx=-234 dy=0 dh=-234 dv=0 dx=0 dy=0 dh=0 dv=0
PairPos2: "'kern' Horizontal Kerning in Arabic lookup 2 per glyph data 2" uniFCFC dx=-234 dy=0 dh=-234 dv=0 dx=0 dy=0 dh=0 dv=0
PairPos2: "'kern' Horizontal Kerning in Arabic lookup 2 per glyph data 2" uniFCFB dx=-234 dy=0 dh=-234 dv=0 dx=0 dy=0 dh=0 dv=0
PairPos2: "'kern' Horizontal Kerning in Arabic lookup 2 per glyph data 2" uniE01B dx=-150 dy=0 dh=-150 dv=0 dx=0 dy=0 dh=0 dv=0
PairPos2: "'kern' Horizontal Kerning in Arabic lookup 2 per glyph data 2" uniE019 dx=-150 dy=0 dh=-150 dv=0 dx=0 dy=0 dh=0 dv=0
PairPos2: "'kern' Horizontal Kerning in Arabic lookup 2 per glyph data 2" uniE017 dx=-150 dy=0 dh=-150 dv=0 dx=0 dy=0 dh=0 dv=0
Substitution2: "Single Substitution 1 subtable" uniE017
PairPos2: "'kern' Horizontal Kerning in Arabic lookup 2 per glyph data 0" period dx=-250 dy=0 dh=-250 dv=0 dx=0 dy=0 dh=0 dv=0
PairPos2: "'kern' Horizontal Kerning in Arabic lookup 2 per glyph data 0" uni060C dx=-250 dy=0 dh=-250 dv=0 dx=0 dy=0 dh=0 dv=0
PairPos2: "'kern' Horizontal Kerning in Arabic lookup 2 per glyph data 0" uni061B dx=-250 dy=0 dh=-250 dv=0 dx=0 dy=0 dh=0 dv=0
PairPos2: "'kern' Horizontal Kerning in Arabic lookup 2 per glyph data 0" parenleft dx=-250 dy=0 dh=-250 dv=0 dx=0 dy=0 dh=0 dv=0
PairPos2: "'kern' Horizontal Kerning in Arabic lookup 2 per glyph data 0" braceleft dx=-250 dy=0 dh=-250 dv=0 dx=0 dy=0 dh=0 dv=0
PairPos2: "'kern' Horizontal Kerning in Arabic lookup 2 per glyph data 0" bracketleft dx=-250 dy=0 dh=-250 dv=0 dx=0 dy=0 dh=0 dv=0
PairPos2: "'kern' Horizontal Kerning in Arabic lookup 2 per glyph data 5" space dx=-372 dy=0 dh=-372 dv=0 dx=0 dy=0 dh=0 dv=0
PairPos2: "'kern' Horizontal Kerning in Arabic lookup 2 per glyph data 2" uni0626 dx=-50 dy=0 dh=-50 dv=0 dx=0 dy=0 dh=0 dv=0
PairPos2: "'kern' Horizontal Kerning in Arabic lookup 2 per glyph data 2" uni064A dx=-50 dy=0 dh=-50 dv=0 dx=0 dy=0 dh=0 dv=0
PairPos2: "'kern' Horizontal Kerning in Arabic lookup 2 per glyph data 2" uni0649 dx=-50 dy=0 dh=-50 dv=0 dx=0 dy=0 dh=0 dv=0
PairPos2: "'kern' Horizontal Kerning in Arabic lookup 2 per glyph data 2" uni06CC dx=-50 dy=0 dh=-50 dv=0 dx=0 dy=0 dh=0 dv=0
PairPos2: "'kern' Horizontal Kerning in Arabic lookup 2 per glyph data 2" uniFBFE dx=-40 dy=0 dh=-40 dv=0 dx=0 dy=0 dh=0 dv=0
PairPos2: "'kern' Horizontal Kerning in Arabic lookup 2 per glyph data 2" uniFEF3 dx=-40 dy=0 dh=-40 dv=0 dx=0 dy=0 dh=0 dv=0
PairPos2: "'kern' Horizontal Kerning in Arabic lookup 2 per glyph data 2" uniFB58 dx=-40 dy=0 dh=-40 dv=0 dx=0 dy=0 dh=0 dv=0
Substitution2: "'fina' Terminal Forms in Arabic lookup 4 subtable" uniFEAE
PairPos2: "'kern' Horizontal Kerning in Arabic lookup 2 per glyph data 2" uni0622 dx=-167 dy=0 dh=-167 dv=0 dx=0 dy=0 dh=0 dv=0
PairPos2: "'kern' Horizontal Kerning in Arabic lookup 2 per glyph data 2" uni0623 dx=-167 dy=0 dh=-167 dv=0 dx=0 dy=0 dh=0 dv=0
PairPos2: "'kern' Horizontal Kerning in Arabic lookup 2 per glyph data 2" uni0624 dx=-133 dy=0 dh=-133 dv=0 dx=0 dy=0 dh=0 dv=0
PairPos2: "'kern' Horizontal Kerning in Arabic lookup 2 per glyph data 2" uni0627 dx=-167 dy=0 dh=-167 dv=0 dx=0 dy=0 dh=0 dv=0
PairPos2: "'kern' Horizontal Kerning in Arabic lookup 2 per glyph data 2" uni0628 dx=-234 dy=0 dh=-234 dv=0 dx=0 dy=0 dh=0 dv=0
PairPos2: "'kern' Horizontal Kerning in Arabic lookup 2 per glyph data 2" uni0629 dx=-234 dy=0 dh=-234 dv=0 dx=0 dy=0 dh=0 dv=0
PairPos2: "'kern' Horizontal Kerning in Arabic lookup 2 per glyph data 2" uni062A dx=-234 dy=0 dh=-234 dv=0 dx=0 dy=0 dh=0 dv=0
PairPos2: "'kern' Horizontal Kerning in Arabic lookup 2 per glyph data 2" uni062B dx=-234 dy=0 dh=-234 dv=0 dx=0 dy=0 dh=0 dv=0
PairPos2: "'kern' Horizontal Kerning in Arabic lookup 2 per glyph data 2" uni062F dx=-250 dy=0 dh=-250 dv=0 dx=0 dy=0 dh=0 dv=0
PairPos2: "'kern' Horizontal Kerning in Arabic lookup 2 per glyph data 2" uni0630 dx=-250 dy=0 dh=-250 dv=0 dx=0 dy=0 dh=0 dv=0
PairPos2: "'kern' Horizontal Kerning in Arabic lookup 2 per glyph data 2" uni0631 dx=-150 dy=0 dh=-150 dv=0 dx=0 dy=0 dh=0 dv=0
PairPos2: "'kern' Horizontal Kerning in Arabic lookup 2 per glyph data 2" uni0632 dx=-150 dy=0 dh=-150 dv=0 dx=0 dy=0 dh=0 dv=0
PairPos2: "'kern' Horizontal Kerning in Arabic lookup 2 per glyph data 2" uni0633 dx=-234 dy=0 dh=-234 dv=0 dx=0 dy=0 dh=0 dv=0
PairPos2: "'kern' Horizontal Kerning in Arabic lookup 2 per glyph data 2" uni0634 dx=-234 dy=0 dh=-234 dv=0 dx=0 dy=0 dh=0 dv=0
PairPos2: "'kern' Horizontal Kerning in Arabic lookup 2 per glyph data 2" uni0635 dx=-234 dy=0 dh=-234 dv=0 dx=0 dy=0 dh=0 dv=0
PairPos2: "'kern' Horizontal Kerning in Arabic lookup 2 per glyph data 2" uni0636 dx=-234 dy=0 dh=-234 dv=0 dx=0 dy=0 dh=0 dv=0
PairPos2: "'kern' Horizontal Kerning in Arabic lookup 2 per glyph data 2" uni0637 dx=-234 dy=0 dh=-234 dv=0 dx=0 dy=0 dh=0 dv=0
PairPos2: "'kern' Horizontal Kerning in Arabic lookup 2 per glyph data 2" uni0638 dx=-234 dy=0 dh=-234 dv=0 dx=0 dy=0 dh=0 dv=0
PairPos2: "'kern' Horizontal Kerning in Arabic lookup 2 per glyph data 2" uni0641 dx=-234 dy=0 dh=-234 dv=0 dx=0 dy=0 dh=0 dv=0
PairPos2: "'kern' Horizontal Kerning in Arabic lookup 2 per glyph data 2" uni0642 dx=-40 dy=0 dh=-40 dv=0 dx=0 dy=0 dh=0 dv=0
PairPos2: "'kern' Horizontal Kerning in Arabic lookup 2 per glyph data 2" uni0643 dx=-234 dy=0 dh=-234 dv=0 dx=0 dy=0 dh=0 dv=0
PairPos2: "'kern' Horizontal Kerning in Arabic lookup 2 per glyph data 2" uni0644 dx=-100 dy=0 dh=-100 dv=0 dx=0 dy=0 dh=0 dv=0
PairPos2: "'kern' Horizontal Kerning in Arabic lookup 2 per glyph data 2" uni0645 dx=-234 dy=0 dh=-234 dv=0 dx=0 dy=0 dh=0 dv=0
PairPos2: "'kern' Horizontal Kerning in Arabic lookup 2 per glyph data 2" uni0646 dx=-40 dy=0 dh=-40 dv=0 dx=0 dy=0 dh=0 dv=0
PairPos2: "'kern' Horizontal Kerning in Arabic lookup 2 per glyph data 2" uni0647 dx=-234 dy=0 dh=-234 dv=0 dx=0 dy=0 dh=0 dv=0
PairPos2: "'kern' Horizontal Kerning in Arabic lookup 2 per glyph data 2" uni0648 dx=-133 dy=0 dh=-133 dv=0 dx=0 dy=0 dh=0 dv=0
PairPos2: "'kern' Horizontal Kerning in Arabic lookup 2 per glyph data 2" uni067E dx=-234 dy=0 dh=-234 dv=0 dx=0 dy=0 dh=0 dv=0
PairPos2: "'kern' Horizontal Kerning in Arabic lookup 2 per glyph data 2" uni0698 dx=-150 dy=0 dh=-150 dv=0 dx=0 dy=0 dh=0 dv=0
PairPos2: "'kern' Horizontal Kerning in Arabic lookup 2 per glyph data 2" uni06A9 dx=-400 dy=0 dh=-400 dv=0 dx=0 dy=0 dh=0 dv=0
PairPos2: "'kern' Horizontal Kerning in Arabic lookup 2 per glyph data 2" uni06AF dx=-400 dy=0 dh=-400 dv=0 dx=0 dy=0 dh=0 dv=0
PairPos2: "'kern' Horizontal Kerning in Arabic lookup 2 per glyph data 2" uni06C0 dx=-234 dy=0 dh=-234 dv=0 dx=0 dy=0 dh=0 dv=0
PairPos2: "'kern' Horizontal Kerning in Arabic lookup 2 per glyph data 2" uni06CA dx=-133 dy=0 dh=-133 dv=0 dx=0 dy=0 dh=0 dv=0
PairPos2: "'kern' Horizontal Kerning in Arabic lookup 2 per glyph data 2" uniFB7C dx=-234 dy=0 dh=-234 dv=0 dx=0 dy=0 dh=0 dv=0
PairPos2: "'kern' Horizontal Kerning in Arabic lookup 2 per glyph data 2" uniFB90 dx=-400 dy=0 dh=-400 dv=0 dx=0 dy=0 dh=0 dv=0
PairPos2: "'kern' Horizontal Kerning in Arabic lookup 2 per glyph data 2" uniFB94 dx=-400 dy=0 dh=-400 dv=0 dx=0 dy=0 dh=0 dv=0
PairPos2: "'kern' Horizontal Kerning in Arabic lookup 2 per glyph data 2" uniFE8B dx=-200 dy=0 dh=-200 dv=0 dx=0 dy=0 dh=0 dv=0
PairPos2: "'kern' Horizontal Kerning in Arabic lookup 2 per glyph data 2" uniFE91 dx=-200 dy=0 dh=-200 dv=0 dx=0 dy=0 dh=0 dv=0
PairPos2: "'kern' Horizontal Kerning in Arabic lookup 2 per glyph data 2" uniFE97 dx=-200 dy=0 dh=-200 dv=0 dx=0 dy=0 dh=0 dv=0
PairPos2: "'kern' Horizontal Kerning in Arabic lookup 2 per glyph data 2" uniFE9B dx=-200 dy=0 dh=-200 dv=0 dx=0 dy=0 dh=0 dv=0
PairPos2: "'kern' Horizontal Kerning in Arabic lookup 2 per glyph data 2" uniFE9F dx=-134 dy=0 dh=-134 dv=0 dx=0 dy=0 dh=0 dv=0
PairPos2: "'kern' Horizontal Kerning in Arabic lookup 2 per glyph data 2" uniFEA3 dx=-134 dy=0 dh=-134 dv=0 dx=0 dy=0 dh=0 dv=0
PairPos2: "'kern' Horizontal Kerning in Arabic lookup 2 per glyph data 2" uniFEA7 dx=-134 dy=0 dh=-134 dv=0 dx=0 dy=0 dh=0 dv=0
PairPos2: "'kern' Horizontal Kerning in Arabic lookup 2 per glyph data 2" uniFEB3 dx=-234 dy=0 dh=-234 dv=0 dx=0 dy=0 dh=0 dv=0
PairPos2: "'kern' Horizontal Kerning in Arabic lookup 2 per glyph data 2" uniFEB7 dx=-234 dy=0 dh=-234 dv=0 dx=0 dy=0 dh=0 dv=0
PairPos2: "'kern' Horizontal Kerning in Arabic lookup 2 per glyph data 2" uniFEBB dx=-234 dy=0 dh=-234 dv=0 dx=0 dy=0 dh=0 dv=0
PairPos2: "'kern' Horizontal Kerning in Arabic lookup 2 per glyph data 2" uniFEBF dx=-234 dy=0 dh=-234 dv=0 dx=0 dy=0 dh=0 dv=0
PairPos2: "'kern' Horizontal Kerning in Arabic lookup 2 per glyph data 2" uniFEC3 dx=-234 dy=0 dh=-234 dv=0 dx=0 dy=0 dh=0 dv=0
PairPos2: "'kern' Horizontal Kerning in Arabic lookup 2 per glyph data 2" uniFEC7 dx=-234 dy=0 dh=-234 dv=0 dx=0 dy=0 dh=0 dv=0
PairPos2: "'kern' Horizontal Kerning in Arabic lookup 2 per glyph data 2" uniFECB dx=-234 dy=0 dh=-234 dv=0 dx=0 dy=0 dh=0 dv=0
PairPos2: "'kern' Horizontal Kerning in Arabic lookup 2 per glyph data 2" uniFECF dx=-234 dy=0 dh=-234 dv=0 dx=0 dy=0 dh=0 dv=0
PairPos2: "'kern' Horizontal Kerning in Arabic lookup 2 per glyph data 2" uniFED3 dx=-234 dy=0 dh=-234 dv=0 dx=0 dy=0 dh=0 dv=0
PairPos2: "'kern' Horizontal Kerning in Arabic lookup 2 per glyph data 2" uniFED7 dx=-234 dy=0 dh=-234 dv=0 dx=0 dy=0 dh=0 dv=0
PairPos2: "'kern' Horizontal Kerning in Arabic lookup 2 per glyph data 2" uniFEDB dx=-400 dy=0 dh=-400 dv=0 dx=0 dy=0 dh=0 dv=0
PairPos2: "'kern' Horizontal Kerning in Arabic lookup 2 per glyph data 2" uniFEDF dx=-234 dy=0 dh=-234 dv=0 dx=0 dy=0 dh=0 dv=0
PairPos2: "'kern' Horizontal Kerning in Arabic lookup 2 per glyph data 2" uniFEE3 dx=-234 dy=0 dh=-234 dv=0 dx=0 dy=0 dh=0 dv=0
PairPos2: "'kern' Horizontal Kerning in Arabic lookup 2 per glyph data 2" uniFEE7 dx=-234 dy=0 dh=-234 dv=0 dx=0 dy=0 dh=0 dv=0
PairPos2: "'kern' Horizontal Kerning in Arabic lookup 2 per glyph data 2" uniFEEB dx=-234 dy=0 dh=-234 dv=0 dx=0 dy=0 dh=0 dv=0
PairPos2: "'kern' Horizontal Kerning in Arabic lookup 2 per glyph data 2" uniFEF5 dx=-234 dy=0 dh=-234 dv=0 dx=0 dy=0 dh=0 dv=0
PairPos2: "'kern' Horizontal Kerning in Arabic lookup 2 per glyph data 2" uniFEF7 dx=-234 dy=0 dh=-234 dv=0 dx=0 dy=0 dh=0 dv=0
PairPos2: "'kern' Horizontal Kerning in Arabic lookup 2 per glyph data 2" uniFEF9 dx=-234 dy=0 dh=-234 dv=0 dx=0 dy=0 dh=0 dv=0
PairPos2: "'kern' Horizontal Kerning in Arabic lookup 2 per glyph data 2" uniFEFB dx=-234 dy=0 dh=-234 dv=0 dx=0 dy=0 dh=0 dv=0
PairPos2: "'kern' Horizontal Kerning in Arabic lookup 2 per glyph data 1" uni0639 dx=-90 dy=0 dh=-90 dv=0 dx=0 dy=0 dh=0 dv=0
PairPos2: "'kern' Horizontal Kerning in Arabic lookup 2 per glyph data 1" uni063A dx=-90 dy=0 dh=-90 dv=0 dx=0 dy=0 dh=0 dv=0
Colour: ffff
EndChar

StartChar: uni0633
Encoding: 1587 1587 83
Width: 2260
VWidth: 2279
Flags: HMW
AnchorPoint: "Anchor-1" 644 -563 basechar 0
AnchorPoint: "Anchor-3" 1542 533 basechar 0
LayerCount: 2
Fore
SplineSet
1755 420 m 0
 1755 369 1744 331 1744 275 c 0
 1744 224 1759 179 1778 158 c 0
 1794 142 1818 128 1867 128 c 0
 1910 128 1931 141 1949 161 c 0
 1969 184 1988 226 1988 298 c 0
 1988 386 1971 464 1951 538 c 0
 1948 547 1948 557 1948 566 c 0
 1948 623 1991 679 2059 679 c 0
 2109 679 2156 646 2169 596 c 0
 2191 514 2212 414 2212 298 c 0
 2212 190 2185 88 2119 13 c 0
 2057 -59 1964 -96 1867 -96 c 0
 1770 -96 1679 -64 1613 5 c 1
 1544 -67 1452 -92 1364 -92 c 0
 1317 -92 1273 -85 1231 -69 c 1
 1213 -358 1004 -586 644 -586 c 0
 258 -586 48 -351 48 -58 c 0
 48 96 91 255 152 402 c 0
 170 445 213 471 257 471 c 0
 325 471 368 414 368 358 c 0
 368 344 366 330 360 316 c 0
 307 187 272 52 272 -58 c 0
 272 -229 360 -360 644 -360 c 0
 909 -360 1008 -224 1008 -23 c 0
 1008 85 981 214 933 343 c 0
 928 356 926 368 926 381 c 0
 926 437 969 494 1037 494 c 0
 1083 494 1126 466 1143 422 c 0
 1223 208 1266 132 1364 132 c 0
 1434 132 1455 139 1489 230 c 0
 1506 275 1522 361 1532 435 c 0
 1539 486 1586 532 1643 532 c 0
 1706 532 1755 480 1755 420 c 0
EndSplineSet
Substitution2: "'init' Initial Forms in Arabic lookup 6 subtable" uniFEB3
Substitution2: "'medi' Medial Forms in Arabic lookup 5 subtable" uniFEB4
Substitution2: "'fina' Terminal Forms in Arabic lookup 4 subtable" uniFEB2
Colour: ffff
EndChar

StartChar: uni066F
Encoding: 1647 1647 84
Width: 1439
VWidth: 2370
Flags: HMW
AnchorPoint: "Anchor-1" 710 -526 basechar 0
AnchorPoint: "Anchor-3" 987 823 basechar 0
LayerCount: 2
Fore
SplineSet
1165 157 m 1
 1154 390 1083 530 998 530 c 0
 932 530 836 431 836 260 c 0
 836 152 860 126 996 126 c 0
 1069 126 1120 138 1165 157 c 1
305 567 m 0
 372 567 416 510 416 454 c 0
 416 437 412 420 404 404 c 0
 316 233 272 78 272 -40 c 0
 272 -222 370 -354 717 -354 c 0
 984 -354 1098 -254 1145 -84 c 1
 1098 -94 1049 -98 996 -98 c 0
 782 -98 610 20 610 260 c 0
 610 481 736 756 998 756 c 0
 1362 756 1392 288 1392 91 c 0
 1392 -321 1152 -578 717 -578 c 0
 296 -578 48 -368 48 -40 c 0
 48 130 106 315 204 506 c 0
 224 544 264 567 305 567 c 0
EndSplineSet
Substitution2: "'fina' Terminal Forms in Arabic lookup 4 subtable" uniE005
Colour: ffff
EndChar

StartChar: uni06BA
Encoding: 1722 1722 85
Width: 1384
VWidth: 2370
Flags: HMW
AnchorPoint: "Anchor-3" 692 493 basechar 0
AnchorPoint: "Anchor-1" 709 -476 basechar 0
LayerCount: 2
Back
SplineSet
251 404 m 17
 203 285 160 148 160 -2 c 0
 160 -298 390 -425 702 -425 c 0
 1019 -425 1224 -277 1224 27 c 0
 1224 188 1179 332 1127 459 c 1033
EndSplineSet
Fore
SplineSet
235 516 m 0
 303 516 346 459 346 403 c 0
 346 390 344 377 339 364 c 0
 297 254 272 113 272 16 c 0
 272 -191 370 -312 697 -312 c 0
 1025 -312 1112 -180 1112 23 c 0
 1112 139 1079 288 1025 415 c 0
 1019 429 1016 443 1016 458 c 0
 1016 514 1059 571 1127 571 c 0
 1171 571 1214 545 1232 503 c 0
 1298 350 1336 177 1336 23 c 0
 1336 -300 1121 -538 697 -538 c 0
 288 -538 48 -325 48 16 c 0
 48 145 75 304 129 444 c 0
 146 488 190 516 235 516 c 0
EndSplineSet
Colour: ffff
EndChar

StartChar: uni06A1
Encoding: 1697 1697 86
Width: 1719
VWidth: 2370
Flags: HMW
AnchorPoint: "Anchor-1" 811 -30 basechar 0
AnchorPoint: "Anchor-3" 1302 1200 basechar 0
LayerCount: 2
Fore
SplineSet
1443 534 m 1
 1424 828 1340 920 1280 920 c 0
 1191 920 1106 814 1106 658 c 0
 1106 539 1120 506 1259 506 c 0
 1319 506 1387 517 1443 534 c 1
194 682 m 0
 262 682 305 625 305 569 c 0
 305 559 304 549 301 539 c 0
 284 481 272 423 272 367 c 0
 272 192 484 124 829 124 c 0
 1125 124 1359 180 1422 297 c 1
 1370 287 1314 280 1259 280 c 0
 996 280 882 457 882 658 c 0
 882 866 1001 1144 1280 1144 c 0
 1612 1144 1672 732 1672 406 c 0
 1672 -52 1166 -102 829 -102 c 0
 528 -102 48 -56 48 367 c 0
 48 455 66 533 85 601 c 0
 99 650 145 682 194 682 c 0
EndSplineSet
Substitution2: "'medi' Medial Forms in Arabic lookup 5 subtable" uniE006
Substitution2: "'fina' Terminal Forms in Arabic lookup 4 subtable" uniE005
Colour: ffff
EndChar

StartChar: uni0644
Encoding: 1604 1604 87
Width: 1256
VWidth: 2370
Flags: HMW
AnchorPoint: "Anchor-3" 510 596 basechar 0
AnchorPoint: "Anchor-1" 623 -526 basechar 0
LayerCount: 2
Fore
SplineSet
935 1211 m 2
 935 1271 983 1323 1047 1323 c 0
 1105 1323 1155 1278 1159 1219 c 0
 1187 829 1208 499 1208 148 c 0
 1208 -211 1074 -536 619 -536 c 0
 280 -536 48 -322 48 -15 c 0
 48 138 98 294 155 408 c 0
 175 447 215 470 256 470 c 0
 323 470 367 413 367 357 c 0
 367 340 364 324 356 308 c 0
 313 222 272 88 272 -15 c 0
 272 -192 378 -312 619 -312 c 0
 916 -312 984 -167 984 148 c 0
 984 489 963 813 935 1203 c 1
 935 1211 l 2
EndSplineSet
Substitution2: "'init' Initial Forms in Arabic lookup 6 subtable" uniFEDF
Substitution2: "'medi' Medial Forms in Arabic lookup 5 subtable" uniFEE0
Substitution2: "'fina' Terminal Forms in Arabic lookup 4 subtable" uniFEDE
Colour: ffff
EndChar

StartChar: uni0645
Encoding: 1605 1605 88
Width: 1177
VWidth: 2370
Flags: HMW
AnchorPoint: "Anchor-3" 739 649 basechar 0
AnchorPoint: "Anchor-1" 615 -170 basechar 0
LayerCount: 2
Fore
SplineSet
529 165 m 1
 616 147 712 128 796 128 c 0
 888 128 904 145 904 221 c 0
 904 406 821 460 724 460 c 0
 623 460 552 304 532 178 c 0
 531 174 530 169 529 165 c 1
303 -804 m 0
 303 -864 254 -916 191 -916 c 0
 132 -916 82 -869 79 -810 c 2
 49 -225 l 2
 48 -203 48 -183 48 -166 c 0
 48 45 149 181 309 192 c 1
 309 199 309 207 310 214 c 0
 327 320 403 686 724 686 c 0
 957 686 1130 498 1130 221 c 0
 1130 15 974 -98 796 -98 c 0
 641 -98 515 -55 386 -37 c 0
 365 -34 346 -32 332 -32 c 0
 325 -32 318 -31 311 -31 c 0
 290 -31 272 -45 272 -166 c 0
 272 -183 272 -197 273 -213 c 2
 303 -798 l 2
 303 -800 303 -802 303 -804 c 0
EndSplineSet
Substitution2: "'init' Initial Forms in Arabic lookup 6 subtable" uniFEE3
Substitution2: "'medi' Medial Forms in Arabic lookup 5 subtable" uniFEE4
Substitution2: "'fina' Terminal Forms in Arabic lookup 4 subtable" uniFEE2
Colour: ffff
EndChar

StartChar: uni0635
Encoding: 1589 1589 89
Width: 2305
VWidth: 2279
Flags: HMW
AnchorPoint: "Anchor-1" 589 -563 basechar 0
AnchorPoint: "Anchor-3" 1879 791 basechar 0
LayerCount: 2
Fore
SplineSet
1451 147 m 1
 1505 135 1571 128 1650 128 c 0
 1858 128 2032 237 2032 378 c 0
 2032 443 1981 498 1873 498 c 0
 1705 498 1570 380 1451 147 c 1
939 365 m 0
 939 422 983 478 1050 478 c 0
 1094 478 1137 452 1155 409 c 0
 1181 346 1213 292 1252 252 c 1
 1384 508 1579 722 1873 722 c 0
 2061 722 2258 601 2258 378 c 0
 2258 35 1896 -98 1650 -98 c 0
 1478 -98 1341 -68 1231 -10 c 1
 1230 -361 998 -586 589 -586 c 0
 339 -586 48 -449 48 -117 c 0
 48 77 135 279 239 442 c 0
 260 475 298 493 335 493 c 0
 401 493 446 437 446 380 c 0
 446 359 441 338 429 320 c 0
 339 179 272 9 272 -117 c 0
 272 -279 397 -360 589 -360 c 0
 907 -360 1006 -237 1006 -7 c 0
 1006 86 986 201 944 331 c 0
 940 342 939 354 939 365 c 0
EndSplineSet
Substitution2: "'init' Initial Forms in Arabic lookup 6 subtable" uniFEBB
Substitution2: "'medi' Medial Forms in Arabic lookup 5 subtable" uniFEBC
Substitution2: "'fina' Terminal Forms in Arabic lookup 4 subtable" uniFEBA
Colour: ffff
EndChar

StartChar: uni0648
Encoding: 1608 1608 90
Width: 878
VWidth: 2370
Flags: HMW
AnchorPoint: "Anchor-1" 464 -437 basechar 0
AnchorPoint: "Anchor-3" 444 721 basechar 0
LayerCount: 2
Fore
SplineSet
605 149 m 1
 596 381 518 534 444 534 c 0
 409 534 316 459 316 260 c 0
 316 156 343 128 452 128 c 0
 485 128 528 133 578 145 c 0
 587 147 596 149 605 149 c 1
161 -573 m 0
 104 -573 48 -529 48 -462 c 0
 48 -409 86 -360 139 -350 c 0
 373 -306 512 -224 571 -86 c 1
 530 -93 490 -98 452 -98 c 0
 235 -98 92 48 92 260 c 0
 92 487 197 758 444 758 c 0
 793 758 830 301 830 108 c 0
 830 -325 532 -506 181 -572 c 0
 174 -573 168 -573 161 -573 c 0
EndSplineSet
PairPos2: "'kern' Horizontal Kerning in Arabic lookup 2 per glyph data 3" uniE028 dx=-233 dy=0 dh=-233 dv=0 dx=0 dy=0 dh=0 dv=0
PairPos2: "'kern' Horizontal Kerning in Arabic lookup 2 per glyph data 3" uniFC3E dx=-233 dy=0 dh=-233 dv=0 dx=0 dy=0 dh=0 dv=0
PairPos2: "'kern' Horizontal Kerning in Arabic lookup 2 per glyph data 3" uniFC3D dx=-233 dy=0 dh=-233 dv=0 dx=0 dy=0 dh=0 dv=0
PairPos2: "'kern' Horizontal Kerning in Arabic lookup 2 per glyph data 3" uniFC37 dx=-233 dy=0 dh=-233 dv=0 dx=0 dy=0 dh=0 dv=0
PairPos2: "'kern' Horizontal Kerning in Arabic lookup 2 per glyph data 3" uniE023 dx=-233 dy=0 dh=-233 dv=0 dx=0 dy=0 dh=0 dv=0
PairPos2: "'kern' Horizontal Kerning in Arabic lookup 2 per glyph data 4" uni0625 dx=223 dy=0 dh=223 dv=0 dx=0 dy=0 dh=0 dv=0
Substitution2: "'fina' Terminal Forms in Arabic lookup 4 subtable" uniFEEE
PairPos2: "'kern' Horizontal Kerning in Arabic lookup 2 per glyph data 3" uni06A9 dx=-233 dy=0 dh=-233 dv=0 dx=0 dy=0 dh=0 dv=0
PairPos2: "'kern' Horizontal Kerning in Arabic lookup 2 per glyph data 3" uni06AF dx=-233 dy=0 dh=-233 dv=0 dx=0 dy=0 dh=0 dv=0
PairPos2: "'kern' Horizontal Kerning in Arabic lookup 2 per glyph data 3" uniFB90 dx=-233 dy=0 dh=-233 dv=0 dx=0 dy=0 dh=0 dv=0
PairPos2: "'kern' Horizontal Kerning in Arabic lookup 2 per glyph data 3" uniFB94 dx=-233 dy=0 dh=-233 dv=0 dx=0 dy=0 dh=0 dv=0
PairPos2: "'kern' Horizontal Kerning in Arabic lookup 2 per glyph data 3" uniFEDB dx=-233 dy=0 dh=-233 dv=0 dx=0 dy=0 dh=0 dv=0
Colour: ffff
EndChar

StartChar: uni0637
Encoding: 1591 1591 91
Width: 1511
VWidth: 2370
Flags: HMW
AnchorPoint: "Anchor-3" 1135 781 basechar 0
AnchorPoint: "Anchor-1" 397 -30 basechar 0
LayerCount: 2
Fore
SplineSet
578 128 m 1
 1050 129 1238 267 1238 449 c 0
 1238 534 1183 590 1087 590 c 0
 940 590 748 443 614 198 c 0
 602 175 589 152 578 128 c 1
498 -96 m 1
 484 -140 445 -184 386 -184 c 0
 326 -184 284 -136 276 -82 c 1
 233 -78 189 -72 145 -66 c 0
 89 -58 48 -10 48 45 c 0
 48 111 102 157 160 157 c 0
 165 157 170 157 175 156 c 0
 228 149 281 144 331 139 c 1
 386 363 416 623 416 892 c 0
 416 993 413 1097 404 1202 c 0
 404 1205 404 1208 404 1211 c 0
 404 1270 452 1323 516 1323 c 0
 573 1323 623 1278 628 1220 c 0
 637 1109 642 999 642 892 c 0
 642 792 638 693 630 596 c 1
 757 723 914 816 1087 816 c 0
 1293 816 1464 662 1464 449 c 0
 1464 50 1050 -98 574 -98 c 0
 549 -98 524 -97 498 -96 c 1
EndSplineSet
Substitution2: "'init' Initial Forms in Arabic lookup 6 subtable" uniFEC3
Substitution2: "'medi' Medial Forms in Arabic lookup 5 subtable" uniFEC4
Substitution2: "'fina' Terminal Forms in Arabic lookup 4 subtable" uniFEC2
Colour: ffff
EndChar

StartChar: uni06A9
Encoding: 1705 1705 92
Width: 1870
VWidth: 2370
Flags: HMW
AnchorPoint: "Anchor-3" 1305 1197 basechar 0
AnchorPoint: "Anchor-1" 768 -65 basechar 0
LayerCount: 2
Fore
SplineSet
1709 1423 m 0
 1765 1423 1822 1379 1822 1312 c 0
 1822 1270 1800 1229 1760 1210 c 2
 1164 918 l 1
 1322 748 1500 541 1500 303 c 0
 1500 -17 1176 -98 768 -98 c 0
 414 -98 48 -36 48 340 c 0
 48 406 58 478 82 558 c 0
 96 606 142 638 191 638 c 0
 259 638 302 581 302 525 c 0
 302 515 301 504 298 494 c 0
 279 432 272 380 272 340 c 0
 272 188 386 128 768 128 c 0
 1204 128 1276 211 1276 303 c 0
 1276 453 1088 676 896 872 c 0
 881 888 864 921 864 950 c 0
 864 992 886 1033 926 1052 c 2
 1660 1412 l 2
 1676 1420 1693 1423 1709 1423 c 0
EndSplineSet
Substitution2: "'init' Initial Forms in Arabic lookup 6 subtable" uniFB90
Substitution2: "'medi' Medial Forms in Arabic lookup 5 subtable" uniFB91
Substitution2: "'fina' Terminal Forms in Arabic lookup 4 subtable" uniFB8F
Colour: ffff
EndChar

StartChar: uni062F
Encoding: 1583 1583 93
Width: 900
VWidth: 2370
Flags: HMW
AnchorPoint: "Anchor-3" 493 976 basechar 0
AnchorPoint: "Anchor-1" 377 -30 basechar 0
LayerCount: 2
Fore
SplineSet
304 771 m 0
 304 833 356 883 416 883 c 0
 443 883 470 874 491 855 c 0
 627 734 852 521 852 245 c 0
 852 10 615 -98 397 -98 c 0
 312 -98 219 -84 124 -52 c 0
 78 -36 48 9 48 56 c 0
 48 124 105 167 161 167 c 0
 173 167 184 166 196 162 c 0
 267 138 336 128 397 128 c 0
 573 128 628 204 628 245 c 0
 628 393 477 566 341 687 c 0
 316 709 304 740 304 771 c 0
EndSplineSet
PairPos2: "'kern' Horizontal Kerning in Arabic lookup 2 per glyph data 3" uniE028 dx=-267 dy=0 dh=-267 dv=0 dx=0 dy=0 dh=0 dv=0
PairPos2: "'kern' Horizontal Kerning in Arabic lookup 2 per glyph data 3" uniFC3E dx=-267 dy=0 dh=-267 dv=0 dx=0 dy=0 dh=0 dv=0
PairPos2: "'kern' Horizontal Kerning in Arabic lookup 2 per glyph data 3" uniFC3D dx=-267 dy=0 dh=-267 dv=0 dx=0 dy=0 dh=0 dv=0
PairPos2: "'kern' Horizontal Kerning in Arabic lookup 2 per glyph data 3" uniFC37 dx=-267 dy=0 dh=-267 dv=0 dx=0 dy=0 dh=0 dv=0
PairPos2: "'kern' Horizontal Kerning in Arabic lookup 2 per glyph data 3" uniE023 dx=-267 dy=0 dh=-267 dv=0 dx=0 dy=0 dh=0 dv=0
Substitution2: "'fina' Terminal Forms in Arabic lookup 4 subtable" uniFEAA
PairPos2: "'kern' Horizontal Kerning in Arabic lookup 2 per glyph data 3" uni06A9 dx=-267 dy=0 dh=-267 dv=0 dx=0 dy=0 dh=0 dv=0
PairPos2: "'kern' Horizontal Kerning in Arabic lookup 2 per glyph data 3" uni06AF dx=-267 dy=0 dh=-267 dv=0 dx=0 dy=0 dh=0 dv=0
PairPos2: "'kern' Horizontal Kerning in Arabic lookup 2 per glyph data 3" uniFB90 dx=-267 dy=0 dh=-267 dv=0 dx=0 dy=0 dh=0 dv=0
PairPos2: "'kern' Horizontal Kerning in Arabic lookup 2 per glyph data 3" uniFB94 dx=-267 dy=0 dh=-267 dv=0 dx=0 dy=0 dh=0 dv=0
PairPos2: "'kern' Horizontal Kerning in Arabic lookup 2 per glyph data 3" uniFEDB dx=-267 dy=0 dh=-267 dv=0 dx=0 dy=0 dh=0 dv=0
PairPos2: "'kern' Horizontal Kerning in Arabic lookup 2 per glyph data 1" uni0639 dx=-334 dy=0 dh=-334 dv=0 dx=0 dy=0 dh=0 dv=0
PairPos2: "'kern' Horizontal Kerning in Arabic lookup 2 per glyph data 1" uni063A dx=-334 dy=0 dh=-334 dv=0 dx=0 dy=0 dh=0 dv=0
Colour: ffff
EndChar

StartChar: uni062D
Encoding: 1581 1581 94
Width: 1252
VWidth: 2370
Flags: HMW
AnchorPoint: "Anchor-3" 444 811 basechar 0
AnchorPoint: "Anchor-1" 709 -714 basechar 0
LayerCount: 2
Fore
SplineSet
1087 -384 m 0
 1144 -384 1200 -428 1200 -495 c 0
 1200 -536 1179 -575 1141 -595 c 0
 1003 -668 848 -706 693 -706 c 0
 409 -706 48 -567 48 -201 c 0
 48 220 479 434 752 532 c 1
 625 600 506 652 433 652 c 0
 381 652 335 642 287 506 c 0
 271 460 227 431 180 431 c 0
 112 431 69 488 69 544 c 0
 69 556 71 568 75 580 c 0
 143 774 275 878 433 878 c 0
 595 878 743 791 873 722 c 0
 970 670 1059 627 1114 616 c 0
 1162 606 1204 565 1204 507 c 0
 1204 451 1162 400 1105 394 c 0
 971 379 272 175 272 -201 c 0
 272 -373 447 -480 693 -480 c 0
 812 -480 931 -452 1035 -397 c 0
 1051 -388 1069 -384 1087 -384 c 0
EndSplineSet
Substitution2: "'init' Initial Forms in Arabic lookup 6 subtable" uniFEA3
Substitution2: "'medi' Medial Forms in Arabic lookup 5 subtable" uniFEA4
Substitution2: "'fina' Terminal Forms in Arabic lookup 4 subtable" uniFEA2
Colour: ffff
EndChar

StartChar: uni0639
Encoding: 1593 1593 95
Width: 1275
VWidth: 2370
Flags: HMW
AnchorPoint: "Anchor-3" 640 1199 basechar 0
AnchorPoint: "Anchor-1" 717 -699 basechar 0
LayerCount: 2
Fore
SplineSet
886 580 m 0
 938 580 998 535 998 467 c 0
 998 408 951 358 891 355 c 0
 801 351 741 340 665 310 c 0
 448 225 272 39 272 -172 c 0
 272 -378 446 -486 717 -486 c 0
 843 -486 972 -456 1064 -409 c 0
 1080 -401 1097 -397 1114 -397 c 0
 1170 -397 1227 -441 1227 -508 c 0
 1227 -549 1204 -589 1166 -609 c 0
 1036 -676 877 -712 717 -712 c 0
 402 -712 48 -560 48 -172 c 0
 48 78 195 280 376 408 c 1
 256 469 170 588 170 745 c 0
 170 1012 399 1206 632 1206 c 0
 750 1206 858 1160 935 1078 c 0
 955 1057 965 1029 965 1001 c 0
 965 941 915 889 853 889 c 0
 823 889 793 901 771 924 c 0
 738 960 692 982 632 982 c 0
 517 982 396 876 396 745 c 0
 396 644 455 589 618 573 c 0
 640 571 663 570 687 570 c 0
 750 570 822 580 886 580 c 0
EndSplineSet
PairPos2: "'kern' Horizontal Kerning in Arabic lookup 2 per glyph data 2" uniFEEE dx=-100 dy=0 dh=-100 dv=0 dx=0 dy=0 dh=0 dv=0
PairPos2: "'kern' Horizontal Kerning in Arabic lookup 2 per glyph data 2" uniFE86 dx=-100 dy=0 dh=-100 dv=0 dx=0 dy=0 dh=0 dv=0
PairPos2: "'kern' Horizontal Kerning in Arabic lookup 2 per glyph data 2" uni06CA dx=-100 dy=0 dh=-100 dv=0 dx=0 dy=0 dh=0 dv=0
PairPos2: "'kern' Horizontal Kerning in Arabic lookup 2 per glyph data 2" uni0648 dx=-100 dy=0 dh=-100 dv=0 dx=0 dy=0 dh=0 dv=0
PairPos2: "'kern' Horizontal Kerning in Arabic lookup 2 per glyph data 2" uni0624 dx=-100 dy=0 dh=-100 dv=0 dx=0 dy=0 dh=0 dv=0
Substitution2: "'init' Initial Forms in Arabic lookup 6 subtable" uniFECB
Substitution2: "'medi' Medial Forms in Arabic lookup 5 subtable" uniFECC
Substitution2: "'fina' Terminal Forms in Arabic lookup 4 subtable" uniFECA
Colour: ffff
EndChar

StartChar: uni0622
Encoding: 1570 1570 97
Width: 522
VWidth: 1839
Flags: HMW
AnchorPoint: "Anchor-3" 342 1626 basechar 0
AnchorPoint: "Anchor-1" 220 0 basechar 0
LayerCount: 2
Fore
SplineSet
168 1146 m 0
 168 1204 214 1258 280 1258 c 0
 335 1258 383 1217 391 1161 c 0
 421 940 436 707 436 468 c 0
 436 311 429 152 416 -8 c 0
 411 -66 361 -111 304 -111 c 0
 240 -111 192 -58 192 1 c 0
 192 4 192 7 192 10 c 0
 205 164 212 317 212 468 c 0
 212 697 197 920 169 1131 c 0
 168 1136 168 1141 168 1146 c 0
-91 1325 m 0
 -159 1325 -202 1382 -202 1438 c 0
 -202 1451 -200 1464 -195 1477 c 0
 -129 1650 -8 1794 179 1794 c 0
 266 1794 354 1763 442 1707 c 0
 496 1673 543 1650 602 1650 c 0
 604 1650 606 1650 608 1650 c 0
 629 1650 653 1654 653 1736 c 0
 653 1797 704 1848 765 1848 c 0
 826 1848 878 1797 878 1736 c 0
 878 1544 749 1426 602 1426 c 0
 481 1426 388 1475 322 1517 c 0
 258 1557 212 1568 179 1568 c 0
 126 1568 69 1536 15 1397 c 0
 -2 1353 -46 1325 -91 1325 c 0
EndSplineSet
PairPos2: "'kern' Horizontal Kerning in Arabic lookup 2 per glyph data 0" uni0622 dx=300 dy=0 dh=300 dv=0 dx=0 dy=0 dh=0 dv=0
PairPos2: "'kern' Horizontal Kerning in Arabic lookup 2 per glyph data 0" uniE00A dx=300 dy=0 dh=300 dv=0 dx=0 dy=0 dh=0 dv=0
PairPos2: "'kern' Horizontal Kerning in Arabic lookup 2 per glyph data 0" bracketleft dx=250 dy=0 dh=250 dv=0 dx=0 dy=0 dh=0 dv=0
PairPos2: "'kern' Horizontal Kerning in Arabic lookup 2 per glyph data 0" braceleft dx=250 dy=0 dh=250 dv=0 dx=0 dy=0 dh=0 dv=0
PairPos2: "'kern' Horizontal Kerning in Arabic lookup 2 per glyph data 0" parenleft dx=250 dy=0 dh=250 dv=0 dx=0 dy=0 dh=0 dv=0
Substitution2: "Single Substitution 1 subtable" uniE00A
PairPos2: "'kern' Horizontal Kerning in Arabic lookup 2 per glyph data 0" uni063A dx=-267 dy=0 dh=-267 dv=0 dx=0 dy=0 dh=0 dv=0
PairPos2: "'kern' Horizontal Kerning in Arabic lookup 2 per glyph data 0" uni0639 dx=-267 dy=0 dh=-267 dv=0 dx=0 dy=0 dh=0 dv=0
Ligature2: "'liga' Standard Ligatures in Arabic lookup 12 subtable" uni0627 uni0653
Substitution2: "'fina' Terminal Forms in Arabic lookup 4 subtable" uniFE82
PairPos2: "'kern' Horizontal Kerning in Arabic lookup 2 per glyph data 1" uni0639 dx=-200 dy=0 dh=-200 dv=0 dx=0 dy=0 dh=0 dv=0
PairPos2: "'kern' Horizontal Kerning in Arabic lookup 2 per glyph data 1" uni063A dx=-200 dy=0 dh=-200 dv=0 dx=0 dy=0 dh=0 dv=0
LCarets2: 1 0
Colour: ffff
EndChar

StartChar: uni0647
Encoding: 1607 1607 113
Width: 865
VWidth: 2370
Flags: HMW
AnchorPoint: "Anchor-1" 233 59 basechar 0
AnchorPoint: "Anchor-3" 376 976 basechar 0
LayerCount: 2
Fore
SplineSet
432 575 m 1
 329 459 272 318 272 242 c 0
 272 187 310 128 429 128 c 0
 549 128 592 185 592 257 c 0
 592 318 541 443 432 575 c 1
223 833 m 0
 223 896 275 945 335 945 c 0
 361 945 388 936 409 918 c 0
 448 884 485 849 520 813 c 0
 692 636 818 439 818 257 c 0
 818 47 645 -98 429 -98 c 0
 216 -98 48 45 48 242 c 0
 48 405 138 589 274 737 c 1
 245 762 223 792 223 833 c 0
EndSplineSet
Substitution2: "'init' Initial Forms in Arabic lookup 6 subtable" uniFEEB
Substitution2: "'medi' Medial Forms in Arabic lookup 5 subtable" uniFEEC
Substitution2: "'fina' Terminal Forms in Arabic lookup 4 subtable" uniFEEA
Colour: ffff
EndChar

StartChar: uniFEB3
Encoding: 65203 65203 114
Width: 1545
VWidth: 2370
Flags: HMW
AnchorPoint: "Anchor-1" 844 0 basechar 0
AnchorPoint: "Anchor-3" 908 535 basechar 0
LayerCount: 2
Fore
SplineSet
1148 -86 m 0
 1039 -86 938 -35 878 52 c 1
 811 -29 709 -88 583 -88 c 0
 475 -88 383 -33 328 46 c 1
 245 -29 131 -68 0 -68 c 0
 -61 -68 -112 -16 -112 45 c 0
 -112 106 -61 158 0 158 c 0
 224 158 253 304 280 498 c 0
 288 554 338 594 392 594 c 0
 463 594 503 530 503 480 c 0
 503 444 496 408 490 374 c 0
 487 345 486 318 486 275 c 0
 486 198 513 138 583 138 c 0
 669 138 723 189 763 304 c 0
 785 368 792 430 804 506 c 0
 813 561 862 600 916 600 c 0
 987 600 1027 536 1027 486 c 0
 1027 451 1020 427 1020 387 c 0
 1020 301 1037 213 1068 174 c 0
 1086 151 1105 140 1148 140 c 0
 1213 140 1234 156 1246 170 c 0
 1259 186 1272 224 1272 286 c 0
 1272 384 1248 479 1216 587 c 0
 1213 597 1212 608 1212 618 c 0
 1212 675 1255 731 1323 731 c 0
 1372 731 1418 700 1432 651 c 0
 1464 541 1498 422 1498 286 c 0
 1498 199 1483 104 1418 26 c 0
 1355 -48 1259 -86 1148 -86 c 0
EndSplineSet
Colour: ffff
EndChar

StartChar: uniFEB4
Encoding: 65204 65204 115
Width: 1767
VWidth: 2370
Flags: HMW
AnchorPoint: "Anchor-3" 900 535 basechar 0
AnchorPoint: "Anchor-1" 858 0 basechar 0
LayerCount: 2
Fore
SplineSet
1322 568 m 0
 1322 619 1363 681 1433 681 c 0
 1489 681 1540 638 1546 581 c 0
 1591 173 1614 157 1735 157 c 0
 1745 157 1755 158 1767 158 c 0
 1828 158 1880 106 1880 45 c 0
 1880 -16 1828 -68 1767 -68 c 0
 1653 -68 1536 -45 1457 55 c 1
 1398 -27 1303 -82 1189 -82 c 0
 1070 -82 971 -25 913 60 c 1
 846 -27 743 -86 612 -86 c 0
 504 -86 407 -40 352 47 c 1
 262 -36 141 -68 0 -68 c 0
 -61 -68 -112 -16 -112 45 c 0
 -112 106 -61 158 0 158 c 0
 219 158 268 221 293 503 c 0
 298 558 346 605 405 605 c 0
 467 605 517 554 517 493 c 0
 517 454 512 381 512 344 c 0
 512 241 530 182 546 160 c 0
 555 149 565 138 612 138 c 0
 741 138 799 272 832 506 c 0
 838 549 882 602 943 602 c 0
 1005 602 1055 551 1055 490 c 0
 1055 460 1052 430 1052 399 c 0
 1052 300 1074 221 1102 183 c 0
 1122 156 1142 142 1189 142 c 0
 1231 142 1252 155 1274 186 c 0
 1304 228 1328 312 1328 419 c 0
 1328 436 1328 456 1327 477 c 2
 1322 562 l 2
 1322 564 1322 566 1322 568 c 0
EndSplineSet
Colour: ffff
EndChar

StartChar: uniFEB2
Encoding: 65202 65202 116
Width: 2402
VWidth: 2370
Flags: HMW
AnchorPoint: "Anchor-3" 1607 559 basechar 0
AnchorPoint: "Anchor-1" 644 -564 basechar 0
LayerCount: 2
Fore
SplineSet
1941 512 m 0
 1941 567 1983 625 2052 625 c 0
 2104 625 2153 588 2163 534 c 0
 2179 448 2198 347 2217 291 c 0
 2253 185 2279 158 2402 158 c 0
 2463 158 2515 106 2515 45 c 0
 2515 -16 2463 -68 2402 -68 c 0
 2290 -68 2190 -38 2117 31 c 1
 2064 -47 1972 -96 1866 -96 c 0
 1775 -96 1685 -70 1623 -2 c 1
 1552 -70 1460 -92 1371 -92 c 0
 1323 -92 1276 -84 1231 -65 c 1
 1214 -356 1006 -586 644 -586 c 0
 258 -586 48 -351 48 -58 c 0
 48 96 91 255 152 402 c 0
 170 445 213 471 257 471 c 0
 325 471 368 414 368 358 c 0
 368 344 366 330 360 316 c 0
 307 187 272 52 272 -58 c 0
 272 -229 360 -360 644 -360 c 0
 909 -360 1008 -224 1008 -23 c 0
 1008 85 981 214 933 343 c 0
 928 356 926 368 926 381 c 0
 926 437 969 494 1037 494 c 0
 1083 494 1126 466 1143 422 c 0
 1234 181 1297 132 1371 132 c 0
 1452 132 1475 141 1508 230 c 0
 1524 274 1541 360 1551 435 c 0
 1558 486 1605 532 1662 532 c 0
 1725 532 1774 480 1774 420 c 0
 1774 399 1771 380 1768 361 c 0
 1764 328 1762 299 1762 265 c 0
 1762 217 1778 164 1790 150 c 0
 1798 141 1813 128 1866 128 c 0
 1910 128 1920 139 1933 160 c 0
 1948 185 1962 247 1962 309 c 0
 1962 367 1952 438 1942 494 c 0
 1941 500 1941 506 1941 512 c 0
EndSplineSet
Colour: ffff
EndChar

StartChar: uniFE8E
Encoding: 65166 65166 134
Width: 531
VWidth: 2370
Flags: HMW
AnchorPoint: "Anchor-3" 213 1211 basechar 0
AnchorPoint: "Anchor-1" 337 0 basechar 0
LayerCount: 2
Fore
SplineSet
213 1323 m 0
 276 1323 325 1271 325 1211 c 0
 325 996 312 747 312 555 c 0
 312 497 312 445 313 401 c 0
 316 283 331 225 349 204 c 0
 371 179 390 158 531 158 c 0
 592 158 644 106 644 45 c 0
 644 -16 592 -68 531 -68 c 0
 366 -68 253 -29 179 58 c 0
 93 157 92 281 89 395 c 0
 88 442 87 493 87 549 c 1
 88 555 l 1
 88 750 93 999 101 1215 c 0
 103 1275 154 1323 213 1323 c 0
EndSplineSet
PairPos2: "'kern' Horizontal Kerning in Arabic lookup 2 per glyph data 1" uni0639 dx=-200 dy=0 dh=-200 dv=0 dx=0 dy=0 dh=0 dv=0
PairPos2: "'kern' Horizontal Kerning in Arabic lookup 2 per glyph data 1" uni063A dx=-200 dy=0 dh=-200 dv=0 dx=0 dy=0 dh=0 dv=0
Colour: ffff
EndChar

StartChar: uniFEA2
Encoding: 65186 65186 142
Width: 1332
VWidth: 1255
Flags: HMW
AnchorPoint: "Anchor-3" 449 811 basechar 0
AnchorPoint: "Anchor-1" 714 -744 basechar 0
LayerCount: 2
Fore
SplineSet
1444 45 m 0
 1444 -16 1393 -68 1332 -68 c 0
 1031 -68 780 119 780 458 c 0
 780 519 831 570 892 570 c 0
 953 570 1005 519 1005 458 c 0
 1005 253 1123 158 1332 158 c 0
 1393 158 1444 106 1444 45 c 0
EndSplineSet
Refer: 94 1581 N 1 0 0 1 0 0 2
Colour: ffff
EndChar

StartChar: uniFEA3
Encoding: 65187 65187 143
Width: 1302
VWidth: 2370
Flags: HMW
AnchorPoint: "Anchor-1" 609 0 basechar 0
AnchorPoint: "Anchor-3" 424 811 basechar 0
LayerCount: 2
Fore
SplineSet
149 420 m 0
 81 420 38 476 38 533 c 0
 38 542 39 551 41 560 c 0
 93 761 252 880 415 880 c 0
 571 880 722 783 870 699 c 0
 980 637 1090 577 1177 548 c 0
 1224 532 1254 487 1254 440 c 0
 1254 380 1207 338 1162 330 c 0
 1062 312 957 255 830 183 c 0
 628 68 360 -68 0 -68 c 0
 -61 -68 -112 -16 -112 45 c 0
 -112 106 -61 158 0 158 c 0
 302 158 524 268 718 379 c 0
 762 404 806 429 851 452 c 1
 821 468 790 486 760 503 c 0
 608 589 471 654 415 654 c 0
 362 654 289 619 259 504 c 0
 246 454 199 420 149 420 c 0
EndSplineSet
Colour: ffff
EndChar

StartChar: uniFEA4
Encoding: 65188 65188 144
Width: 1351
VWidth: 1373
Flags: HMW
AnchorPoint: "Anchor-3" 396 811 basechar 0
AnchorPoint: "Anchor-1" 510 0 basechar 0
LayerCount: 2
Fore
SplineSet
953 490 m 0
 1014 490 1066 438 1066 377 c 0
 1066 246 1158 158 1351 158 c 0
 1412 158 1464 106 1464 45 c 0
 1464 -16 1412 -68 1351 -68 c 0
 1082 -68 840 92 840 377 c 0
 840 438 892 490 953 490 c 0
EndSplineSet
Refer: 143 65187 N 1 0 0 1 0 0 2
Colour: ffff
EndChar

StartChar: uniFEAA
Encoding: 65194 65194 148
Width: 1120
VWidth: 1437
Flags: HMW
AnchorPoint: "Anchor-1" 391 -106 basechar 0
AnchorPoint: "Anchor-3" 587 877 basechar 0
LayerCount: 2
Fore
SplineSet
473 780 m 0
 473 836 517 893 584 893 c 0
 626 893 666 870 686 831 c 0
 754 695 796 607 847 457 c 1
 857 441 862 421 867 401 c 0
 926 244 979 158 1120 158 c 0
 1181 158 1232 106 1232 45 c 0
 1232 -16 1181 -68 1120 -68 c 0
 975 -68 875 -13 803 64 c 1
 707 -54 538 -98 389 -98 c 0
 300 -98 208 -83 120 -50 c 0
 75 -33 48 10 48 56 c 0
 48 124 105 167 161 167 c 0
 174 167 187 165 200 160 c 0
 260 137 322 128 389 128 c 0
 577 128 656 186 656 297 c 0
 656 329 644 358 635 383 c 0
 587 523 552 595 484 731 c 0
 476 747 473 763 473 780 c 0
EndSplineSet
PairPos2: "'kern' Horizontal Kerning in Arabic lookup 2 per glyph data 3" uniE028 dx=-267 dy=0 dh=-267 dv=0 dx=0 dy=0 dh=0 dv=0
PairPos2: "'kern' Horizontal Kerning in Arabic lookup 2 per glyph data 3" uniFC3E dx=-267 dy=0 dh=-267 dv=0 dx=0 dy=0 dh=0 dv=0
PairPos2: "'kern' Horizontal Kerning in Arabic lookup 2 per glyph data 3" uniFC3D dx=-267 dy=0 dh=-267 dv=0 dx=0 dy=0 dh=0 dv=0
PairPos2: "'kern' Horizontal Kerning in Arabic lookup 2 per glyph data 3" uniFC37 dx=-267 dy=0 dh=-267 dv=0 dx=0 dy=0 dh=0 dv=0
PairPos2: "'kern' Horizontal Kerning in Arabic lookup 2 per glyph data 3" uniE023 dx=-267 dy=0 dh=-267 dv=0 dx=0 dy=0 dh=0 dv=0
PairPos2: "'kern' Horizontal Kerning in Arabic lookup 2 per glyph data 3" uni06A9 dx=-267 dy=0 dh=-267 dv=0 dx=0 dy=0 dh=0 dv=0
PairPos2: "'kern' Horizontal Kerning in Arabic lookup 2 per glyph data 3" uni06AF dx=-267 dy=0 dh=-267 dv=0 dx=0 dy=0 dh=0 dv=0
PairPos2: "'kern' Horizontal Kerning in Arabic lookup 2 per glyph data 3" uniFB90 dx=-267 dy=0 dh=-267 dv=0 dx=0 dy=0 dh=0 dv=0
PairPos2: "'kern' Horizontal Kerning in Arabic lookup 2 per glyph data 3" uniFB94 dx=-267 dy=0 dh=-267 dv=0 dx=0 dy=0 dh=0 dv=0
PairPos2: "'kern' Horizontal Kerning in Arabic lookup 2 per glyph data 3" uniFEDB dx=-267 dy=0 dh=-267 dv=0 dx=0 dy=0 dh=0 dv=0
PairPos2: "'kern' Horizontal Kerning in Arabic lookup 2 per glyph data 1" uni0639 dx=-334 dy=0 dh=-334 dv=0 dx=0 dy=0 dh=0 dv=0
PairPos2: "'kern' Horizontal Kerning in Arabic lookup 2 per glyph data 1" uni063A dx=-334 dy=0 dh=-334 dv=0 dx=0 dy=0 dh=0 dv=0
Colour: ffff
EndChar

StartChar: uniFEAE
Encoding: 65198 65198 150
Width: 917
VWidth: 2234
Flags: HMW
AnchorPoint: "Anchor-1" 493 -394 basechar 0
AnchorPoint: "Anchor-3" 472 566 basechar 0
LayerCount: 2
Fore
SplineSet
400 483 m 0
 400 540 445 596 511 596 c 0
 563 596 609 559 621 513 c 0
 650 402 675 273 733 212 c 0
 763 182 805 158 917 158 c 0
 978 158 1030 106 1030 45 c 0
 1030 -16 978 -68 917 -68 c 0
 828 -68 750 -55 683 -24 c 1
 648 -273 471 -458 201 -562 c 0
 188 -567 174 -569 161 -569 c 0
 105 -569 48 -526 48 -458 c 0
 48 -413 76 -369 120 -352 c 0
 368 -256 464 -116 464 71 c 0
 464 210 433 334 403 458 c 0
 401 466 400 475 400 483 c 0
EndSplineSet
PairPos2: "'kern' Horizontal Kerning in Arabic lookup 2 per glyph data 2" uniFC3E dx=-400 dy=0 dh=-400 dv=0 dx=0 dy=0 dh=0 dv=0
PairPos2: "'kern' Horizontal Kerning in Arabic lookup 2 per glyph data 2" uniFC3D dx=-400 dy=0 dh=-400 dv=0 dx=0 dy=0 dh=0 dv=0
PairPos2: "'kern' Horizontal Kerning in Arabic lookup 2 per glyph data 2" uniE028 dx=-400 dy=0 dh=-400 dv=0 dx=0 dy=0 dh=0 dv=0
PairPos2: "'kern' Horizontal Kerning in Arabic lookup 2 per glyph data 2" uniE027 dx=-234 dy=0 dh=-234 dv=0 dx=0 dy=0 dh=0 dv=0
PairPos2: "'kern' Horizontal Kerning in Arabic lookup 2 per glyph data 2" uniE026 dx=-234 dy=0 dh=-234 dv=0 dx=0 dy=0 dh=0 dv=0
PairPos2: "'kern' Horizontal Kerning in Arabic lookup 2 per glyph data 2" uniE023 dx=-400 dy=0 dh=-400 dv=0 dx=0 dy=0 dh=0 dv=0
PairPos2: "'kern' Horizontal Kerning in Arabic lookup 2 per glyph data 2" uniFC37 dx=-400 dy=0 dh=-400 dv=0 dx=0 dy=0 dh=0 dv=0
PairPos2: "'kern' Horizontal Kerning in Arabic lookup 2 per glyph data 2" uniFC36 dx=-234 dy=0 dh=-234 dv=0 dx=0 dy=0 dh=0 dv=0
PairPos2: "'kern' Horizontal Kerning in Arabic lookup 2 per glyph data 2" uniFC35 dx=-234 dy=0 dh=-234 dv=0 dx=0 dy=0 dh=0 dv=0
PairPos2: "'kern' Horizontal Kerning in Arabic lookup 2 per glyph data 2" uniFC32 dx=-234 dy=0 dh=-234 dv=0 dx=0 dy=0 dh=0 dv=0
PairPos2: "'kern' Horizontal Kerning in Arabic lookup 2 per glyph data 2" uniFC31 dx=-234 dy=0 dh=-234 dv=0 dx=0 dy=0 dh=0 dv=0
PairPos2: "'kern' Horizontal Kerning in Arabic lookup 2 per glyph data 2" uniFD08 dx=-234 dy=0 dh=-234 dv=0 dx=0 dy=0 dh=0 dv=0
PairPos2: "'kern' Horizontal Kerning in Arabic lookup 2 per glyph data 2" uniFD07 dx=-234 dy=0 dh=-234 dv=0 dx=0 dy=0 dh=0 dv=0
PairPos2: "'kern' Horizontal Kerning in Arabic lookup 2 per glyph data 2" uniFD06 dx=-234 dy=0 dh=-234 dv=0 dx=0 dy=0 dh=0 dv=0
PairPos2: "'kern' Horizontal Kerning in Arabic lookup 2 per glyph data 2" uniFD05 dx=-234 dy=0 dh=-234 dv=0 dx=0 dy=0 dh=0 dv=0
PairPos2: "'kern' Horizontal Kerning in Arabic lookup 2 per glyph data 2" uniFCFE dx=-234 dy=0 dh=-234 dv=0 dx=0 dy=0 dh=0 dv=0
PairPos2: "'kern' Horizontal Kerning in Arabic lookup 2 per glyph data 2" uniFCFD dx=-234 dy=0 dh=-234 dv=0 dx=0 dy=0 dh=0 dv=0
PairPos2: "'kern' Horizontal Kerning in Arabic lookup 2 per glyph data 2" uniFCFC dx=-234 dy=0 dh=-234 dv=0 dx=0 dy=0 dh=0 dv=0
PairPos2: "'kern' Horizontal Kerning in Arabic lookup 2 per glyph data 2" uniFCFB dx=-234 dy=0 dh=-234 dv=0 dx=0 dy=0 dh=0 dv=0
PairPos2: "'kern' Horizontal Kerning in Arabic lookup 2 per glyph data 2" uniE01B dx=-150 dy=0 dh=-150 dv=0 dx=0 dy=0 dh=0 dv=0
PairPos2: "'kern' Horizontal Kerning in Arabic lookup 2 per glyph data 2" uniE019 dx=-150 dy=0 dh=-150 dv=0 dx=0 dy=0 dh=0 dv=0
PairPos2: "'kern' Horizontal Kerning in Arabic lookup 2 per glyph data 2" uniE017 dx=-150 dy=0 dh=-150 dv=0 dx=0 dy=0 dh=0 dv=0
Substitution2: "Single Substitution 1 subtable" uniE018
PairPos2: "'kern' Horizontal Kerning in Arabic lookup 2 per glyph data 0" period dx=-250 dy=0 dh=-250 dv=0 dx=0 dy=0 dh=0 dv=0
PairPos2: "'kern' Horizontal Kerning in Arabic lookup 2 per glyph data 0" uni060C dx=-250 dy=0 dh=-250 dv=0 dx=0 dy=0 dh=0 dv=0
PairPos2: "'kern' Horizontal Kerning in Arabic lookup 2 per glyph data 0" uni061B dx=-250 dy=0 dh=-250 dv=0 dx=0 dy=0 dh=0 dv=0
PairPos2: "'kern' Horizontal Kerning in Arabic lookup 2 per glyph data 0" parenleft dx=-250 dy=0 dh=-250 dv=0 dx=0 dy=0 dh=0 dv=0
PairPos2: "'kern' Horizontal Kerning in Arabic lookup 2 per glyph data 0" braceleft dx=-250 dy=0 dh=-250 dv=0 dx=0 dy=0 dh=0 dv=0
PairPos2: "'kern' Horizontal Kerning in Arabic lookup 2 per glyph data 0" bracketleft dx=-250 dy=0 dh=-250 dv=0 dx=0 dy=0 dh=0 dv=0
PairPos2: "'kern' Horizontal Kerning in Arabic lookup 2 per glyph data 5" space dx=-342 dy=0 dh=-342 dv=0 dx=0 dy=0 dh=0 dv=0
PairPos2: "'kern' Horizontal Kerning in Arabic lookup 2 per glyph data 2" uni0626 dx=-50 dy=0 dh=-50 dv=0 dx=0 dy=0 dh=0 dv=0
PairPos2: "'kern' Horizontal Kerning in Arabic lookup 2 per glyph data 2" uni064A dx=-50 dy=0 dh=-50 dv=0 dx=0 dy=0 dh=0 dv=0
PairPos2: "'kern' Horizontal Kerning in Arabic lookup 2 per glyph data 2" uni0649 dx=-50 dy=0 dh=-50 dv=0 dx=0 dy=0 dh=0 dv=0
PairPos2: "'kern' Horizontal Kerning in Arabic lookup 2 per glyph data 2" uni06CC dx=-50 dy=0 dh=-50 dv=0 dx=0 dy=0 dh=0 dv=0
PairPos2: "'kern' Horizontal Kerning in Arabic lookup 2 per glyph data 2" uniFBFE dx=-40 dy=0 dh=-40 dv=0 dx=0 dy=0 dh=0 dv=0
PairPos2: "'kern' Horizontal Kerning in Arabic lookup 2 per glyph data 2" uniFEF3 dx=-40 dy=0 dh=-40 dv=0 dx=0 dy=0 dh=0 dv=0
PairPos2: "'kern' Horizontal Kerning in Arabic lookup 2 per glyph data 2" uniFB58 dx=-40 dy=0 dh=-40 dv=0 dx=0 dy=0 dh=0 dv=0
PairPos2: "'kern' Horizontal Kerning in Arabic lookup 2 per glyph data 2" uni0622 dx=-167 dy=0 dh=-167 dv=0 dx=0 dy=0 dh=0 dv=0
PairPos2: "'kern' Horizontal Kerning in Arabic lookup 2 per glyph data 2" uni0623 dx=-167 dy=0 dh=-167 dv=0 dx=0 dy=0 dh=0 dv=0
PairPos2: "'kern' Horizontal Kerning in Arabic lookup 2 per glyph data 2" uni0624 dx=-133 dy=0 dh=-133 dv=0 dx=0 dy=0 dh=0 dv=0
PairPos2: "'kern' Horizontal Kerning in Arabic lookup 2 per glyph data 2" uni0627 dx=-167 dy=0 dh=-167 dv=0 dx=0 dy=0 dh=0 dv=0
PairPos2: "'kern' Horizontal Kerning in Arabic lookup 2 per glyph data 2" uni0628 dx=-234 dy=0 dh=-234 dv=0 dx=0 dy=0 dh=0 dv=0
PairPos2: "'kern' Horizontal Kerning in Arabic lookup 2 per glyph data 2" uni0629 dx=-234 dy=0 dh=-234 dv=0 dx=0 dy=0 dh=0 dv=0
PairPos2: "'kern' Horizontal Kerning in Arabic lookup 2 per glyph data 2" uni062A dx=-234 dy=0 dh=-234 dv=0 dx=0 dy=0 dh=0 dv=0
PairPos2: "'kern' Horizontal Kerning in Arabic lookup 2 per glyph data 2" uni062B dx=-234 dy=0 dh=-234 dv=0 dx=0 dy=0 dh=0 dv=0
PairPos2: "'kern' Horizontal Kerning in Arabic lookup 2 per glyph data 2" uni062F dx=-250 dy=0 dh=-250 dv=0 dx=0 dy=0 dh=0 dv=0
PairPos2: "'kern' Horizontal Kerning in Arabic lookup 2 per glyph data 2" uni0630 dx=-250 dy=0 dh=-250 dv=0 dx=0 dy=0 dh=0 dv=0
PairPos2: "'kern' Horizontal Kerning in Arabic lookup 2 per glyph data 2" uni0631 dx=-150 dy=0 dh=-150 dv=0 dx=0 dy=0 dh=0 dv=0
PairPos2: "'kern' Horizontal Kerning in Arabic lookup 2 per glyph data 2" uni0632 dx=-150 dy=0 dh=-150 dv=0 dx=0 dy=0 dh=0 dv=0
PairPos2: "'kern' Horizontal Kerning in Arabic lookup 2 per glyph data 2" uni0633 dx=-234 dy=0 dh=-234 dv=0 dx=0 dy=0 dh=0 dv=0
PairPos2: "'kern' Horizontal Kerning in Arabic lookup 2 per glyph data 2" uni0634 dx=-234 dy=0 dh=-234 dv=0 dx=0 dy=0 dh=0 dv=0
PairPos2: "'kern' Horizontal Kerning in Arabic lookup 2 per glyph data 2" uni0635 dx=-234 dy=0 dh=-234 dv=0 dx=0 dy=0 dh=0 dv=0
PairPos2: "'kern' Horizontal Kerning in Arabic lookup 2 per glyph data 2" uni0636 dx=-234 dy=0 dh=-234 dv=0 dx=0 dy=0 dh=0 dv=0
PairPos2: "'kern' Horizontal Kerning in Arabic lookup 2 per glyph data 2" uni0637 dx=-234 dy=0 dh=-234 dv=0 dx=0 dy=0 dh=0 dv=0
PairPos2: "'kern' Horizontal Kerning in Arabic lookup 2 per glyph data 2" uni0638 dx=-234 dy=0 dh=-234 dv=0 dx=0 dy=0 dh=0 dv=0
PairPos2: "'kern' Horizontal Kerning in Arabic lookup 2 per glyph data 2" uni0641 dx=-234 dy=0 dh=-234 dv=0 dx=0 dy=0 dh=0 dv=0
PairPos2: "'kern' Horizontal Kerning in Arabic lookup 2 per glyph data 2" uni0642 dx=-40 dy=0 dh=-40 dv=0 dx=0 dy=0 dh=0 dv=0
PairPos2: "'kern' Horizontal Kerning in Arabic lookup 2 per glyph data 2" uni0643 dx=-234 dy=0 dh=-234 dv=0 dx=0 dy=0 dh=0 dv=0
PairPos2: "'kern' Horizontal Kerning in Arabic lookup 2 per glyph data 2" uni0644 dx=-100 dy=0 dh=-100 dv=0 dx=0 dy=0 dh=0 dv=0
PairPos2: "'kern' Horizontal Kerning in Arabic lookup 2 per glyph data 2" uni0645 dx=-234 dy=0 dh=-234 dv=0 dx=0 dy=0 dh=0 dv=0
PairPos2: "'kern' Horizontal Kerning in Arabic lookup 2 per glyph data 2" uni0646 dx=-40 dy=0 dh=-40 dv=0 dx=0 dy=0 dh=0 dv=0
PairPos2: "'kern' Horizontal Kerning in Arabic lookup 2 per glyph data 2" uni0647 dx=-234 dy=0 dh=-234 dv=0 dx=0 dy=0 dh=0 dv=0
PairPos2: "'kern' Horizontal Kerning in Arabic lookup 2 per glyph data 2" uni0648 dx=-133 dy=0 dh=-133 dv=0 dx=0 dy=0 dh=0 dv=0
PairPos2: "'kern' Horizontal Kerning in Arabic lookup 2 per glyph data 2" uni067E dx=-234 dy=0 dh=-234 dv=0 dx=0 dy=0 dh=0 dv=0
PairPos2: "'kern' Horizontal Kerning in Arabic lookup 2 per glyph data 2" uni0698 dx=-150 dy=0 dh=-150 dv=0 dx=0 dy=0 dh=0 dv=0
PairPos2: "'kern' Horizontal Kerning in Arabic lookup 2 per glyph data 2" uni06A9 dx=-400 dy=0 dh=-400 dv=0 dx=0 dy=0 dh=0 dv=0
PairPos2: "'kern' Horizontal Kerning in Arabic lookup 2 per glyph data 2" uni06AF dx=-400 dy=0 dh=-400 dv=0 dx=0 dy=0 dh=0 dv=0
PairPos2: "'kern' Horizontal Kerning in Arabic lookup 2 per glyph data 2" uni06C0 dx=-234 dy=0 dh=-234 dv=0 dx=0 dy=0 dh=0 dv=0
PairPos2: "'kern' Horizontal Kerning in Arabic lookup 2 per glyph data 2" uni06CA dx=-133 dy=0 dh=-133 dv=0 dx=0 dy=0 dh=0 dv=0
PairPos2: "'kern' Horizontal Kerning in Arabic lookup 2 per glyph data 2" uniFB7C dx=-234 dy=0 dh=-234 dv=0 dx=0 dy=0 dh=0 dv=0
PairPos2: "'kern' Horizontal Kerning in Arabic lookup 2 per glyph data 2" uniFB90 dx=-400 dy=0 dh=-400 dv=0 dx=0 dy=0 dh=0 dv=0
PairPos2: "'kern' Horizontal Kerning in Arabic lookup 2 per glyph data 2" uniFB94 dx=-400 dy=0 dh=-400 dv=0 dx=0 dy=0 dh=0 dv=0
PairPos2: "'kern' Horizontal Kerning in Arabic lookup 2 per glyph data 2" uniFE8B dx=-200 dy=0 dh=-200 dv=0 dx=0 dy=0 dh=0 dv=0
PairPos2: "'kern' Horizontal Kerning in Arabic lookup 2 per glyph data 2" uniFE91 dx=-200 dy=0 dh=-200 dv=0 dx=0 dy=0 dh=0 dv=0
PairPos2: "'kern' Horizontal Kerning in Arabic lookup 2 per glyph data 2" uniFE97 dx=-200 dy=0 dh=-200 dv=0 dx=0 dy=0 dh=0 dv=0
PairPos2: "'kern' Horizontal Kerning in Arabic lookup 2 per glyph data 2" uniFE9B dx=-200 dy=0 dh=-200 dv=0 dx=0 dy=0 dh=0 dv=0
PairPos2: "'kern' Horizontal Kerning in Arabic lookup 2 per glyph data 2" uniFE9F dx=-234 dy=0 dh=-234 dv=0 dx=0 dy=0 dh=0 dv=0
PairPos2: "'kern' Horizontal Kerning in Arabic lookup 2 per glyph data 2" uniFEA3 dx=-234 dy=0 dh=-234 dv=0 dx=0 dy=0 dh=0 dv=0
PairPos2: "'kern' Horizontal Kerning in Arabic lookup 2 per glyph data 2" uniFEA7 dx=-234 dy=0 dh=-234 dv=0 dx=0 dy=0 dh=0 dv=0
PairPos2: "'kern' Horizontal Kerning in Arabic lookup 2 per glyph data 2" uniFEB3 dx=-234 dy=0 dh=-234 dv=0 dx=0 dy=0 dh=0 dv=0
PairPos2: "'kern' Horizontal Kerning in Arabic lookup 2 per glyph data 2" uniFEB7 dx=-234 dy=0 dh=-234 dv=0 dx=0 dy=0 dh=0 dv=0
PairPos2: "'kern' Horizontal Kerning in Arabic lookup 2 per glyph data 2" uniFEBB dx=-234 dy=0 dh=-234 dv=0 dx=0 dy=0 dh=0 dv=0
PairPos2: "'kern' Horizontal Kerning in Arabic lookup 2 per glyph data 2" uniFEBF dx=-234 dy=0 dh=-234 dv=0 dx=0 dy=0 dh=0 dv=0
PairPos2: "'kern' Horizontal Kerning in Arabic lookup 2 per glyph data 2" uniFEC3 dx=-234 dy=0 dh=-234 dv=0 dx=0 dy=0 dh=0 dv=0
PairPos2: "'kern' Horizontal Kerning in Arabic lookup 2 per glyph data 2" uniFEC7 dx=-234 dy=0 dh=-234 dv=0 dx=0 dy=0 dh=0 dv=0
PairPos2: "'kern' Horizontal Kerning in Arabic lookup 2 per glyph data 2" uniFECB dx=-234 dy=0 dh=-234 dv=0 dx=0 dy=0 dh=0 dv=0
PairPos2: "'kern' Horizontal Kerning in Arabic lookup 2 per glyph data 2" uniFECF dx=-234 dy=0 dh=-234 dv=0 dx=0 dy=0 dh=0 dv=0
PairPos2: "'kern' Horizontal Kerning in Arabic lookup 2 per glyph data 2" uniFED3 dx=-234 dy=0 dh=-234 dv=0 dx=0 dy=0 dh=0 dv=0
PairPos2: "'kern' Horizontal Kerning in Arabic lookup 2 per glyph data 2" uniFED7 dx=-234 dy=0 dh=-234 dv=0 dx=0 dy=0 dh=0 dv=0
PairPos2: "'kern' Horizontal Kerning in Arabic lookup 2 per glyph data 2" uniFEDB dx=-400 dy=0 dh=-400 dv=0 dx=0 dy=0 dh=0 dv=0
PairPos2: "'kern' Horizontal Kerning in Arabic lookup 2 per glyph data 2" uniFEDF dx=-234 dy=0 dh=-234 dv=0 dx=0 dy=0 dh=0 dv=0
PairPos2: "'kern' Horizontal Kerning in Arabic lookup 2 per glyph data 2" uniFEE3 dx=-234 dy=0 dh=-234 dv=0 dx=0 dy=0 dh=0 dv=0
PairPos2: "'kern' Horizontal Kerning in Arabic lookup 2 per glyph data 2" uniFEE7 dx=-234 dy=0 dh=-234 dv=0 dx=0 dy=0 dh=0 dv=0
PairPos2: "'kern' Horizontal Kerning in Arabic lookup 2 per glyph data 2" uniFEEB dx=-134 dy=0 dh=-134 dv=0 dx=0 dy=0 dh=0 dv=0
PairPos2: "'kern' Horizontal Kerning in Arabic lookup 2 per glyph data 2" uniFEF5 dx=-234 dy=0 dh=-234 dv=0 dx=0 dy=0 dh=0 dv=0
PairPos2: "'kern' Horizontal Kerning in Arabic lookup 2 per glyph data 2" uniFEF7 dx=-234 dy=0 dh=-234 dv=0 dx=0 dy=0 dh=0 dv=0
PairPos2: "'kern' Horizontal Kerning in Arabic lookup 2 per glyph data 2" uniFEF9 dx=-234 dy=0 dh=-234 dv=0 dx=0 dy=0 dh=0 dv=0
PairPos2: "'kern' Horizontal Kerning in Arabic lookup 2 per glyph data 2" uniFEFB dx=-234 dy=0 dh=-234 dv=0 dx=0 dy=0 dh=0 dv=0
PairPos2: "'kern' Horizontal Kerning in Arabic lookup 2 per glyph data 1" uni0639 dx=-90 dy=0 dh=-90 dv=0 dx=0 dy=0 dh=0 dv=0
PairPos2: "'kern' Horizontal Kerning in Arabic lookup 2 per glyph data 1" uni063A dx=-90 dy=0 dh=-90 dv=0 dx=0 dy=0 dh=0 dv=0
Colour: ffff
EndChar

StartChar: uniFEBA
Encoding: 65210 65210 155
Width: 2424
VWidth: 2279
Flags: HMW
AnchorPoint: "Anchor-3" 1879 811 basechar 0
AnchorPoint: "Anchor-1" 589 -563 basechar 0
LayerCount: 2
Fore
SplineSet
1450 174 m 1
 1505 164 1571 158 1650 158 c 0
 1858 158 2032 267 2032 408 c 0
 2032 473 1981 528 1873 528 c 0
 1704 528 1569 409 1450 174 c 1
939 365 m 0
 939 422 983 478 1050 478 c 0
 1094 478 1137 452 1155 409 c 0
 1179 350 1209 302 1245 268 c 1
 1377 531 1574 752 1873 752 c 0
 2061 752 2258 631 2258 408 c 0
 2258 339 2243 279 2218 226 c 1
 2256 182 2310 158 2424 158 c 0
 2485 158 2537 106 2537 45 c 0
 2537 -16 2485 -68 2424 -68 c 0
 2271 -68 2154 -21 2071 58 c 1
 1958 -22 1673 -69 1649 -69 c 0
 1647 -69 l 1
 1647 -69 1648 -69 1650 -68 c 1
 1478 -68 1342 -44 1231 8 c 1
 1231 3 1232 -2 1232 -7 c 0
 1232 -359 999 -586 589 -586 c 0
 339 -586 48 -449 48 -117 c 0
 48 77 135 279 239 442 c 0
 260 475 298 493 335 493 c 0
 401 493 446 437 446 380 c 0
 446 359 441 338 429 320 c 0
 339 179 272 9 272 -117 c 0
 272 -279 397 -360 589 -360 c 0
 907 -360 1006 -237 1006 -7 c 0
 1006 86 986 201 944 331 c 0
 940 342 939 354 939 365 c 0
EndSplineSet
Colour: ffff
EndChar

StartChar: uniFEBB
Encoding: 65211 65211 156
Width: 1546
VWidth: 2370
Flags: HMW
AnchorPoint: "Anchor-3" 1101 811 basechar 0
AnchorPoint: "Anchor-1" 818 -2 basechar 0
LayerCount: 2
Fore
SplineSet
651 166 m 1
 694 161 747 158 809 158 c 0
 1061 158 1274 281 1274 434 c 0
 1274 534 1210 598 1106 598 c 0
 965 598 785 416 651 166 c 1
433 -155 m 0
 365 -155 322 -98 322 -42 c 0
 322 -7 338 21 349 49 c 1
 260 -46 133 -68 0 -68 c 0
 -61 -68 -112 -16 -112 45 c 0
 -112 106 -61 158 0 158 c 0
 163 158 191 182 217 264 c 0
 226 294 234 336 238 390 c 0
 238 422 239 456 241 491 c 0
 244 551 294 597 353 597 c 0
 421 597 466 536 466 485 c 0
 466 446 462 410 462 374 c 0
 462 344 464 319 467 298 c 1
 603 543 814 822 1106 822 c 0
 1326 822 1498 658 1498 434 c 0
 1498 63 1083 -68 809 -68 c 0
 710 -68 626 -61 553 -46 c 1
 548 -58 543 -70 539 -82 c 0
 522 -127 479 -155 433 -155 c 0
EndSplineSet
Colour: ffff
EndChar

StartChar: uniFEBC
Encoding: 65212 65212 157
Width: 1671
VWidth: 1839
Flags: HMW
AnchorPoint: "Anchor-1" 818 0 basechar 0
AnchorPoint: "Anchor-3" 1101 811 basechar 0
LayerCount: 2
Fore
SplineSet
649 163 m 1
 687 159 731 158 780 158 c 0
 1036 158 1266 285 1266 434 c 0
 1266 530 1187 598 1103 598 c 0
 975 598 803 445 649 163 c 1
464 483 m 0
 464 439 454 403 454 359 c 0
 454 330 456 306 460 286 c 1
 616 566 825 822 1103 822 c 0
 1303 822 1492 662 1492 434 c 0
 1492 362 1476 300 1448 246 c 1
 1482 183 1530 158 1671 158 c 0
 1732 158 1784 106 1784 45 c 0
 1784 -16 1732 -68 1671 -68 c 0
 1503 -68 1378 -17 1296 79 c 1
 1158 -17 810 -70 779 -70 c 0
 778 -70 777 -69 777 -69 c 1
 777 -69 778 -69 780 -68 c 1
 631 -68 493 -61 382 15 c 0
 365 27 348 41 333 56 c 1
 252 -34 133 -68 0 -68 c 0
 -61 -68 -112 -16 -112 45 c 0
 -112 106 -61 158 0 158 c 0
 144 158 173 188 204 278 c 0
 215 311 224 354 231 407 c 0
 233 437 236 469 240 500 c 0
 247 556 298 597 353 597 c 0
 423 597 464 534 464 483 c 0
EndSplineSet
Colour: ffff
EndChar

StartChar: uniFEC2
Encoding: 65218 65218 161
Width: 1656
VWidth: 2370
Flags: HMW
AnchorPoint: "Anchor-1" 450 0 basechar 0
AnchorPoint: "Anchor-3" 1128 811 basechar 0
LayerCount: 2
Fore
SplineSet
619 168 m 1
 1019 195 1242 287 1242 449 c 0
 1242 538 1180 600 1090 600 c 0
 925 600 741 409 619 168 c 1
404 1211 m 0
 404 1270 451 1323 516 1323 c 0
 573 1323 623 1280 628 1222 c 0
 644 1051 654 880 654 716 c 0
 654 680 654 645 653 610 c 1
 766 728 914 826 1090 826 c 0
 1302 826 1466 658 1466 449 c 0
 1466 375 1451 312 1423 258 c 1
 1472 189 1547 158 1656 158 c 0
 1717 158 1769 106 1769 45 c 0
 1769 -16 1717 -68 1656 -68 c 0
 1508 -68 1363 -17 1265 95 c 1
 1061 -32 743 -54 499 -63 c 0
 382 -67 267 -68 163 -68 c 2
 160 -68 l 2
 99 -68 48 -16 48 45 c 0
 48 106 99 158 160 158 c 2
 364 158 l 1
 410 306 430 501 430 716 c 0
 430 870 420 1035 404 1200 c 0
 404 1203 404 1208 404 1211 c 0
EndSplineSet
Colour: ffff
EndChar

StartChar: uniFEC3
Encoding: 65219 65219 162
Width: 1250
VWidth: 2370
Flags: HMW
AnchorPoint: "Anchor-3" 815 811 basechar 0
AnchorPoint: "Anchor-1" 596 0 basechar 0
LayerCount: 2
Fore
SplineSet
336 169 m 1
 731 199 978 301 978 466 c 0
 978 545 916 606 816 606 c 0
 650 606 470 408 336 169 c 1
136 1211 m 0
 136 1270 183 1323 248 1323 c 0
 304 1323 353 1281 360 1224 c 0
 375 1089 384 948 384 747 c 0
 384 704 382 659 380 615 c 1
 493 733 639 832 816 832 c 0
 1018 832 1202 685 1202 466 c 0
 1202 12 601 -47 224 -63 c 1
 216 -79 208 -95 199 -111 c 0
 178 -147 139 -168 100 -168 c 0
 39 -168 -5 -120 -11 -67 c 1
 -68 -61 -112 -12 -112 45 c 0
 -112 106 -61 158 0 158 c 0
 24 158 48 158 73 158 c 1
 129 321 158 544 158 747 c 0
 158 942 151 1071 136 1198 c 0
 136 1202 136 1207 136 1211 c 0
EndSplineSet
Colour: ffff
EndChar

StartChar: uniFEC4
Encoding: 65220 65220 163
Width: 1338
VWidth: 2370
Flags: HMW
AnchorPoint: "Anchor-1" 596 0 basechar 0
AnchorPoint: "Anchor-3" 885 841 basechar 0
LayerCount: 2
Fore
SplineSet
431 168 m 1
 851 195 1044 286 1044 444 c 0
 1044 519 1005 598 872 598 c 0
 721 598 547 398 431 168 c 1
214 1211 m 0
 214 1270 261 1323 326 1323 c 0
 383 1323 433 1280 438 1222 c 0
 454 1051 464 880 464 716 c 0
 464 683 464 647 463 616 c 1
 568 728 704 824 872 824 c 0
 1139 824 1270 619 1270 444 c 0
 1270 339 1239 256 1186 190 c 1
 1215 166 1258 158 1338 158 c 0
 1399 158 1451 106 1451 45 c 0
 1451 -16 1399 -68 1338 -68 c 0
 1207 -68 1088 -33 1005 56 c 1
 813 -34 547 -55 313 -63 c 0
 210 -67 104 -68 0 -68 c 0
 -61 -68 -112 -16 -112 45 c 0
 -112 106 -61 158 0 158 c 0
 58 158 117 158 174 159 c 1
 220 307 240 502 240 716 c 0
 240 870 230 1035 214 1200 c 0
 214 1203 214 1208 214 1211 c 0
EndSplineSet
Colour: ffff
EndChar

StartChar: uniFECA
Encoding: 65226 65226 167
Width: 1092
VWidth: 2370
Flags: HMW
AnchorPoint: "Anchor-3" 552 821 basechar 0
AnchorPoint: "Anchor-1" 676 -740 basechar 0
LayerCount: 2
Fore
SplineSet
550 405 m 1
 712 497 738 539 738 586 c 0
 738 609 698 664 575 664 c 0
 504 664 417 641 350 608 c 1
 405 540 475 469 550 405 c 1
905 -511 m 0
 963 -511 1018 -555 1018 -622 c 0
 1018 -675 979 -724 925 -734 c 0
 842 -749 758 -758 674 -758 c 0
 388 -758 48 -642 48 -285 c 0
 48 -31 200 154 355 277 c 1
 252 371 163 474 97 571 c 0
 84 590 78 611 78 632 c 0
 78 663 90 694 110 714 c 0
 211 815 397 888 575 888 c 0
 728 888 964 815 964 586 c 0
 964 436 864 338 750 263 c 1
 867 197 986 158 1092 158 c 0
 1153 158 1204 106 1204 45 c 0
 1204 -16 1153 -68 1092 -68 c 0
 893 -68 701 19 536 132 c 1
 387 27 272 -111 272 -285 c 0
 272 -446 412 -532 674 -532 c 0
 742 -532 814 -525 885 -512 c 0
 892 -511 899 -511 905 -511 c 0
EndSplineSet
Colour: ffff
EndChar

StartChar: uniFECB
Encoding: 65227 65227 168
Width: 1020
VWidth: 2370
Flags: HMW
AnchorPoint: "Anchor-3" 565 973 basechar 0
AnchorPoint: "Anchor-1" 438 0 basechar 0
LayerCount: 2
Fore
SplineSet
860 296 m 0
 913 296 972 250 972 183 c 0
 972 124 924 73 864 71 c 0
 815 69 761 62 708 54 c 0
 635 38 559 10 482 -10 c 0
 364 -41 216 -68 0 -68 c 0
 -61 -68 -112 -16 -112 45 c 0
 -112 106 -61 158 0 158 c 0
 65 158 122 160 173 164 c 1
 105 233 64 330 64 437 c 0
 64 694 279 904 525 904 c 0
 627 904 730 869 809 797 c 0
 833 775 845 745 845 714 c 0
 845 652 793 602 733 602 c 0
 706 602 678 612 657 631 c 0
 624 661 575 680 525 680 c 0
 407 680 290 568 290 437 c 0
 290 328 372 262 510 262 c 0
 634 262 732 296 860 296 c 0
EndSplineSet
Colour: ffff
EndChar

StartChar: uniFECC
Encoding: 65228 65228 169
Width: 1040
VWidth: 2370
Flags: HMW
AnchorPoint: "Anchor-3" 506 821 basechar 0
AnchorPoint: "Anchor-1" 515 0 basechar 0
LayerCount: 2
Fore
SplineSet
295 537 m 1
 363 459 458 372 566 304 c 1
 679 367 730 439 730 483 c 0
 730 535 646 610 521 610 c 0
 467 610 372 580 295 537 c 1
1040 -68 m 0
 861 -68 696 -18 558 51 c 1
 382 -22 164 -68 0 -68 c 0
 -61 -68 -112 -16 -112 45 c 0
 -112 106 -61 158 0 158 c 0
 86 158 204 175 318 206 c 1
 199 301 106 405 42 494 c 0
 28 513 22 535 22 558 c 0
 22 588 34 619 56 640 c 0
 168 747 358 834 521 834 c 0
 694 834 954 733 954 483 c 0
 954 361 884 264 802 194 c 1
 877 171 957 158 1040 158 c 0
 1101 158 1152 106 1152 45 c 0
 1152 -16 1101 -68 1040 -68 c 0
EndSplineSet
Colour: ffff
EndChar

StartChar: uniFED2
Encoding: 65234 65234 173
Width: 1829
VWidth: 2189
Flags: HMW
AnchorPoint: "Anchor-3" 1484 1323 basechar 0
AnchorPoint: "Anchor-1" 780 -30 basechar 0
LayerCount: 2
Fore
SplineSet
1406 235 m 1
 1497 289 1552 360 1552 484 c 0
 1552 621 1504 670 1399 670 c 0
 1321 670 1248 611 1248 472 c 0
 1248 355 1306 285 1406 235 c 1
1829 -68 m 0
 1682 -68 1535 -49 1414 -10 c 1
 1251 -74 1041 -98 840 -98 c 0
 500 -98 48 -76 48 336 c 0
 48 420 68 512 106 616 c 0
 123 661 166 689 212 689 c 0
 280 689 323 632 323 576 c 0
 323 563 322 550 317 538 c 0
 285 452 272 384 272 336 c 0
 272 176 438 128 840 128 c 0
 947 128 1052 134 1146 150 c 1
 1068 233 1022 345 1022 472 c 0
 1022 703 1175 894 1399 894 c 0
 1644 894 1776 703 1776 484 c 0
 1776 360 1737 251 1668 166 c 1
 1719 160 1774 158 1829 158 c 0
 1890 158 1942 106 1942 45 c 0
 1942 -16 1890 -68 1829 -68 c 0
EndSplineSet
Refer: 223 57344 N 1 0 0 1 1253 1190 2
Colour: ffff
EndChar

StartChar: uniFED6
Encoding: 65238 65238 176
Width: 1461
VWidth: 2270
Flags: HMW
AnchorPoint: "Anchor-3" 979 1152 basechar 0
AnchorPoint: "Anchor-1" 712 -526 basechar 0
LayerCount: 2
Fore
SplineSet
1148 157 m 1
 1142 418 1074 558 977 558 c 0
 908 558 820 454 820 316 c 0
 820 178 846 156 1018 156 c 2
 1148 157 l 1
262 506 m 0
 330 506 373 449 373 393 c 0
 373 378 370 363 364 349 c 0
 303 212 272 84 272 -17 c 0
 272 -213 371 -350 704 -350 c 0
 933 -350 1069 -254 1124 -68 c 1
 1018 -68 l 2
 782 -68 596 44 596 316 c 0
 596 508 714 782 977 782 c 0
 1320 782 1368 383 1373 157 c 1
 1461 157 l 2
 1522 157 1573 107 1573 45 c 0
 1573 -16 1522 -67 1461 -67 c 2
 1356 -68 l 1
 1289 -395 1033 -574 704 -574 c 0
 283 -574 48 -345 48 -17 c 0
 48 128 89 282 158 439 c 0
 176 481 219 506 262 506 c 0
EndSplineSet
Refer: 224 57345 N 1 0 0 1 639 1022 2
Colour: ffff
EndChar

StartChar: uniFEDA
Encoding: 65242 65242 179
Width: 1772
VWidth: 1478
Flags: HMW
AnchorPoint: "Anchor-3" 781 863 basechar 0
AnchorPoint: "Anchor-1" 716 -30 basechar 0
LayerCount: 2
Fore
SplineSet
1234 1211 m 0
 1234 1269 1281 1323 1346 1323 c 0
 1401 1323 1451 1282 1458 1226 c 0
 1487 1003 1503 675 1503 431 c 0
 1503 226 1605 158 1772 158 c 0
 1833 158 1884 106 1884 45 c 0
 1884 -16 1833 -68 1772 -68 c 0
 1615 -68 1470 -8 1378 110 c 1
 1233 -41 987 -96 786 -96 c 0
 503 -96 48 -63 48 363 c 0
 48 452 73 540 109 620 c 0
 128 661 169 686 212 686 c 0
 280 686 323 629 323 573 c 0
 323 558 321 543 314 528 c 0
 288 470 272 408 272 363 c 0
 272 179 459 128 786 128 c 0
 1073 128 1278 237 1278 431 c 0
 1278 663 1261 989 1234 1196 c 0
 1233 1201 1234 1206 1234 1211 c 0
EndSplineSet
Refer: 452 57362 N 1 0 0 1 559 -635 2
Colour: ffff
EndChar

StartChar: uniFEDB
Encoding: 65243 65243 180
Width: 1054
VWidth: 2234
Flags: HMW
AnchorPoint: "Anchor-3" 489 1197 basechar 0
AnchorPoint: "Anchor-1" 268 0 basechar 0
LayerCount: 2
Fore
SplineSet
893 1423 m 0
 949 1423 1006 1379 1006 1312 c 0
 1006 1270 983 1229 944 1210 c 2
 348 918 l 1
 504 751 684 544 684 312 c 0
 684 10 384 -68 0 -68 c 0
 -61 -68 -112 -16 -112 45 c 0
 -112 106 -61 158 0 158 c 0
 408 158 460 236 460 312 c 0
 460 451 272 676 80 872 c 0
 59 894 48 923 48 951 c 0
 48 983 62 1015 88 1037 c 0
 97 1045 110 1052 110 1052 c 1
 844 1412 l 2
 860 1420 877 1423 893 1423 c 0
EndSplineSet
Colour: ffff
EndChar

StartChar: uniFEDC
Encoding: 65244 65244 181
Width: 1113
VWidth: 2370
Flags: HMW
AnchorPoint: "Anchor-3" 489 1197 basechar 0
AnchorPoint: "Anchor-1" 268 0 basechar 0
LayerCount: 2
Fore
SplineSet
348 918 m 1
 479 778 600 630 660 465 c 0
 767 169 795 157 1041 157 c 0
 1063 157 1087 158 1113 158 c 0
 1174 158 1226 106 1226 45 c 0
 1226 -16 1174 -68 1113 -68 c 0
 901 -68 730 -60 602 90 c 1
 481 -40 276 -68 0 -68 c 0
 -61 -68 -112 -16 -112 45 c 0
 -112 106 -61 158 0 158 c 0
 408 158 460 236 460 312 c 0
 460 451 266 682 80 872 c 0
 62 891 48 918 48 950 c 2
 48 951 l 2
 48 997 72 1034 110 1052 c 2
 844 1412 l 2
 860 1420 877 1423 893 1423 c 0
 949 1423 1006 1379 1006 1312 c 0
 1006 1270 983 1229 944 1210 c 2
 348 918 l 1
EndSplineSet
Colour: ffff
EndChar

StartChar: uniFEDE
Encoding: 65246 65246 182
Width: 1450
VWidth: 2370
Flags: HMW
AnchorPoint: "Anchor-1" 623 -526 basechar 0
AnchorPoint: "Anchor-3" 510 596 basechar 0
LayerCount: 2
Fore
SplineSet
984 148 m 0
 984 221 984 296 980 365 c 0
 980 367 980 370 980 372 c 0
 980 376 981 381 981 385 c 0
 974 644 956 904 935 1203 c 0
 935 1206 935 1208 935 1211 c 0
 935 1271 983 1323 1047 1323 c 0
 1105 1323 1155 1278 1159 1219 c 0
 1181 907 1200 633 1206 356 c 1
 1221 162 1259 158 1450 158 c 0
 1511 158 1563 106 1563 45 c 0
 1563 -16 1511 -68 1450 -68 c 0
 1354 -68 1268 -54 1196 -20 c 1
 1154 -309 990 -536 609 -536 c 0
 267 -536 48 -319 48 -15 c 0
 48 138 98 294 155 408 c 0
 175 447 215 470 256 470 c 0
 323 470 367 413 367 357 c 0
 367 340 364 324 356 308 c 0
 313 222 272 88 272 -15 c 0
 272 -195 371 -312 609 -312 c 0
 908 -312 984 -163 984 148 c 0
EndSplineSet
Colour: ffff
EndChar

StartChar: uniFEDF
Encoding: 65247 65247 183
Width: 494
VWidth: 2370
Flags: HMW
AnchorPoint: "Anchor-1" 223 0 basechar 0
AnchorPoint: "Anchor-3" 245 1212 basechar 0
LayerCount: 2
Fore
SplineSet
133 1211 m 0
 133 1269 180 1323 245 1323 c 0
 300 1323 350 1282 357 1226 c 0
 395 935 406 762 406 444 c 0
 406 313 393 195 332 97 c 0
 264 -13 143 -68 0 -68 c 0
 -61 -68 -112 -16 -112 45 c 0
 -112 106 -61 158 0 158 c 0
 91 158 118 180 140 215 c 0
 163 253 182 329 182 444 c 0
 182 758 171 909 133 1196 c 0
 132 1201 133 1206 133 1211 c 0
EndSplineSet
Colour: ffff
EndChar

StartChar: uniFEE0
Encoding: 65248 65248 184
Width: 674
VWidth: 2370
Flags: HMW
AnchorPoint: "Anchor-3" 293 1211 basechar 0
AnchorPoint: "Anchor-1" 247 0 basechar 0
LayerCount: 2
Fore
SplineSet
181 1211 m 0
 181 1270 228 1323 293 1323 c 0
 350 1323 400 1280 405 1222 c 0
 432 933 450 683 450 369 c 0
 450 207 520 158 674 158 c 0
 735 158 786 106 786 45 c 0
 786 -16 735 -68 674 -68 c 0
 543 -68 423 -26 340 59 c 1
 260 -25 141 -68 0 -68 c 0
 -61 -68 -112 -16 -112 45 c 0
 -112 106 -61 158 0 158 c 0
 173 158 224 201 224 369 c 0
 224 675 208 913 181 1200 c 0
 181 1203 181 1208 181 1211 c 0
EndSplineSet
Colour: ffff
EndChar

StartChar: uniFEE2
Encoding: 65250 65250 185
Width: 1365
VWidth: 2370
Flags: HMW
AnchorPoint: "Anchor-3" 724 663 basechar 0
AnchorPoint: "Anchor-1" 690 -169 basechar 0
LayerCount: 2
Fore
SplineSet
896 320 m 0
 896 377 940 433 1007 433 c 0
 1058 433 1106 398 1118 346 c 0
 1148 214 1189 158 1365 158 c 0
 1426 158 1478 106 1478 45 c 0
 1478 -16 1426 -68 1365 -68 c 0
 1090 -68 945 90 898 296 c 0
 896 304 896 312 896 320 c 0
EndSplineSet
Refer: 88 1605 N 1 0 0 1 0 0 2
Substitution2: "'ss01' Style Set 1 lookup 14 subtable" uniE01F
Colour: ffff
EndChar

StartChar: uniFEE4
Encoding: 65252 65252 186
Width: 1199
VWidth: 1350
Flags: HMW
AnchorPoint: "Anchor-1" 561 0 basechar 0
AnchorPoint: "Anchor-3" 589 675 basechar 0
LayerCount: 2
Back
SplineSet
881 366 m 1
 927 173 1089 45 1219 45 c 1025
EndSplineSet
Fore
SplineSet
587 504 m 1
 520 413 430 257 430 195 c 0
 430 191 430 187 430 183 c 0
 430 157 439 128 569 128 c 0
 752 128 758 192 758 205 c 0
 758 268 678 406 587 504 c 1
521 710 m 0
 544 710 568 702 586 689 c 1
 606 703 630 710 653 710 c 0
 683 710 713 699 734 677 c 0
 859 549 939 441 981 322 c 0
 1024 200 1022 158 1199 158 c 0
 1260 158 1312 106 1312 45 c 0
 1312 -16 1260 -68 1199 -68 c 0
 1076 -68 978 -40 907 18 c 1
 829 -63 713 -98 569 -98 c 0
 431 -98 319 -57 256 31 c 1
 189 -25 102 -68 0 -68 c 0
 -61 -68 -112 -16 -112 45 c 0
 -112 106 -61 158 0 158 c 0
 101 158 192 279 276 443 c 0
 319 528 383 612 432 671 c 0
 451 694 486 710 521 710 c 0
EndSplineSet
Colour: ffff
EndChar

StartChar: uniFEE6
Encoding: 65254 65254 187
Width: 1504
VWidth: 2286
Flags: HMW
AnchorPoint: "Anchor-3" 666 600 basechar 0
AnchorPoint: "Anchor-1" 651 -526 basechar 0
LayerCount: 2
Fore
SplineSet
1057 348 m 0
 1057 404 1100 461 1168 461 c 0
 1216 461 1262 429 1277 381 c 0
 1309 276 1332 219 1356 195 c 0
 1374 177 1403 158 1504 158 c 0
 1565 158 1617 106 1617 45 c 0
 1617 -16 1565 -68 1504 -68 c 0
 1377 -68 1270 -40 1194 39 c 0
 1118 117 1091 216 1061 317 c 0
 1058 327 1057 337 1057 348 c 0
EndSplineSet
Refer: 223 57344 N 1 0 0 1 462 225 2
Refer: 85 1722 N 1 0 0 1 0 0 2
Colour: ffff
EndChar

StartChar: uniFEEA
Encoding: 65258 65258 188
Width: 1081
VWidth: 2370
Flags: HMW
AnchorPoint: "Anchor-3" 443 936 basechar 0
AnchorPoint: "Anchor-1" 425 2 basechar 0
LayerCount: 2
Fore
SplineSet
622 315 m 1
 618 341 615 368 612 396 c 2
 588 657 l 1
 552 637 515 618 480 602 c 0
 333 533 292 470 292 414 c 0
 292 384 344 310 518 310 c 0
 540 310 570 317 599 317 c 0
 607 317 615 316 622 315 c 1
562 953 m 0
 562 1010 606 1065 673 1065 c 0
 741 1065 784 1014 788 941 c 0
 804 766 820 591 836 416 c 0
 841 359 850 314 860 281 c 0
 893 177 928 158 1081 158 c 0
 1142 158 1194 106 1194 45 c 0
 1194 -16 1142 -68 1081 -68 c 0
 924 -68 768 -30 683 125 c 1
 646 89 588 84 518 84 c 0
 314 84 68 178 68 414 c 0
 68 606 217 727 384 806 c 0
 463 843 529 881 552 908 c 0
 563 920 563 925 563 927 c 0
 562 935 562 944 562 953 c 0
EndSplineSet
Colour: ffff
EndChar

StartChar: uniFEEB
Encoding: 65259 65259 189
Width: 1283
VWidth: 2370
Flags: HMW
AnchorPoint: "Anchor-3" 625 872 basechar 0
AnchorPoint: "Anchor-1" 585 0 basechar 0
LayerCount: 2
Fore
SplineSet
438 234 m 1
 521 277 570 336 570 450 c 0
 570 540 525 614 479 635 c 0
 467 641 453 644 436 644 c 0
 351 644 254 551 254 430 c 0
 254 374 294 313 393 257 c 0
 407 249 422 241 438 234 c 1
790 526 m 1
 794 501 796 475 796 450 c 0
 796 339 762 240 701 163 c 1
 735 159 769 158 800 158 c 0
 943 158 990 222 990 286 c 0
 990 376 930 452 790 526 c 1
800 -68 m 0
 683 -68 545 -43 441 -8 c 1
 316 -50 156 -68 0 -68 c 0
 -61 -68 -112 -16 -112 45 c 0
 -112 106 -61 158 0 158 c 0
 50 158 99 159 146 163 c 1
 79 231 30 323 30 430 c 0
 30 568 93 694 190 776 c 1
 175 783 160 791 146 799 c 0
 109 819 87 859 87 899 c 0
 87 966 143 1010 200 1010 c 0
 218 1010 235 1006 252 997 c 0
 384 926 549 865 700 810 c 0
 937 723 1216 582 1216 286 c 0
 1216 62 1017 -68 800 -68 c 0
EndSplineSet
Colour: ffff
EndChar

StartChar: uniFEEC
Encoding: 65260 65260 190
Width: 930
VWidth: 2370
Flags: HMW
AnchorPoint: "Anchor-3" 465 782 basechar 0
AnchorPoint: "Anchor-1" 418 -557 basechar 0
LayerCount: 2
Fore
SplineSet
295 207 m 1
 359 231 413 263 455 298 c 0
 551 378 592 474 592 546 c 0
 592 612 575 624 534 624 c 0
 421 624 313 476 295 207 c 1
563 97 m 1
 493 46 408 4 312 -25 c 1
 363 -237 489 -360 554 -360 c 0
 582 -360 610 -349 610 -232 c 0
 610 -152 587 -57 562 -4 c 0
 555 10 551 28 551 46 c 0
 551 64 555 81 563 97 c 1
631 153 m 1
 642 156 654 158 663 158 c 2
 930 158 l 2
 991 158 1042 106 1042 45 c 0
 1042 -16 991 -68 930 -68 c 2
 818 -68 l 1
 829 -121 836 -176 836 -232 c 0
 836 -369 778 -584 554 -584 c 0
 295 -584 144 -298 91 -64 c 1
 62 -66 31 -68 0 -68 c 0
 -61 -68 -112 -16 -112 45 c 0
 -112 106 -61 158 0 158 c 0
 23 158 46 159 68 160 c 1
 74 455 187 850 534 850 c 0
 729 850 816 684 816 546 c 0
 816 407 750 265 631 153 c 1
EndSplineSet
Colour: ffff
EndChar

StartChar: uniFEEE
Encoding: 65262 65262 191
Width: 931
VWidth: 2370
Flags: HMW
AnchorPoint: "Anchor-3" 464 721 basechar 0
AnchorPoint: "Anchor-1" 459 -408 basechar 0
LayerCount: 2
Fore
SplineSet
618 137 m 1
 617 449 511 544 460 544 c 0
 420 544 322 458 322 257 c 0
 322 190 337 165 347 155 c 0
 358 145 388 128 470 128 c 0
 516 128 565 130 618 137 c 1
161 -578 m 0
 104 -578 48 -534 48 -467 c 0
 48 -414 86 -366 139 -356 c 0
 364 -313 502 -221 568 -94 c 1
 534 -96 501 -98 470 -98 c 0
 362 -98 263 -77 189 -5 c 0
 118 66 98 160 98 257 c 0
 98 486 206 768 460 768 c 0
 736 768 838 456 843 156 c 1
 875 157 906 158 931 158 c 0
 992 158 1044 106 1044 45 c 0
 1044 -16 992 -68 931 -68 c 0
 900 -68 859 -68 818 -70 c 1
 740 -354 495 -516 181 -576 c 0
 174 -577 168 -578 161 -578 c 0
EndSplineSet
PairPos2: "'kern' Horizontal Kerning in Arabic lookup 2 per glyph data 3" uniE028 dx=-233 dy=0 dh=-233 dv=0 dx=0 dy=0 dh=0 dv=0
PairPos2: "'kern' Horizontal Kerning in Arabic lookup 2 per glyph data 3" uniFC3E dx=-233 dy=0 dh=-233 dv=0 dx=0 dy=0 dh=0 dv=0
PairPos2: "'kern' Horizontal Kerning in Arabic lookup 2 per glyph data 3" uniFC3D dx=-233 dy=0 dh=-233 dv=0 dx=0 dy=0 dh=0 dv=0
PairPos2: "'kern' Horizontal Kerning in Arabic lookup 2 per glyph data 3" uniFC37 dx=-233 dy=0 dh=-233 dv=0 dx=0 dy=0 dh=0 dv=0
PairPos2: "'kern' Horizontal Kerning in Arabic lookup 2 per glyph data 3" uniE023 dx=-233 dy=0 dh=-233 dv=0 dx=0 dy=0 dh=0 dv=0
PairPos2: "'kern' Horizontal Kerning in Arabic lookup 2 per glyph data 4" uni0625 dx=178 dy=0 dh=178 dv=0 dx=0 dy=0 dh=0 dv=0
PairPos2: "'kern' Horizontal Kerning in Arabic lookup 2 per glyph data 3" uni06A9 dx=-233 dy=0 dh=-233 dv=0 dx=0 dy=0 dh=0 dv=0
PairPos2: "'kern' Horizontal Kerning in Arabic lookup 2 per glyph data 3" uni06AF dx=-233 dy=0 dh=-233 dv=0 dx=0 dy=0 dh=0 dv=0
PairPos2: "'kern' Horizontal Kerning in Arabic lookup 2 per glyph data 3" uniFB90 dx=-233 dy=0 dh=-233 dv=0 dx=0 dy=0 dh=0 dv=0
PairPos2: "'kern' Horizontal Kerning in Arabic lookup 2 per glyph data 3" uniFB94 dx=-233 dy=0 dh=-233 dv=0 dx=0 dy=0 dh=0 dv=0
PairPos2: "'kern' Horizontal Kerning in Arabic lookup 2 per glyph data 3" uniFEDB dx=-233 dy=0 dh=-233 dv=0 dx=0 dy=0 dh=0 dv=0
Colour: ffff
EndChar

StartChar: uniFEFB
Encoding: 65275 65275 199
Width: 1231
VWidth: 1839
Flags: HMW
AnchorPoint: "Anchor-2" 1025 1187 baselig 0
AnchorPoint: "Anchor-2" 390 1128 baselig 1
AnchorPoint: "Anchor-0" 286 0 baselig 1
AnchorPoint: "Anchor-0" 897 -3 baselig 0
LayerCount: 2
Fore
SplineSet
272 1147 m 0
 272 1203 315 1260 383 1260 c 0
 429 1260 474 1232 490 1186 c 0
 573 954 609 714 609 363 c 0
 609 302 557 251 496 251 c 0
 435 251 384 302 384 363 c 0
 384 700 351 906 278 1110 c 0
 274 1122 272 1135 272 1147 c 0
911 1203 m 0
 911 1262 959 1315 1023 1315 c 0
 1080 1315 1130 1271 1135 1213 c 0
 1154 1000 1164 840 1164 520 c 0
 1164 122 1007 -68 593 -68 c 0
 438 -68 305 -58 164 -37 c 0
 109 -29 68 19 68 74 c 0
 68 140 123 186 181 186 c 0
 186 186 191 186 196 185 c 0
 327 166 446 158 593 158 c 0
 909 158 938 198 938 520 c 0
 938 836 930 984 911 1193 c 0
 911 1196 911 1200 911 1203 c 0
EndSplineSet
Ligature2: "'rlig' Required Ligatures in Arabic lookup 7 subtable" uniFEDF uniFE8E
PairPos2: "'kern' Horizontal Kerning in Arabic lookup 2 per glyph data 0" uni062C dx=-134 dy=0 dh=-134 dv=0 dx=0 dy=0 dh=0 dv=0
PairPos2: "'kern' Horizontal Kerning in Arabic lookup 2 per glyph data 0" uni062D dx=-134 dy=0 dh=-134 dv=0 dx=0 dy=0 dh=0 dv=0
PairPos2: "'kern' Horizontal Kerning in Arabic lookup 2 per glyph data 0" uni062E dx=-134 dy=0 dh=-134 dv=0 dx=0 dy=0 dh=0 dv=0
PairPos2: "'kern' Horizontal Kerning in Arabic lookup 2 per glyph data 0" uni0639 dx=-350 dy=0 dh=-350 dv=0 dx=0 dy=0 dh=0 dv=0
PairPos2: "'kern' Horizontal Kerning in Arabic lookup 2 per glyph data 0" uni063A dx=-350 dy=0 dh=-350 dv=0 dx=0 dy=0 dh=0 dv=0
PairPos2: "'kern' Horizontal Kerning in Arabic lookup 2 per glyph data 0" uni0686 dx=-134 dy=0 dh=-134 dv=0 dx=0 dy=0 dh=0 dv=0
LCarets2: 1 0
Colour: ffff
EndChar

StartChar: uniFEFC
Encoding: 65276 65276 200
Width: 1282
VWidth: 1839
Flags: HMW
AnchorPoint: "Anchor-0" 369 0 baselig 1
AnchorPoint: "Anchor-2" 350 1118 baselig 1
AnchorPoint: "Anchor-2" 919 1157 baselig 0
AnchorPoint: "Anchor-0" 901 -1 baselig 0
LayerCount: 2
Fore
SplineSet
440 325 m 0
 373 325 329 381 329 438 c 0
 329 445 330 452 331 459 c 0
 341 511 346 568 346 627 c 0
 346 814 299 959 245 1078 c 0
 238 1093 235 1108 235 1123 c 0
 235 1179 278 1236 346 1236 c 0
 389 1236 431 1211 450 1170 c 0
 512 1033 570 854 570 627 c 0
 570 556 565 485 551 415 c 0
 541 362 492 325 440 325 c 0
813 1166 m 0
 813 1225 860 1278 925 1278 c 0
 981 1278 1030 1236 1037 1179 c 0
 1067 927 1080 757 1080 514 c 0
 1080 208 1145 158 1282 158 c 0
 1343 158 1395 106 1395 45 c 0
 1395 -16 1343 -68 1282 -68 c 0
 1124 -68 1017 -5 949 103 c 1
 831 -27 645 -68 446 -68 c 0
 358 -68 264 -60 169 -51 c 0
 112 -45 68 4 68 61 c 0
 68 126 121 173 180 173 c 0
 183 173 187 173 191 173 c 0
 284 164 370 158 446 158 c 0
 735 158 856 197 856 514 c 0
 856 749 843 905 813 1153 c 0
 812 1157 813 1162 813 1166 c 0
EndSplineSet
Ligature2: "'rlig' Required Ligatures in Arabic lookup 7 subtable" uniFEE0 uniFE8E
PairPos2: "'kern' Horizontal Kerning in Arabic lookup 2 per glyph data 0" uni062C dx=-134 dy=0 dh=-134 dv=0 dx=0 dy=0 dh=0 dv=0
PairPos2: "'kern' Horizontal Kerning in Arabic lookup 2 per glyph data 0" uni062D dx=-134 dy=0 dh=-134 dv=0 dx=0 dy=0 dh=0 dv=0
PairPos2: "'kern' Horizontal Kerning in Arabic lookup 2 per glyph data 0" uni062E dx=-134 dy=0 dh=-134 dv=0 dx=0 dy=0 dh=0 dv=0
PairPos2: "'kern' Horizontal Kerning in Arabic lookup 2 per glyph data 0" uni0639 dx=-350 dy=0 dh=-350 dv=0 dx=0 dy=0 dh=0 dv=0
PairPos2: "'kern' Horizontal Kerning in Arabic lookup 2 per glyph data 0" uni063A dx=-350 dy=0 dh=-350 dv=0 dx=0 dy=0 dh=0 dv=0
PairPos2: "'kern' Horizontal Kerning in Arabic lookup 2 per glyph data 0" uni0686 dx=-134 dy=0 dh=-134 dv=0 dx=0 dy=0 dh=0 dv=0
LCarets2: 1 0
Colour: ffff
EndChar

StartChar: uni06CC
Encoding: 1740 1740 201
Width: 1347
VWidth: 2370
Flags: HMW
AnchorPoint: "Anchor-3" 382 628 basechar 0
AnchorPoint: "Anchor-1" 719 -559 basechar 0
LayerCount: 2
Back
SplineSet
159 300 m 0
 138 174 127 68 127 -20 c 0
 127 -334 369 -450 691 -450 c 0
 936 -450 1179 -333 1179 -134 c 0
 1179 57 1024 70 876 78 c 0
 687 88 555 136 555 325 c 0
 555 553 718 706 927 706 c 0
 983 706 1041 697 1100 673 c 1024
EndSplineSet
Fore
SplineSet
1247 637 m 0
 1247 572 1192 526 1134 526 c 0
 1112 526 1090 532 1071 545 c 0
 1029 574 987 586 944 586 c 0
 814 586 686 465 686 324 c 0
 686 216 739 195 930 192 c 0
 1156 189 1310 98 1310 -116 c 0
 1310 -398 1007 -538 671 -538 c 0
 293 -538 58 -374 58 -13 c 0
 58 80 70 184 93 300 c 0
 104 353 152 390 204 390 c 0
 271 390 316 334 316 277 c 0
 316 270 314 263 313 256 c 0
 292 150 282 60 282 -13 c 0
 282 -238 357 -312 671 -312 c 0
 983 -312 1084 -190 1084 -116 c 0
 1084 -99 1086 -86 1086 -75 c 0
 1086 -39 1069 -34 926 -32 c 0
 747 -29 460 12 460 324 c 0
 460 593 688 810 944 810 c 0
 1029 810 1119 786 1199 731 c 0
 1230 709 1247 673 1247 637 c 0
EndSplineSet
Substitution2: "'init' Initial Forms in Arabic lookup 6 subtable" uniFBFE
Substitution2: "'medi' Medial Forms in Arabic lookup 5 subtable" uniFBFF
Substitution2: "'fina' Terminal Forms in Arabic lookup 4 subtable" uniFBFD
Colour: ffff
EndChar

StartChar: uniFBFD
Encoding: 64509 64509 202
Width: 1382
VWidth: 1839
Flags: HMW
AnchorPoint: "Anchor-3" 724 206 basechar 0
AnchorPoint: "Anchor-1" 690 -549 basechar 0
LayerCount: 2
Fore
SplineSet
284 531 m 0
 352 531 395 474 395 418 c 0
 395 405 394 392 389 380 c 0
 329 217 292 61 292 -62 c 0
 292 -267 365 -398 703 -398 c 0
 1012 -398 1088 -272 1088 -234 c 0
 1088 -199 1044 -101 762 -67 c 0
 708 -61 663 -14 663 45 c 0
 663 106 713 158 775 158 c 2
 1382 158 l 2
 1443 158 1494 106 1494 45 c 0
 1494 -16 1443 -68 1382 -68 c 2
 1263 -68 l 1
 1297 -119 1314 -175 1314 -234 c 0
 1314 -484 1036 -622 703 -622 c 0
 265 -622 68 -379 68 -62 c 0
 68 103 112 281 177 458 c 0
 194 503 238 531 284 531 c 0
EndSplineSet
Colour: ffff
EndChar

StartChar: uniFB8F
Encoding: 64399 64399 205
Width: 1921
VWidth: 1478
Flags: HMW
AnchorPoint: "Anchor-1" 768 -65 basechar 0
AnchorPoint: "Anchor-3" 1305 1197 basechar 0
LayerCount: 2
Fore
SplineSet
1709 1423 m 0
 1765 1423 1822 1379 1822 1312 c 0
 1822 1270 1800 1229 1760 1210 c 2
 1164 918 l 1
 1281 793 1414 637 1476 466 c 0
 1585 171 1605 157 1842 157 c 0
 1866 157 1892 158 1921 158 c 0
 1982 158 2034 106 2034 45 c 0
 2034 -16 1982 -68 1921 -68 c 0
 1714 -68 1548 -60 1424 82 c 1
 1298 -67 1070 -98 768 -98 c 0
 414 -98 48 -36 48 340 c 0
 48 406 58 478 82 558 c 0
 96 607 142 638 191 638 c 0
 259 638 302 581 302 525 c 0
 302 515 301 504 298 494 c 0
 280 432 272 380 272 340 c 0
 272 188 386 128 768 128 c 0
 1204 128 1276 212 1276 303 c 0
 1276 318 1274 335 1270 352 c 0
 1256 420 1212 503 1147 590 c 0
 1072 690 983 783 896 872 c 0
 878 891 864 918 864 950 c 2
 864 951 l 2
 864 998 890 1034 926 1052 c 2
 1660 1412 l 2
 1676 1420 1693 1423 1709 1423 c 0
EndSplineSet
Colour: ffff
EndChar

StartChar: uniFBE8
Encoding: 64488 64488 218
Width: 532
VWidth: 1437
Flags: HMW
AnchorPoint: "Anchor-3" 276 732 basechar 0
AnchorPoint: "Anchor-1" 274 45 basechar 0
LayerCount: 2
Fore
SplineSet
180 665 m 0
 180 721 223 778 291 778 c 0
 339 778 384 748 399 700 c 0
 439 573 464 456 464 349 c 0
 464 243 443 135 364 53 c 0
 279 -35 153 -68 0 -68 c 0
 -61 -68 -112 -16 -112 45 c 0
 -112 106 -61 158 0 158 c 0
 126 158 179 185 202 209 c 0
 223 231 240 270 240 349 c 0
 240 420 221 517 185 632 c 0
 182 643 180 654 180 665 c 0
EndSplineSet
Colour: ffff
EndChar

StartChar: uniFBE9
Encoding: 64489 64489 219
Width: 811
VWidth: 1437
Flags: HMW
AnchorPoint: "Anchor-3" 233 565 basechar 0
AnchorPoint: "Anchor-1" 211 0 basechar 0
LayerCount: 2
Fore
SplineSet
283 531 m 0
 283 588 327 644 394 644 c 0
 450 644 501 601 507 544 c 0
 521 410 533 262 594 205 c 0
 620 181 676 158 811 158 c 0
 872 158 924 106 924 45 c 0
 924 -16 872 -68 811 -68 c 0
 640 -68 502 -35 413 69 c 1
 319 -37 176 -68 0 -68 c 0
 -61 -68 -112 -16 -112 45 c 0
 -112 106 -61 158 0 158 c 0
 165 158 222 190 248 222 c 0
 277 258 290 343 290 425 c 0
 290 456 283 498 283 531 c 0
EndSplineSet
Colour: ffff
EndChar

StartChar: uniFEE3
Encoding: 65251 65251 222
Width: 996
VWidth: 2370
Flags: HMW
AnchorPoint: "Anchor-3" 573 677 basechar 0
AnchorPoint: "Anchor-1" 563 -28 basechar 0
LayerCount: 2
Fore
SplineSet
576 -98 m 0
 461 -98 333 -58 246 17 c 1
 183 -38 98 -68 0 -68 c 0
 -61 -68 -112 -16 -112 45 c 0
 -112 106 -61 158 0 158 c 0
 80 158 100 178 127 223 c 0
 147 256 166 307 186 371 c 0
 255 586 358 730 573 730 c 0
 790 730 948 520 948 278 c 0
 948 21 757 -98 576 -98 c 0
366 204 m 1
 374 200 383 195 390 190 c 0
 439 152 512 128 576 128 c 0
 669 128 724 155 724 278 c 0
 724 436 626 506 573 506 c 0
 486 506 463 500 400 303 c 0
 390 271 379 237 366 204 c 1
EndSplineSet
Colour: ffff
EndChar

StartChar: uniE000
Encoding: 57344 57344 223
Width: 509
VWidth: 2498
Flags: HMW
LayerCount: 2
Fore
SplineSet
66 141 m 0
 66 213 131 280 212 280 c 0
 309 280 352 176 352 141 c 0
 352 106 323 -12 209 -12 c 0
 93 -12 66 103 66 141 c 0
EndSplineSet
Colour: ffff
EndChar

StartChar: uniE001
Encoding: 57345 57345 224
Width: 660
VWidth: 1823
Flags: HMW
LayerCount: 2
Fore
SplineSet
119 -13 m 0
 61 -13 6 34 6 98 c 0
 6 133 21 168 51 190 c 0
 137 253 250 296 380 296 c 0
 452 296 545 292 611 214 c 0
 637 183 652 140 652 99 c 0
 652 23 603 -28 537 -28 c 0
 477 -28 435 16 427 67 c 1
 416 69 399 70 380 70 c 0
 300 70 235 45 185 8 c 0
 165 -7 142 -13 119 -13 c 0
EndSplineSet
Colour: ffff
EndChar

StartChar: uniE002
Encoding: 57346 57346 225
Width: 696
VWidth: 1823
Flags: HMW
LayerCount: 2
Fore
SplineSet
85 269 m 0
 27 269 -27 316 -27 380 c 0
 -27 415 -12 450 18 472 c 0
 98 530 256 576 402 576 c 0
 474 576 588 565 641 459 c 0
 655 431 662 400 662 370 c 0
 662 196 484 48 352 10 c 0
 342 7 332 6 322 6 c 0
 265 6 209 49 209 117 c 0
 209 166 241 212 290 226 c 0
 320 235 401 299 428 350 c 1
 421 351 412 352 402 352 c 0
 315 352 171 303 152 290 c 0
 132 276 108 269 85 269 c 0
EndSplineSet
Colour: ffff
EndChar

StartChar: uniE003
Encoding: 57347 57347 226
Width: 696
VWidth: 1823
Flags: HMW
LayerCount: 2
Fore
SplineSet
474 14 m 0
 409 14 363 69 363 127 c 0
 363 148 368 169 381 188 c 0
 386 195 390 203 390 230 c 0
 390 265 370 294 308 294 c 0
 264 294 234 257 234 234 c 0
 234 190 250 172 309 119 c 0
 333 97 345 67 345 36 c 0
 345 -26 293 -76 233 -76 c 0
 206 -76 178 -66 157 -47 c 0
 102 4 10 88 10 234 c 0
 10 401 156 518 308 518 c 0
 464 518 616 409 616 230 c 0
 616 135 574 14 474 14 c 0
EndSplineSet
Colour: ffff
EndChar

StartChar: uniE004
Encoding: 57348 57348 227
Width: 1959
VWidth: 2370
Flags: HMW
AnchorPoint: "Anchor-3" 852 553 basechar 0
AnchorPoint: "Anchor-1" 796 -25 basechar 0
LayerCount: 2
Fore
SplineSet
1678 556 m 0
 1678 524 1676 493 1676 465 c 0
 1676 211 1741 158 1959 158 c 0
 2020 158 2072 106 2072 45 c 0
 2072 -16 2020 -68 1959 -68 c 0
 1757 -68 1582 0 1502 178 c 1
 1324 -17 1048 -98 711 -98 c 0
 330 -98 48 78 48 414 c 0
 48 490 62 572 89 657 c 0
 104 705 149 735 197 735 c 0
 265 735 308 678 308 622 c 0
 308 611 306 600 303 589 c 0
 282 520 272 462 272 414 c 0
 272 244 384 128 711 128 c 0
 1167 128 1396 281 1456 578 c 0
 1466 629 1512 668 1566 668 c 0
 1628 668 1678 617 1678 556 c 0
EndSplineSet
Colour: ffff
EndChar

StartChar: uniE005
Encoding: 57349 57349 228
Width: 852
VWidth: 2370
Flags: HMW
AnchorPoint: "Anchor-3" 438 1141 basechar 0
AnchorPoint: "Anchor-1" 380 0 basechar 0
LayerCount: 2
Fore
SplineSet
574 554 m 1
 552 828 471 934 418 934 c 0
 338 934 262 819 262 665 c 0
 262 558 294 528 435 528 c 0
 485 528 532 538 574 554 c 1
566 317 m 1
 525 308 481 302 435 302 c 0
 222 302 38 418 38 665 c 0
 38 841 124 1158 418 1158 c 0
 768 1158 804 682 804 399 c 0
 804 16 431 -68 0 -68 c 0
 -61 -68 -112 -16 -112 45 c 0
 -112 106 -61 158 0 158 c 0
 373 158 530 227 566 317 c 1
EndSplineSet
Colour: ffff
EndChar

StartChar: uniE006
Encoding: 57350 57350 229
Width: 945
VWidth: 2370
Flags: HMW
AnchorPoint: "Anchor-3" 552 921 basechar 0
AnchorPoint: "Anchor-1" 367 0 basechar 0
LayerCount: 2
Fore
SplineSet
470 264 m 1
 576 323 640 403 640 499 c 0
 640 628 574 696 483 696 c 0
 383 696 306 617 306 504 c 0
 306 403 366 324 470 264 c 1
469 16 m 1
 331 -38 156 -68 0 -68 c 0
 -61 -68 -112 -16 -112 45 c 0
 -112 106 -61 158 0 158 c 0
 70 158 145 165 216 178 c 1
 134 262 80 374 80 504 c 0
 80 727 249 920 483 920 c 0
 726 920 864 712 864 499 c 0
 864 370 809 259 727 177 c 1
 797 164 872 158 945 158 c 0
 1006 158 1058 106 1058 45 c 0
 1058 -16 1006 -68 945 -68 c 0
 781 -68 607 -39 469 16 c 1
EndSplineSet
Colour: ffff
EndChar

StartChar: uni064E
Encoding: 1614 1614 230
Width: 0
VWidth: -1171
Flags: HMW
AnchorPoint: "Anchor-5" 206 944 mark 0
AnchorPoint: "Anchor-2" 206 944 mark 0
AnchorPoint: "Anchor-3" 206 944 mark 0
AnchorPoint: "Anchor-5" 206 1404 basemark 0
LayerCount: 2
Fore
SplineSet
15 1291 m 0
 -10 1291 -35 1311 -35 1341 c 0
 -35 1362 -22 1381 -2 1388 c 2
 403 1532 l 2
 408 1534 415 1535 420 1535 c 0
 445 1535 470 1515 470 1485 c 0
 470 1464 457 1445 437 1438 c 2
 32 1294 l 2
 27 1292 20 1291 15 1291 c 0
EndSplineSet
Colour: ffff00
EndChar

StartChar: uni064F
Encoding: 1615 1615 234
Width: 0
VWidth: 2274
Flags: HMW
AnchorPoint: "Anchor-5" 162 858 mark 0
AnchorPoint: "Anchor-5" 171 1537 basemark 0
AnchorPoint: "Anchor-3" 162 858 mark 0
AnchorPoint: "Anchor-2" 162 858 mark 0
LayerCount: 2
Fore
SplineSet
227 1442 m 1
 229 1456 230 1471 230 1488 c 0
 230 1588 214 1628 191 1628 c 0
 149 1628 107 1569 107 1508 c 0
 107 1485 139 1456 227 1442 c 1
405 1383 m 0
 405 1356 382 1333 355 1333 c 0
 338 1333 319 1333 298 1334 c 1
 240 1221 116 1186 -32 1178 c 0
 -33 1178 -34 1178 -35 1178 c 0
 -62 1178 -85 1200 -85 1228 c 0
 -85 1254 -64 1277 -38 1278 c 0
 76 1284 148 1308 186 1348 c 1
 111 1364 7 1402 7 1508 c 0
 7 1595 63 1728 191 1728 c 0
 326 1728 330 1573 330 1500 c 0
 330 1496 330 1492 330 1488 c 0
 330 1469 329 1450 327 1433 c 1
 355 1433 l 2
 382 1433 405 1410 405 1383 c 0
EndSplineSet
Colour: ffff00
EndChar

StartChar: uni0651
Encoding: 1617 1617 235
Width: 0
VWidth: 2279
Flags: HMW
AnchorPoint: "Anchor-5" 239 858 mark 0
AnchorPoint: "Anchor-5" 239 1330 basemark 0
AnchorPoint: "Anchor-3" 239 858 mark 0
AnchorPoint: "Anchor-2" 239 858 mark 0
LayerCount: 2
Fore
SplineSet
368 1560 m 0
 368 1585 388 1610 418 1610 c 0
 437 1610 456 1598 464 1580 c 0
 486 1531 513 1451 513 1374 c 0
 513 1274 448 1213 364 1213 c 0
 312 1213 267 1241 238 1281 c 1
 206 1240 162 1214 110 1214 c 0
 35 1214 -34 1266 -34 1360 c 0
 -34 1429 -3 1498 36 1548 c 0
 46 1561 61 1568 76 1568 c 0
 104 1568 126 1544 126 1518 c 0
 126 1507 123 1497 116 1488 c 0
 88 1452 66 1397 66 1360 c 0
 66 1322 79 1314 110 1314 c 0
 140 1314 185 1346 189 1444 c 0
 190 1468 210 1492 239 1492 c 0
 265 1492 288 1472 289 1445 c 0
 295 1344 336 1313 364 1313 c 0
 396 1313 413 1320 413 1374 c 0
 413 1427 390 1499 372 1540 c 0
 369 1546 368 1553 368 1560 c 0
EndSplineSet
Colour: ffff00
EndChar

StartChar: uni0670
Encoding: 1648 1648 236
Width: 0
VWidth: 1823
Flags: HMW
AnchorPoint: "Anchor-5" 33 861 mark 0
AnchorPoint: "Anchor-5" 33 1413 basemark 0
AnchorPoint: "Anchor-3" 33 861 mark 0
AnchorPoint: "Anchor-2" 33 861 mark 0
LayerCount: 2
Fore
SplineSet
-36 1623 m 2
 -36 1649 -15 1673 14 1673 c 0
 39 1673 61 1653 64 1628 c 0
 72 1550 76 1479 76 1409 c 0
 76 1335 69 1259 44 1183 c 0
 37 1162 17 1149 -4 1149 c 0
 -34 1149 -54 1174 -54 1199 c 0
 -54 1204 -53 1210 -51 1215 c 0
 -30 1277 -24 1341 -24 1409 c 0
 -24 1475 -28 1542 -36 1618 c 1
 -36 1623 l 2
EndSplineSet
Colour: ffff00
EndChar

StartChar: uni064C
Encoding: 1612 1612 237
Width: 0
VWidth: 2274
Flags: HMW
AnchorPoint: "Anchor-5" 180 858 mark 0
AnchorPoint: "Anchor-5" 187 1497 basemark 0
AnchorPoint: "Anchor-3" 180 858 mark 0
AnchorPoint: "Anchor-2" 180 858 mark 0
LayerCount: 2
Fore
SplineSet
-135 1412 m 0
 -194 1412 -205 1510 -205 1561 c 0
 -205 1756 -35 1926 128 1938 c 1
 132 1938 l 2
 158 1938 182 1916 182 1888 c 0
 182 1862 162 1840 136 1838 c 0
 31 1830 -105 1700 -105 1561 c 0
 -105 1534 -100 1507 -89 1480 c 0
 -87 1474 -86 1468 -86 1462 c 0
 -86 1437 -105 1412 -135 1412 c 0
EndSplineSet
Refer: 234 1615 N 1 0 0 1 0 0 2
Colour: ffff00
EndChar

StartChar: uni0652
Encoding: 1618 1618 238
Width: 0
VWidth: 2274
Flags: HMW
AnchorPoint: "Anchor-5" 183 944 mark 0
AnchorPoint: "Anchor-5" 167 1441 basemark 0
AnchorPoint: "Anchor-3" 183 944 mark 0
AnchorPoint: "Anchor-2" 183 944 mark 0
LayerCount: 2
Fore
SplineSet
176 1639 m 0
 289 1639 363 1546 363 1452 c 0
 363 1336 280 1247 175 1247 c 0
 65 1247 -13 1339 -13 1434 c 0
 -13 1548 73 1639 176 1639 c 0
176 1539 m 0
 135 1539 87 1498 87 1434 c 0
 87 1391 125 1347 175 1347 c 0
 218 1347 263 1384 263 1452 c 0
 263 1496 229 1539 176 1539 c 0
EndSplineSet
Colour: ffff00
EndChar

StartChar: uni0653
Encoding: 1619 1619 239
Width: 0
VWidth: 1823
Flags: HMW
AnchorPoint: "Anchor-5" 308 858 mark 0
AnchorPoint: "Anchor-5" 316 1325 basemark 0
AnchorPoint: "Anchor-3" 308 858 mark 0
AnchorPoint: "Anchor-2" 308 858 mark 0
LayerCount: 2
Fore
SplineSet
571 1466 m 0
 601 1466 621 1441 621 1416 c 0
 621 1409 619 1401 616 1394 c 0
 581 1322 522 1238 419 1238 c 0
 374 1238 327 1255 278 1288 c 0
 244 1311 218 1319 194 1319 c 0
 150 1319 104 1289 72 1233 c 0
 63 1217 46 1208 29 1208 c 0
 -1 1208 -21 1233 -21 1258 c 0
 -21 1266 -18 1275 -14 1283 c 0
 30 1359 102 1419 194 1419 c 0
 242 1419 290 1401 334 1370 c 0
 371 1345 400 1338 419 1338 c 0
 458 1338 495 1372 526 1438 c 0
 535 1456 552 1466 571 1466 c 0
EndSplineSet
Colour: ffff00
EndChar

StartChar: uni0654
Encoding: 1620 1620 240
Width: 0
VWidth: 2280
Flags: HMW
AnchorPoint: "Anchor-5" 236 858 mark 0
AnchorPoint: "Anchor-5" 236 1503 basemark 0
AnchorPoint: "Anchor-3" 236 858 mark 0
AnchorPoint: "Anchor-2" 236 858 mark 0
LayerCount: 2
Fore
SplineSet
402 1587 m 0
 402 1561 381 1537 352 1537 c 0
 337 1537 322 1544 312 1557 c 0
 285 1593 257 1604 228 1604 c 0
 168 1604 100 1544 100 1463 c 0
 100 1397 135 1373 221 1373 c 0
 274 1373 338 1385 403 1408 c 0
 408 1410 414 1411 419 1411 c 0
 444 1411 469 1391 469 1361 c 0
 469 1340 455 1321 435 1314 c 2
 30 1173 l 2
 25 1171 19 1170 14 1170 c 0
 -11 1170 -36 1190 -36 1220 c 0
 -36 1241 -22 1260 -2 1267 c 2
 92 1300 l 1
 36 1329 0 1387 0 1463 c 0
 0 1598 108 1704 228 1704 c 0
 289 1704 349 1675 392 1617 c 0
 399 1608 402 1597 402 1587 c 0
EndSplineSet
Colour: ffff00
EndChar

StartChar: uni0615
Encoding: 1557 1557 244
Width: 0
VWidth: 1839
Flags: HMW
AnchorPoint: "Anchor-5" 256 768 mark 0
AnchorPoint: "Anchor-5" 247 1347 basemark 0
AnchorPoint: "Anchor-3" 256 768 mark 0
AnchorPoint: "Anchor-2" 256 768 mark 0
LayerCount: 2
Fore
SplineSet
220 1208 m 1
 233 1207 245 1207 258 1207 c 0
 377 1207 465 1244 465 1309 c 0
 465 1344 437 1372 393 1372 c 0
 319 1372 259 1304 220 1208 c 1
101 1719 m 0
 101 1745 122 1769 151 1769 c 0
 175 1769 196 1751 200 1727 c 0
 215 1634 224 1539 224 1441 c 0
 224 1427 223 1410 223 1398 c 1
 267 1441 324 1472 393 1472 c 0
 483 1472 565 1406 565 1309 c 0
 565 1138 369 1107 258 1107 c 0
 158 1107 78 1121 -5 1143 c 0
 -27 1149 -42 1169 -42 1191 c 0
 -42 1221 -17 1241 8 1241 c 0
 12 1241 17 1240 21 1239 c 0
 50 1231 80 1225 109 1220 c 1
 119 1296 124 1370 124 1441 c 0
 124 1533 117 1624 102 1711 c 0
 102 1714 101 1716 101 1719 c 0
EndSplineSet
Colour: ffff00
EndChar

StartChar: uniE007
Encoding: 57351 57351 251
Width: 1067
VWidth: 1839
Flags: HMW
LayerCount: 2
Fore
SplineSet
168 1301 m 0
 111 1301 55 1345 55 1412 c 0
 55 1452 76 1492 114 1512 c 2
 708 1829 l 2
 724 1838 742 1842 760 1842 c 0
 817 1842 873 1798 873 1731 c 0
 873 1691 852 1651 814 1631 c 2
 220 1314 l 2
 204 1305 186 1301 168 1301 c 0
EndSplineSet
Colour: ffff
EndChar

StartChar: uni0643
Encoding: 1603 1603 261
Width: 1610
VWidth: 1478
Flags: HMW
AnchorPoint: "Anchor-3" 781 863 basechar 0
AnchorPoint: "Anchor-1" 713 -30 basechar 0
LayerCount: 2
Fore
SplineSet
1251 1136 m 2
 1251 1195 1298 1248 1363 1248 c 0
 1419 1248 1469 1206 1475 1149 c 0
 1502 908 1522 710 1522 441 c 0
 1522 22 1197 -98 823 -98 c 0
 495 -98 48 -53 48 382 c 0
 48 457 61 539 86 629 c 0
 100 678 146 711 195 711 c 0
 263 711 306 655 306 598 c 0
 306 588 305 579 302 569 c 0
 281 493 272 431 272 382 c 0
 272 183 457 128 823 128 c 0
 1171 128 1298 198 1298 441 c 0
 1298 698 1278 882 1251 1123 c 1
 1251 1136 l 2
EndSplineSet
Refer: 452 57362 N 1 0 0 1 559 -635 2
Substitution2: "'init' Initial Forms in Arabic lookup 6 subtable" uniFEDB
Substitution2: "'medi' Medial Forms in Arabic lookup 5 subtable" uniFEDC
Substitution2: "'fina' Terminal Forms in Arabic lookup 4 subtable" uniFEDA
Colour: ffff
EndChar

StartChar: uni065A
Encoding: 1626 1626 265
Width: 0
VWidth: -365
Flags: HMW
AnchorPoint: "Anchor-5" 240 826 mark 0
AnchorPoint: "Anchor-5" 240 1381 basemark 0
AnchorPoint: "Anchor-3" 240 826 mark 0
AnchorPoint: "Anchor-2" 240 826 mark 0
LayerCount: 2
Fore
SplineSet
460 1574 m 0
 487 1574 510 1551 510 1524 c 0
 510 1511 505 1498 495 1488 c 0
 378 1376 293 1119 293 1004 c 1
 193 1004 l 1
 193 1119 107 1376 -9 1488 c 0
 -19 1498 -24 1511 -24 1524 c 0
 -24 1551 -1 1574 26 1574 c 0
 39 1574 51 1569 61 1560 c 0
 143 1481 203 1363 243 1249 c 1
 282 1361 343 1481 425 1560 c 0
 435 1569 447 1574 460 1574 c 0
EndSplineSet
Colour: ffff00
EndChar

StartChar: uni0621
Encoding: 1569 1569 266
Width: 883
VWidth: 2280
Flags: HMW
AnchorPoint: "Anchor-3" 447 703 basechar 0
AnchorPoint: "Anchor-1" 437 117 basechar 0
LayerCount: 2
Fore
SplineSet
742 625 m 0
 742 571 697 525 642 525 c 0
 615 525 588 535 569 556 c 0
 535 592 503 604 457 604 c 0
 384 604 286 518 286 414 c 0
 286 353 300 301 445 301 c 0
 507 301 628 310 711 320 c 0
 715 321 719 321 723 321 c 0
 776 321 823 277 823 221 c 0
 823 170 780 130 742 123 c 0
 560 88 385 20 212 -85 c 0
 196 -95 179 -100 161 -100 c 0
 110 -100 60 -60 60 -1 c 0
 60 33 77 66 108 85 c 0
 148 109 187 132 228 153 c 1
 128 212 86 317 86 414 c 0
 86 626 262 804 457 804 c 0
 549 804 643 770 715 694 c 0
 733 675 742 650 742 625 c 0
EndSplineSet
Colour: ff00
EndChar

StartChar: uni0640
Encoding: 1600 1600 267
Width: 668
VWidth: 1437
Flags: HMW
AnchorPoint: "Anchor-1" 334 -169 basechar 0
AnchorPoint: "Anchor-3" 334 520 basechar 0
LayerCount: 2
Fore
SplineSet
-112 45 m 0
 -112 106 -61 158 0 158 c 2
 668 158 l 2
 729 158 780 106 780 45 c 0
 780 -16 729 -68 668 -68 c 2
 0 -68 l 2
 -61 -68 -112 -16 -112 45 c 0
EndSplineSet
Colour: ffff
EndChar

StartChar: uni0660
Encoding: 1632 1632 275
Width: 737
VWidth: 2694
Flags: HMW
LayerCount: 2
Fore
SplineSet
60 475 m 0
 60 656 223 779 392 779 c 0
 559 779 677 642 677 484 c 0
 677 322 558 160 380 160 c 0
 205 160 60 304 60 475 c 0
260 475 m 0
 260 418 315 360 380 360 c 0
 422 360 477 408 477 484 c 0
 477 546 441 579 392 579 c 0
 309 579 260 522 260 475 c 0
EndSplineSet
PairPos2: "'kern' Horizontal Kerning in Arabic lookup 3 per glyph data 0" uni0667 dx=-89 dy=0 dh=-89 dv=0 dx=0 dy=0 dh=0 dv=0
PairPos2: "'kern' Horizontal Kerning in Arabic lookup 3 per glyph data 0" uni0666 dx=-89 dy=0 dh=-89 dv=0 dx=0 dy=0 dh=0 dv=0
PairPos2: "'kern' Horizontal Kerning in Arabic lookup 3 per glyph data 0" uni0662 dx=-111 dy=0 dh=-111 dv=0 dx=0 dy=0 dh=0 dv=0
Colour: ff00
EndChar

StartChar: uni0661
Encoding: 1633 1633 276
Width: 580
VWidth: 1823
Flags: HMW
LayerCount: 2
Fore
SplineSet
68 1170 m 0
 68 1226 111 1283 179 1283 c 0
 226 1283 270 1253 286 1207 c 0
 431 783 513 496 513 0 c 0
 513 -61 461 -112 400 -112 c 0
 339 -112 288 -61 288 -0 c 0
 288 472 219 713 74 1135 c 0
 70 1147 68 1158 68 1170 c 0
EndSplineSet
Colour: ffff
EndChar

StartChar: uni0662
Encoding: 1634 1634 277
Width: 1014
VWidth: 1823
Flags: HMW
LayerCount: 2
Fore
SplineSet
68 1164 m 0
 68 1220 110 1277 178 1277 c 0
 225 1277 268 1247 284 1208 c 0
 309 1148 333 1088 358 1025 c 1
 400 936 480 782 578 782 c 0
 647 782 742 896 742 1196 c 0
 742 1257 793 1308 854 1308 c 0
 915 1308 966 1257 966 1196 c 0
 966 911 885 556 578 556 c 0
 554 556 531 559 508 564 c 1
 543 416 566 261 566 98 c 2
 566 92 l 2
 566 62 565 27 563 -7 c 0
 559 -66 510 -112 451 -112 c 0
 387 -112 339 -60 339 0 c 0
 339 30 340 63 340 98 c 0
 340 397 245 697 151 937 c 0
 120 1006 95 1072 75 1125 c 0
 70 1138 68 1151 68 1164 c 0
EndSplineSet
Colour: ffff
EndChar

StartChar: uni0663
Encoding: 1635 1635 278
Width: 1285
VWidth: 2315
Flags: HMW
LayerCount: 2
Fore
SplineSet
1001 1186 m 0
 1001 1244 1047 1298 1113 1298 c 0
 1167 1298 1215 1259 1224 1204 c 0
 1234 1142 1238 1083 1238 1035 c 0
 1238 867 1198 566 942 556 c 0
 847 556 769 604 721 665 c 1
 664 597 577 555 478 555 c 1
 507 414 524 268 524 110 c 0
 524 75 523 31 522 -3 c 0
 520 -63 469 -112 409 -112 c 0
 347 -112 297 -61 297 0 c 0
 297 33 298 78 298 110 c 0
 298 345 252 566 193 763 c 1
 162 837 139 932 112 1013 c 0
 100 1049 87 1086 74 1123 c 0
 70 1135 68 1147 68 1159 c 0
 68 1215 111 1272 179 1272 c 0
 225 1272 270 1243 286 1197 c 0
 330 1073 367 966 405 840 c 1
 420 806 432 793 437 789 c 0
 441 786 447 780 478 780 c 0
 537 780 567 804 588 907 c 0
 596 944 600 990 600 1038 c 0
 600 1083 593 1127 593 1166 c 0
 593 1227 644 1278 705 1278 c 0
 767 1278 812 1224 817 1180 c 0
 821 1147 823 1112 824 1078 c 0
 829 1023 837 966 850 917 c 0
 879 804 915 782 938 781 c 0
 950 782 1012 847 1012 1035 c 0
 1012 1073 1010 1120 1002 1168 c 0
 1001 1174 1001 1180 1001 1186 c 0
EndSplineSet
Colour: ffff
EndChar

StartChar: uni0664
Encoding: 1636 1636 279
Width: 1037
VWidth: 2315
Flags: HMW
LayerCount: 2
Fore
SplineSet
876 192 m 0
 932 192 989 149 989 81 c 0
 989 37 964 -5 922 -23 c 0
 808 -72 685 -98 562 -98 c 0
 396 -98 48 -78 48 199 c 0
 48 382 216 480 289 531 c 0
 312 547 330 562 342 575 c 1
 332 584 316 595 299 606 c 0
 235 646 72 728 72 905 c 0
 72 1222 467 1294 650 1294 c 0
 711 1294 762 1243 762 1182 c 0
 762 1121 711 1070 650 1070 c 0
 459 1070 296 976 296 905 c 0
 296 892 329 852 417 798 c 0
 480 759 578 698 578 579 c 0
 578 460 483 393 417 347 c 0
 324 282 272 222 272 199 c 0
 272 192 342 128 562 128 c 0
 655 128 747 146 833 183 c 0
 847 189 861 192 876 192 c 0
EndSplineSet
Colour: ffff
EndChar

StartChar: uni0665
Encoding: 1637 1637 280
Width: 1150
VWidth: 2370
Flags: HMW
LayerCount: 2
Fore
SplineSet
566 843 m 1
 415 699 272 506 272 348 c 0
 272 214 364 128 583 128 c 0
 790 128 878 201 878 332 c 0
 878 495 747 679 566 843 c 1
200 1187 m 0
 200 1251 255 1298 313 1298 c 0
 336 1298 358 1292 377 1278 c 0
 434 1237 499 1190 566 1137 c 1
 581 1144 597 1147 613 1147 c 0
 673 1147 726 1098 726 1034 c 0
 726 1024 725 1015 722 1005 c 1
 911 831 1102 604 1102 332 c 0
 1102 31 844 -98 583 -98 c 0
 302 -98 48 50 48 348 c 0
 48 612 237 836 392 988 c 1
 342 1027 292 1062 247 1094 c 0
 216 1116 200 1152 200 1187 c 0
EndSplineSet
PairPos2: "'kern' Horizontal Kerning in Arabic lookup 3 per glyph data 0" uni0667 dx=-89 dy=0 dh=-89 dv=0 dx=0 dy=0 dh=0 dv=0
PairPos2: "'kern' Horizontal Kerning in Arabic lookup 3 per glyph data 0" uni0666 dx=-45 dy=0 dh=-45 dv=0 dx=0 dy=0 dh=0 dv=0
Colour: ffff
EndChar

StartChar: uni0666
Encoding: 1638 1638 281
Width: 1136
VWidth: 2315
Flags: HMW
LayerCount: 2
Fore
SplineSet
160 1044 m 0
 102 1044 48 1090 48 1156 c 0
 48 1210 88 1258 142 1267 c 0
 233 1282 323 1288 412 1288 c 0
 675 1288 914 1184 914 856 c 0
 914 417 931 320 1058 47 c 0
 1065 32 1068 17 1068 1 c 0
 1068 -55 1025 -112 957 -112 c 0
 914 -112 873 -88 854 -47 c 0
 717 248 690 415 690 856 c 0
 690 1030 631 1064 412 1064 c 0
 333 1064 255 1058 178 1045 c 0
 172 1044 166 1044 160 1044 c 0
EndSplineSet
PairPos2: "'kern' Horizontal Kerning in Arabic lookup 3 per glyph data 0" uni0660 dx=-89 dy=0 dh=-89 dv=0 dx=0 dy=0 dh=0 dv=0
PairPos2: "'kern' Horizontal Kerning in Arabic lookup 3 per glyph data 0" uni066B dx=-134 dy=0 dh=-134 dv=0 dx=0 dy=0 dh=0 dv=0
PairPos2: "'kern' Horizontal Kerning in Arabic lookup 3 per glyph data 0" uni0668 dx=-89 dy=0 dh=-89 dv=0 dx=0 dy=0 dh=0 dv=0
Colour: ffff
EndChar

StartChar: uni0667
Encoding: 1639 1639 282
Width: 1158
VWidth: 2370
Flags: HMW
LayerCount: 2
Fore
SplineSet
48 1165 m 0
 48 1222 93 1278 159 1278 c 0
 197 1278 234 1260 255 1226 c 0
 394 1006 510 808 592 569 c 1
 666 815 770 1022 900 1252 c 0
 920 1288 960 1309 999 1309 c 0
 1065 1309 1110 1253 1110 1196 c 0
 1110 1177 1106 1159 1096 1142 c 0
 884 767 760 489 709 -11 c 0
 704 -64 660 -112 598 -112 c 0
 542 -112 491 -69 485 -11 c 0
 434 486 295 742 65 1106 c 0
 53 1124 48 1145 48 1165 c 0
EndSplineSet
PairPos2: "'kern' Horizontal Kerning in Arabic lookup 3 per glyph data 0" uni0660 dx=-89 dy=0 dh=-89 dv=0 dx=0 dy=0 dh=0 dv=0
PairPos2: "'kern' Horizontal Kerning in Arabic lookup 3 per glyph data 0" uni0665 dx=-89 dy=0 dh=-89 dv=0 dx=0 dy=0 dh=0 dv=0
PairPos2: "'kern' Horizontal Kerning in Arabic lookup 3 per glyph data 0" uni0668 dx=-134 dy=0 dh=-134 dv=0 dx=0 dy=0 dh=0 dv=0
PairPos2: "'kern' Horizontal Kerning in Arabic lookup 3 per glyph data 0" uni066B dx=-1002 dy=0 dh=-111 dv=0 dx=0 dy=0 dh=0 dv=0
Colour: ffff
EndChar

StartChar: uni0668
Encoding: 1640 1640 283
Width: 1168
VWidth: 1823
Flags: HMW
LayerCount: 2
Fore
SplineSet
1120 -13 m 0
 1120 -70 1075 -126 1009 -126 c 0
 971 -126 933 -107 912 -73 c 0
 771 155 658 358 579 597 c 1
 503 362 397 168 256 -59 c 0
 235 -93 197 -112 159 -112 c 0
 93 -112 48 -56 48 1 c 0
 48 21 54 41 65 59 c 0
 298 434 415 677 466 1177 c 0
 471 1230 515 1278 577 1278 c 0
 633 1278 684 1235 690 1177 c 0
 741 679 871 421 1104 45 c 0
 1115 27 1120 7 1120 -13 c 0
EndSplineSet
PairPos2: "'kern' Horizontal Kerning in Arabic lookup 3 per glyph data 0" uni0663 dx=-89 dy=0 dh=-89 dv=0 dx=0 dy=0 dh=0 dv=0
PairPos2: "'kern' Horizontal Kerning in Arabic lookup 3 per glyph data 0" uni0662 dx=-89 dy=0 dh=-89 dv=0 dx=0 dy=0 dh=0 dv=0
PairPos2: "'kern' Horizontal Kerning in Arabic lookup 3 per glyph data 0" uni0667 dx=-134 dy=0 dh=-134 dv=0 dx=0 dy=0 dh=0 dv=0
Colour: ffff
EndChar

StartChar: uni0669
Encoding: 1641 1641 284
Width: 1022
VWidth: 2315
Flags: HMW
LayerCount: 2
Fore
SplineSet
954 1 m 0
 954 -55 910 -112 843 -112 c 0
 802 -112 762 -90 742 -52 c 0
 668 89 642 262 627 462 c 1
 598 456 548 452 484 452 c 0
 284 452 48 546 48 823 c 0
 48 1020 161 1312 451 1312 c 0
 762 1312 828 1005 836 776 c 0
 838 708 841 644 844 583 c 0
 857 342 885 161 942 52 c 0
 951 36 954 18 954 1 c 0
484 678 m 0
 536 678 568 685 599 685 c 0
 604 685 609 684 614 684 c 1
 613 711 612 740 611 768 c 0
 602 1007 550 1086 451 1086 c 0
 353 1086 272 972 272 823 c 0
 272 718 328 678 484 678 c 0
EndSplineSet
PairPos2: "'kern' Horizontal Kerning in Arabic lookup 3 per glyph data 0" uni066B dx=-67 dy=0 dh=-67 dv=0 dx=0 dy=0 dh=0 dv=0
PairPos2: "'kern' Horizontal Kerning in Arabic lookup 3 per glyph data 0" uni0668 dx=-134 dy=0 dh=-134 dv=0 dx=0 dy=0 dh=0 dv=0
PairPos2: "'kern' Horizontal Kerning in Arabic lookup 3 per glyph data 0" uni0665 dx=-45 dy=0 dh=-45 dv=0 dx=0 dy=0 dh=0 dv=0
Colour: ffff
EndChar

StartChar: uni06F4
Encoding: 1780 1780 290
Width: 1118
VWidth: 2370
Flags: HMW
LayerCount: 2
Fore
SplineSet
938 715 m 0
 997 715 1050 668 1050 603 c 0
 1050 546 1006 497 949 491 c 0
 904 486 862 486 824 486 c 0
 684 486 564 510 463 551 c 1
 506 376 521 194 521 0 c 0
 521 -61 469 -112 408 -112 c 0
 347 -112 296 -61 296 -0 c 0
 296 343 249 613 85 869 c 0
 74 886 69 907 69 929 c 0
 69 988 115 1042 179 1042 c 0
 214 1042 250 1026 272 995 c 0
 301 955 331 916 366 881 c 1
 411 1099 541 1284 792 1352 c 0
 802 1355 811 1355 821 1355 c 0
 878 1355 934 1312 934 1244 c 0
 934 1195 902 1147 852 1134 c 0
 670 1085 587 955 574 748 c 1
 642 724 724 710 824 710 c 0
 861 710 900 715 938 715 c 0
EndSplineSet
PairPos2: "'kern' Horizontal Kerning in Arabic lookup 3 per glyph data 1" uni06F0 dx=100 dy=0 dh=100 dv=0 dx=0 dy=0 dh=0 dv=0
PairPos2: "'kern' Horizontal Kerning in Arabic lookup 3 per glyph data 1" uni06F8 dx=-111 dy=0 dh=-111 dv=0 dx=0 dy=0 dh=0 dv=0
Colour: ffff
EndChar

StartChar: uni06F5
Encoding: 1781 1781 291
Width: 1155
VWidth: 2370
Flags: HMW
LayerCount: 2
Fore
SplineSet
592 844 m 1
 422 719 272 530 272 317 c 0
 272 147 343 126 378 126 c 0
 402 126 441 139 478 196 c 0
 497 225 534 247 572 247 c 0
 605 247 637 233 659 206 c 0
 709 145 762 124 772 124 c 0
 802 124 882 165 882 342 c 0
 882 500 753 689 592 844 c 1
254 1169 m 0
 254 1234 309 1281 367 1281 c 0
 388 1281 409 1275 428 1262 c 0
 478 1229 545 1181 617 1122 c 1
 628 1125 638 1127 649 1127 c 0
 707 1127 762 1082 762 1014 c 0
 762 1007 762 1001 761 994 c 1
 930 829 1108 604 1108 342 c 0
 1108 111 986 -102 772 -102 c 0
 696 -102 630 -67 577 -27 c 1
 518 -74 449 -100 378 -100 c 0
 187 -100 48 73 48 317 c 0
 48 615 234 847 417 994 c 1
 374 1027 335 1054 304 1075 c 0
 272 1096 254 1132 254 1169 c 0
EndSplineSet
PairPos2: "'kern' Horizontal Kerning in Arabic lookup 3 per glyph data 1" uni06F2 dx=-22 dy=0 dh=-22 dv=0 dx=0 dy=0 dh=0 dv=0
PairPos2: "'kern' Horizontal Kerning in Arabic lookup 3 per glyph data 1" uni06F3 dx=-22 dy=0 dh=-22 dv=0 dx=0 dy=0 dh=0 dv=0
PairPos2: "'kern' Horizontal Kerning in Arabic lookup 3 per glyph data 1" uni06F7 dx=-89 dy=0 dh=-89 dv=0 dx=0 dy=0 dh=0 dv=0
PairPos2: "'kern' Horizontal Kerning in Arabic lookup 3 per glyph data 1" uni06F9 dx=-67 dy=0 dh=-67 dv=0 dx=0 dy=0 dh=0 dv=0
Colour: ffff
EndChar

StartChar: uni06F6
Encoding: 1782 1782 292
Width: 976
VWidth: 2370
Flags: HMW
LayerCount: 2
Fore
SplineSet
795 1135 m 0
 795 1071 740 1024 682 1024 c 0
 659 1024 636 1031 616 1046 c 0
 576 1076 537 1086 501 1086 c 0
 391 1086 272 971 272 839 c 0
 272 735 362 668 528 668 c 0
 617 668 692 690 772 724 c 0
 786 730 801 732 815 732 c 0
 870 732 928 690 928 623 c 0
 928 578 899 536 867 520 c 0
 591 380 423 198 285 -54 c 0
 265 -91 225 -112 185 -112 c 0
 118 -112 74 -56 74 1 c 0
 74 19 78 37 87 54 c 0
 169 205 266 339 389 457 c 1
 220 493 48 616 48 839 c 0
 48 1089 253 1312 501 1312 c 0
 585 1312 672 1284 750 1226 c 0
 779 1204 795 1170 795 1135 c 0
EndSplineSet
Colour: ffff
EndChar

StartChar: uni066B
Encoding: 1643 1643 296
Width: 454
VWidth: 1823
Flags: HMW
LayerCount: 2
Fore
SplineSet
355 616 m 0
 423 616 466 559 466 503 c 0
 466 488 463 474 457 460 c 2
 75 -427 l 2
 57 -469 15 -495 -29 -495 c 0
 -97 -495 -140 -438 -140 -382 c 0
 -140 -367 -137 -353 -131 -339 c 2
 251 548 l 2
 269 590 311 616 355 616 c 0
EndSplineSet
PairPos2: "'kern' Horizontal Kerning in Arabic lookup 3 per glyph data 1" uni06F7 dx=-89 dy=0 dh=-89 dv=0 dx=0 dy=0 dh=0 dv=0
PairPos2: "'kern' Horizontal Kerning in Arabic lookup 3 per glyph data 1" uni06F0 dx=-45 dy=0 dh=-45 dv=0 dx=0 dy=0 dh=0 dv=0
PairPos2: "'kern' Horizontal Kerning in Arabic lookup 3 per glyph data 1" uni06F3 dx=-67 dy=0 dh=-67 dv=0 dx=0 dy=0 dh=0 dv=0
PairPos2: "'kern' Horizontal Kerning in Arabic lookup 3 per glyph data 1" uni06F2 dx=-89 dy=0 dh=-89 dv=0 dx=0 dy=0 dh=0 dv=0
PairPos2: "'kern' Horizontal Kerning in Arabic lookup 3 per glyph data 0" uni0663 dx=-134 dy=0 dh=-134 dv=0 dx=0 dy=0 dh=0 dv=0
PairPos2: "'kern' Horizontal Kerning in Arabic lookup 3 per glyph data 0" uni0662 dx=-89 dy=0 dh=-89 dv=0 dx=0 dy=0 dh=0 dv=0
PairPos2: "'kern' Horizontal Kerning in Arabic lookup 3 per glyph data 1" uni066B dx=-45 dy=0 dh=-45 dv=0 dx=0 dy=0 dh=0 dv=0
PairPos2: "'kern' Horizontal Kerning in Arabic lookup 3 per glyph data 0" uni0667 dx=-89 dy=0 dh=-89 dv=0 dx=0 dy=0 dh=0 dv=0
Colour: ffff
EndChar

StartChar: uni060C
Encoding: 1548 1548 298
Width: 644
VWidth: 1839
Flags: HMW
LayerCount: 2
Fore
SplineSet
351 654 m 0
 378 654 401 631 401 604 c 0
 401 591 396 578 386 568 c 0
 329 513 282 438 255 356 c 1
 282 371 310 377 335 377 c 0
 454 377 514 261 514 168 c 0
 514 75 460 -35 335 -35 c 0
 211 -35 130 66 130 204 c 0
 130 242 134 279 141 316 c 0
 166 442 230 557 316 640 c 0
 326 649 338 654 351 654 c 0
335 277 m 0
 288 277 290 233 248 233 c 0
 242 233 237 234 231 236 c 1
 230 225 230 214 230 204 c 0
 230 102 275 65 335 65 c 0
 386 65 414 103 414 168 c 0
 414 231 376 277 335 277 c 0
EndSplineSet
Colour: ffff00
EndChar

StartChar: quoteleft
Encoding: 8216 8216 300
Width: 644
VWidth: 1424
Flags: HMW
LayerCount: 2
Fore
SplineSet
401 825 m 0
 401 798 378 775 351 775 c 0
 338 775 326 780 316 789 c 0
 230 872 166 987 141 1113 c 0
 134 1150 130 1187 130 1225 c 0
 130 1363 211 1464 335 1464 c 0
 460 1464 514 1354 514 1261 c 0
 514 1168 454 1052 335 1052 c 0
 310 1052 282 1058 255 1073 c 1
 282 991 329 916 386 861 c 0
 396 851 401 838 401 825 c 0
248 1196 m 0
 289 1196 288 1152 335 1152 c 0
 376 1152 414 1198 414 1261 c 0
 414 1326 386 1364 335 1364 c 0
 275 1364 230 1327 230 1225 c 0
 230 1215 230 1204 231 1193 c 1
 237 1195 242 1196 248 1196 c 0
EndSplineSet
Colour: ffff00
EndChar

StartChar: uni061F
Encoding: 1567 1567 311
Width: 1105
VWidth: 0
Flags: HMW
LayerCount: 2
Fore
SplineSet
430 89 m 0
 430 172 497 246 587 246 c 0
 674 246 744 176 744 89 c 0
 744 0 671 -68 587 -68 c 0
 501 -68 430 2 430 89 c 0
817 796 m 0
 751 796 706 852 706 909 c 0
 706 928 711 948 721 966 c 0
 726 974 742 1027 742 1066 c 0
 742 1153 688 1204 617 1204 c 0
 451 1204 362 1063 362 983 c 0
 362 964 402 908 496 828 c 0
 596 742 712 634 712 466 c 0
 712 405 661 354 599 354 c 0
 539 354 489 403 487 463 c 0
 485 522 449 573 350 658 c 0
 274 724 138 820 138 983 c 0
 138 1185 319 1428 617 1428 c 0
 818 1428 968 1265 968 1066 c 0
 968 955 933 796 817 796 c 0
EndSplineSet
Colour: ffff
EndChar

StartChar: section
Encoding: 167 167 313
Width: 916
VWidth: 2426
Flags: HMW
LayerCount: 2
Fore
SplineSet
872 1160 m 0
 872 1103 828 1047 761 1047 c 0
 709 1047 661 1083 650 1135 c 0
 638 1189 579 1234 472 1234 c 0
 367 1234 279 1155 272 1099 c 1
 274 1023 318 1001 481 984 c 0
 634 968 878 883 878 632 c 0
 878 538 841 475 786 434 c 1
 841 379 878 306 878 209 c 0
 878 -50 595 -98 457 -98 c 0
 299 -98 172 -38 80 35 c 0
 52 57 38 90 38 123 c 0
 38 187 92 235 151 235 c 0
 176 235 200 227 220 211 c 0
 282 162 355 128 457 128 c 0
 599 128 654 180 654 209 c 0
 654 269 558 340 431 353 c 0
 296 367 46 428 46 673 c 0
 46 759 84 826 140 874 c 1
 85 924 46 997 46 1104 c 0
 46 1106 47 1110 47 1113 c 0
 64 1329 281 1458 472 1458 c 0
 629 1458 826 1385 870 1183 c 0
 872 1175 872 1168 872 1160 c 0
449 578 m 1
 611 579 654 618 654 632 c 0
 654 692 592 744 463 759 c 1
 332 757 270 677 270 673 c 0
 270 636 315 593 449 578 c 1
EndSplineSet
Colour: ffff
EndChar

StartChar: uni00B2
Encoding: 178 178 314
Width: 718
VWidth: 2426
Flags: HMW
LayerCount: 2
Fore
SplineSet
180 1248 m 0
 153 1248 130 1271 130 1298 c 0
 130 1414 211 1527 343 1527 c 0
 459 1527 538 1435 538 1327 c 0
 538 1190 458 1113 373 1031 c 2
 318 978 l 1
 535 990 l 2
 536 990 537 990 538 990 c 0
 565 990 588 968 588 940 c 0
 588 914 567 891 541 890 c 2
 190 871 l 2
 189 871 188 871 187 871 c 0
 159 871 137 895 137 921 c 0
 137 934 142 947 152 957 c 2
 303 1103 l 2
 392 1189 438 1236 438 1327 c 0
 438 1387 401 1427 343 1427 c 0
 277 1427 230 1372 230 1298 c 0
 230 1271 207 1248 180 1248 c 0
EndSplineSet
Colour: ffff00
EndChar

StartChar: uni00B3
Encoding: 179 179 315
Width: 664
VWidth: 2426
Flags: HMW
LayerCount: 2
Fore
SplineSet
209 1298 m 0
 179 1298 159 1323 159 1348 c 0
 159 1351 159 1356 160 1359 c 0
 177 1437 245 1509 343 1509 c 0
 444 1509 518 1421 518 1326 c 0
 518 1276 493 1235 461 1207 c 1
 503 1180 532 1135 534 1077 c 0
 534 945 424 870 310 870 c 0
 254 870 195 888 149 925 c 0
 137 935 130 949 130 964 c 0
 130 992 154 1014 180 1014 c 0
 191 1014 203 1010 212 1003 c 0
 238 982 274 970 310 970 c 0
 384 970 433 1012 434 1075 c 0
 432 1114 401 1139 343 1139 c 0
 315 1139 284 1127 258 1127 c 0
 232 1127 208 1148 208 1177 c 0
 208 1214 239 1224 271 1231 c 0
 295 1237 320 1244 342 1253 c 0
 397 1275 418 1299 418 1326 c 0
 418 1373 382 1409 343 1409 c 0
 299 1409 267 1377 258 1337 c 0
 253 1314 232 1298 209 1298 c 0
EndSplineSet
Colour: ffff00
EndChar

StartChar: eth
Encoding: 240 240 316
Width: 1089
VWidth: 2426
Flags: HMW
LayerCount: 2
Fore
SplineSet
145 1421 m 0
 145 1489 202 1532 258 1532 c 0
 271 1532 284 1530 297 1525 c 0
 396 1487 484 1441 560 1390 c 1
 653 1446 742 1492 807 1513 c 0
 818 1517 830 1518 841 1518 c 0
 897 1518 954 1475 954 1407 c 0
 954 1359 924 1314 877 1299 c 0
 850 1290 803 1267 748 1235 c 1
 974 1003 1052 720 1052 525 c 0
 1052 149 819 -98 523 -98 c 0
 243 -98 38 152 38 427 c 0
 38 718 259 966 565 966 c 0
 626 966 678 915 678 854 c 0
 678 793 626 742 565 742 c 0
 391 742 262 604 262 427 c 0
 262 256 389 128 523 128 c 0
 677 128 826 241 826 525 c 0
 826 677 763 917 553 1111 c 1
 446 1039 348 965 312 925 c 0
 290 901 259 888 228 888 c 0
 166 888 116 940 116 1000 c 0
 116 1027 125 1054 144 1075 c 0
 189 1125 266 1190 353 1253 c 1
 311 1276 266 1296 217 1315 c 0
 173 1332 145 1376 145 1421 c 0
EndSplineSet
Colour: ffff
EndChar

StartChar: uni06DD
Encoding: 1757 1757 327
Width: 2048
VWidth: 0
Flags: H
LayerCount: 2
Back
SplineSet
236 -240 m 0
 1971 -240 l 1032
933 -410 m 0
 933 -316 1009 -240 1103 -240 c 0
 1197 -240 1273 -316 1273 -410 c 0
 1273 -504 1197 -580 1103 -580 c 0
 1009 -580 933 -504 933 -410 c 0
1103 -580 m 1024
427 -580 m 0
 1779 -580 l 1024
933 -750 m 0
 933 -656 1009 -580 1103 -580 c 0
 1197 -580 1273 -656 1273 -750 c 0
 1273 -844 1197 -920 1103 -920 c 0
 1009 -920 933 -844 933 -750 c 0
156 213 m 0
 156 838 580 1346 1103 1346 c 0
 1626 1346 2050 838 2050 213 c 0
 2050 -412 1626 -920 1103 -920 c 0
 580 -920 156 -412 156 213 c 0
EndSplineSet
EndChar

StartChar: uni06DE
Encoding: 1758 1758 328
Width: 2048
VWidth: 0
Flags: H
LayerCount: 2
Back
SplineSet
888 716 m 4
 888 860 1004 976 1148 976 c 4
 1292 976 1408 860 1408 716 c 4
 1408 572 1292 456 1148 456 c 4
 1004 456 888 572 888 716 c 4
1136 1694 m 5
 2134 696 l 5
 1144 -294 l 5
 146 704 l 5
 1136 1694 l 5
434 1400 m 5
 1846 1400 l 5
 1846 0 l 5
 434 0 l 5
 434 1400 l 5
EndSplineSet
EndChar

StartChar: uniE008
Encoding: 57352 57352 329
Width: 250
VWidth: 1437
Flags: HMW
LayerCount: 2
Fore
SplineSet
-112 45 m 0
 -112 106 -61 158 0 158 c 2
 250 158 l 2
 311 158 362 106 362 45 c 0
 362 -16 311 -68 250 -68 c 2
 0 -68 l 2
 -61 -68 -112 -16 -112 45 c 0
EndSplineSet
Colour: ffff
EndChar

StartChar: uniE009
Encoding: 57353 57353 330
Width: 150
VWidth: 1437
Flags: HMW
LayerCount: 2
Fore
SplineSet
-112 45 m 0
 -112 106 -61 158 0 158 c 2
 150 158 l 2
 211 158 262 106 262 45 c 0
 262 -16 211 -68 150 -68 c 2
 0 -68 l 2
 -61 -68 -112 -16 -112 45 c 0
EndSplineSet
Colour: ffff
EndChar

StartChar: underscore
Encoding: 95 95 331
Width: 600
VWidth: 1823
Flags: HMW
LayerCount: 2
Fore
SplineSet
712 45 m 0
 712 -16 661 -68 600 -68 c 2
 0 -68 l 2
 -61 -68 -112 -16 -112 45 c 0
 -112 106 -61 158 0 158 c 2
 600 158 l 2
 661 158 712 106 712 45 c 0
EndSplineSet
Colour: ffff
EndChar

StartChar: seven
Encoding: 55 55 332
Width: 1080
VWidth: 2426
Flags: HMW
LayerCount: 2
Fore
SplineSet
160 1153 m 0
 101 1153 48 1201 48 1265 c 0
 48 1322 93 1372 151 1377 c 2
 778 1428 l 2
 802 1432 823 1432 843 1432 c 0
 876 1432 932 1432 982 1385 c 0
 1016 1353 1032 1306 1032 1265 c 0
 1032 1227 1024 1190 1006 1154 c 0
 829 801 726 429 653 -18 c 0
 644 -73 596 -112 542 -112 c 0
 476 -112 430 -58 430 0 c 0
 430 6 430 12 431 18 c 0
 503 458 605 837 779 1202 c 1
 169 1153 l 2
 166 1153 163 1153 160 1153 c 0
EndSplineSet
Colour: ffff
EndChar

StartChar: nine
Encoding: 57 57 333
Width: 1208
VWidth: 2426
Flags: HMW
LayerCount: 2
Fore
SplineSet
575 594 m 0
 670 594 760 617 833 650 c 1
 841 696 846 749 846 795 c 0
 846 1114 693 1200 556 1200 c 0
 380 1200 272 1061 272 886 c 0
 272 667 403 594 575 594 c 0
1071 769 m 1
 1120 758 1160 714 1160 659 c 0
 1160 595 1105 557 1065 527 c 0
 1054 519 1042 510 1030 502 c 1
 956 241 795 5 534 -108 c 0
 520 -114 505 -117 490 -117 c 0
 434 -117 377 -74 377 -6 c 0
 377 38 402 80 444 98 c 0
 571 153 672 257 742 386 c 1
 689 375 632 370 575 370 c 0
 321 370 48 523 48 886 c 0
 48 1153 232 1426 556 1426 c 0
 829 1426 1072 1208 1072 795 c 0
 1072 786 1071 778 1071 769 c 1
EndSplineSet
Colour: ffff
EndChar

StartChar: uniFD3E
Encoding: 64830 64830 334
Width: 866
VWidth: 0
Flags: HMW
LayerCount: 2
Fore
SplineSet
569 1480 m 0
 636 1480 680 1423 680 1367 c 0
 680 1351 677 1334 669 1318 c 0
 607 1193 565 1080 539 964 c 1
 568 972 598 976 629 976 c 0
 742 976 828 883 828 774 c 0
 828 689 764 640 721 619 c 1
 737 591 746 559 746 524 c 0
 746 356 566 354 554 354 c 0
 551 354 549 354 546 354 c 1
 573 230 614 106 669 -6 c 0
 677 -22 680 -38 680 -55 c 0
 680 -111 636 -168 569 -168 c 0
 527 -168 486 -145 467 -106 c 0
 399 32 350 182 321 331 c 1
 294 323 266 318 237 318 c 0
 154 318 78 387 78 476 c 0
 78 536 96 593 129 637 c 1
 80 675 38 740 38 819 c 0
 38 968 188 992 234 992 c 0
 262 992 289 988 314 980 c 1
 343 1129 394 1270 467 1418 c 0
 486 1457 527 1480 569 1480 c 0
EndSplineSet
Colour: ffff
EndChar

StartChar: uniFD3F
Encoding: 64831 64831 335
Width: 861
VWidth: 0
Flags: HMW
LayerCount: 2
Fore
SplineSet
178 1367 m 0
 178 1423 222 1480 289 1480 c 0
 331 1480 372 1457 391 1418 c 0
 466 1265 519 1118 547 963 c 1
 573 971 601 976 630 976 c 0
 707 976 824 921 824 792 c 0
 824 723 789 661 742 625 c 1
 766 587 780 540 780 493 c 0
 780 351 644 318 593 318 c 0
 574 318 555 320 537 325 c 1
 507 177 459 32 391 -106 c 0
 372 -145 331 -168 289 -168 c 0
 222 -168 178 -111 178 -55 c 0
 178 -39 181 -22 189 -6 c 0
 242 101 282 213 308 328 c 1
 307 328 306 328 305 328 c 0
 215 328 118 403 118 526 c 0
 118 560 126 594 142 622 c 1
 98 645 38 698 38 781 c 0
 38 902 139 986 247 986 c 0
 271 986 294 983 316 978 c 1
 290 1089 248 1198 189 1318 c 0
 181 1334 178 1351 178 1367 c 0
EndSplineSet
Colour: ffff
EndChar

StartChar: dollar
Encoding: 36 36 336
Width: 1182
VWidth: 1823
Flags: HMW
LayerCount: 2
Fore
SplineSet
575 1732 m 0
 636 1732 688 1680 688 1619 c 2
 688 -142 l 2
 688 -203 636 -254 575 -254 c 0
 514 -254 462 -203 462 -142 c 2
 462 1619 l 2
 462 1680 514 1732 575 1732 c 0
EndSplineSet
Refer: 31 83 N 1 0 0 1 0 0 2
Colour: ffff
EndChar

StartChar: ampersand
Encoding: 38 38 337
Width: 1374
VWidth: 2426
Flags: HMW
LayerCount: 2
Fore
SplineSet
537 821 m 1
 726 901 840 954 840 1095 c 0
 840 1188 765 1248 659 1248 c 0
 551 1248 460 1184 460 1063 c 0
 460 996 486 912 537 821 c 1
461 532 m 1
 393 487 362 447 362 364 c 0
 362 216 478 128 639 128 c 0
 698 128 761 138 818 156 c 1
 696 266 567 394 461 532 c 1
1124 -67 m 0
 1074 -67 1040 -32 1009 -7 c 1
 898 -66 767 -98 639 -98 c 0
 394 -98 138 62 138 364 c 0
 138 533 229 649 336 720 c 1
 276 828 234 943 234 1063 c 0
 234 1332 459 1474 659 1474 c 0
 849 1474 1066 1344 1066 1095 c 0
 1066 810 829 702 668 633 c 1
 769 509 895 387 1011 285 c 1
 1013 288 1015 291 1016 293 c 0
 1036 331 1075 352 1116 352 c 0
 1183 352 1227 296 1227 239 c 0
 1227 198 1204 165 1185 140 c 1
 1215 116 1236 85 1236 45 c 0
 1236 -19 1183 -67 1124 -67 c 0
EndSplineSet
Colour: ffff
EndChar

StartChar: question
Encoding: 63 63 338
Width: 1155
VWidth: 0
Flags: HMW
LayerCount: 2
Fore
SplineSet
686 89 m 0
 686 3 617 -68 530 -68 c 0
 447 -68 372 -1 372 89 c 0
 372 176 443 246 530 246 c 0
 619 246 686 173 686 89 c 0
409 924 m 0
 409 868 365 811 298 811 c 0
 257 811 217 833 197 871 c 0
 158 946 138 1023 138 1097 c 0
 138 1332 341 1474 581 1474 c 0
 830 1474 1018 1298 1018 1058 c 0
 1018 858 859 738 755 652 c 0
 650 564 642 561 642 469 c 0
 642 452 649 435 649 418 c 0
 649 362 606 305 538 305 c 0
 490 305 445 336 430 383 c 0
 420 413 416 443 416 469 c 0
 416 642 505 735 611 824 c 0
 729 922 792 992 792 1058 c 0
 792 1170 722 1248 581 1248 c 0
 417 1248 362 1176 362 1097 c 0
 362 1065 372 1024 397 975 c 0
 405 959 409 941 409 924 c 0
EndSplineSet
Colour: ffff
EndChar

StartChar: at
Encoding: 64 64 339
Width: 2213
VWidth: 2426
Flags: HMW
LayerCount: 2
Fore
SplineSet
1367 755 m 1
 1296 794 1223 812 1152 812 c 0
 965 812 780 652 780 372 c 0
 780 224 872 128 1021 128 c 0
 1207 128 1300 295 1326 470 c 2
 1367 755 l 1
1619 -212 m 0
 1676 -212 1732 -257 1732 -323 c 0
 1732 -361 1713 -399 1679 -420 c 0
 1519 -519 1331 -578 1129 -578 c 0
 565 -578 88 -183 88 400 c 0
 88 973 580 1508 1162 1508 c 0
 1681 1508 2126 1101 2126 564 c 0
 2126 336 2014 -86 1674 -86 c 0
 1548 -86 1457 -15 1398 80 c 1
 1315 -22 1194 -98 1021 -98 c 0
 748 -98 556 110 556 372 c 0
 556 758 827 1036 1152 1036 c 0
 1289 1036 1430 992 1555 902 c 0
 1585 880 1601 844 1601 810 c 0
 1601 805 1601 800 1600 795 c 2
 1549 445 l 2
 1548 418 1544 389 1544 362 c 0
 1544 229 1635 138 1674 138 c 0
 1778 138 1900 346 1900 564 c 0
 1900 969 1565 1282 1162 1282 c 0
 718 1282 312 853 312 400 c 0
 312 -43 667 -352 1129 -352 c 0
 1287 -352 1435 -307 1561 -228 c 0
 1579 -217 1599 -212 1619 -212 c 0
EndSplineSet
Colour: ffff
EndChar

StartChar: b
Encoding: 98 98 340
Width: 1163
VWidth: 1823
Flags: HMW
LayerCount: 2
Fore
SplineSet
242 1473 m 0
 306 1473 356 1419 354 1357 c 2
 344 1033 l 1
 424 1085 517 1114 618 1114 c 0
 985 1114 1116 769 1116 495 c 0
 1116 172 857 -98 515 -98 c 0
 458 -98 402 -91 346 -76 c 0
 319 -69 297 -52 282 -31 c 1
 261 -53 232 -67 200 -67 c 0
 136 -67 86 -13 88 49 c 2
 130 1365 l 2
 132 1425 182 1473 242 1473 c 0
315 129 m 1
 333 140 354 145 375 145 c 0
 384 145 394 144 403 142 c 0
 439 133 478 128 515 128 c 0
 733 128 890 294 890 495 c 0
 890 729 797 888 618 888 c 0
 498 888 404 833 335 679 c 0
 334 678 334 676 333 675 c 2
 315 129 l 1
EndSplineSet
Colour: ffff
EndChar

StartChar: d
Encoding: 100 100 341
Width: 1197
VWidth: 2426
Flags: HMW
LayerCount: 2
Fore
SplineSet
1017 -67 m 0
 948 -67 910 -6 885 43 c 1
 798 -40 683 -98 537 -98 c 0
 220 -98 48 166 48 465 c 0
 48 747 215 1112 567 1112 c 0
 664 1112 761 1078 848 1011 c 1
 858 1364 l 2
 860 1425 910 1473 970 1473 c 0
 1036 1473 1083 1417 1082 1358 c 2
 1064 510 l 1
 1064 204 1079 148 1104 117 c 0
 1121 96 1129 70 1129 45 c 0
 1129 -14 1080 -67 1017 -67 c 0
839 379 m 1
 839 396 838 413 838 432 c 2
 838 512 l 1
 840 586 l 2
 838 595 838 604 838 613 c 2
 841 759 l 2
 839 759 837 759 835 759 c 0
 805 759 775 771 753 794 c 0
 687 865 624 886 567 886 c 0
 407 886 272 693 272 465 c 0
 272 242 374 128 537 128 c 0
 683 128 787 235 839 379 c 1
EndSplineSet
Colour: ffff
EndChar

StartChar: h
Encoding: 104 104 342
Width: 1126
VWidth: 2426
Flags: HMW
LayerCount: 2
Fore
SplineSet
297 1498 m 0
 361 1498 409 1446 409 1386 c 2
 409 1378 l 1
 382 992 l 1
 454 1066 543 1112 654 1112 c 0
 964 1112 1028 825 1028 626 c 0
 1028 489 1000 359 1000 227 c 0
 1000 154 1009 89 1029 45 c 0
 1035 31 1038 16 1038 1 c 0
 1038 -55 995 -112 927 -112 c 0
 884 -112 841 -87 823 -45 c 0
 784 43 774 136 774 227 c 0
 774 363 802 492 802 626 c 0
 802 817 764 888 654 888 c 0
 558 888 435 723 340 387 c 1
 312 -8 l 2
 308 -67 258 -112 200 -112 c 0
 136 -112 88 -60 88 0 c 2
 88 8 l 1
 185 1394 l 2
 189 1453 239 1498 297 1498 c 0
EndSplineSet
Colour: ffff
EndChar

StartChar: k
Encoding: 107 107 345
Width: 1019
VWidth: 2426
Flags: HMW
LayerCount: 2
Fore
SplineSet
260 1473 m 0
 323 1473 372 1421 372 1361 c 2
 372 1356 l 1
 345 736 l 1
 476 825 598 933 687 1042 c 0
 709 1069 741 1083 774 1083 c 0
 837 1083 886 1030 886 971 c 0
 886 946 878 921 861 900 c 0
 742 755 583 617 409 509 c 1
 559 355 748 196 916 97 c 0
 951 76 971 38 971 -1 c 0
 971 -67 915 -112 858 -112 c 0
 839 -112 820 -107 802 -97 c 0
 638 -1 471 135 325 275 c 1
 312 -1 l 2
 309 -61 259 -108 200 -108 c 0
 137 -108 88 -56 88 4 c 2
 88 9 l 1
 148 1366 l 2
 151 1426 201 1473 260 1473 c 0
EndSplineSet
Colour: ffff
EndChar

StartChar: l
Encoding: 108 108 346
Width: 419
VWidth: 2426
Flags: HMW
LayerCount: 2
Fore
SplineSet
219 1462 m 0
 282 1462 331 1410 331 1350 c 2
 331 1345 l 1
 315 1012 313 412 313 18 c 0
 313 12 313 6 313 0 c 0
 313 -61 261 -112 200 -112 c 0
 139 -112 88 -61 88 -0 c 2
 88 19 l 2
 88 414 91 1013 107 1355 c 0
 110 1415 160 1462 219 1462 c 0
EndSplineSet
Colour: ffff
EndChar

StartChar: m
Encoding: 109 109 347
Width: 1582
VWidth: 2426
Flags: HMW
LayerCount: 2
Fore
SplineSet
107 987 m 0
 107 1044 151 1100 218 1100 c 0
 266 1100 311 1070 326 1024 c 1
 391 1081 467 1114 550 1114 c 0
 702 1114 791 1046 844 953 c 1
 918 1049 1019 1114 1142 1114 c 0
 1423 1114 1490 832 1490 651 c 0
 1490 516 1474 301 1474 169 c 0
 1474 115 1480 69 1491 29 c 0
 1494 19 1495 11 1495 1 c 0
 1495 -56 1451 -112 1383 -112 c 0
 1333 -112 1287 -79 1274 -29 c 0
 1257 35 1250 101 1250 169 c 0
 1250 305 1264 515 1264 651 c 0
 1264 822 1213 888 1142 888 c 0
 1073 888 931 743 919 516 c 1
 918 349 906 151 893 -9 c 0
 888 -67 838 -112 781 -112 c 0
 717 -112 669 -59 669 0 c 0
 669 3 669 6 669 9 c 0
 683 174 694 386 694 549 c 0
 694 791 667 888 550 888 c 0
 510 888 389 826 359 591 c 0
 358 567 356 541 354 516 c 2
 312 -1 l 2
 307 -59 258 -104 200 -104 c 0
 136 -104 88 -51 88 8 c 0
 88 11 88 14 88 17 c 2
 130 534 l 2
 134 584 136 632 136 678 c 0
 136 794 124 895 109 964 c 0
 107 972 107 979 107 987 c 0
EndSplineSet
Colour: ffff
EndChar

StartChar: n
Encoding: 110 110 348
Width: 1126
VWidth: 2426
Flags: HMW
LayerCount: 2
Fore
SplineSet
213 1116 m 0
 301 1116 339 1025 354 948 c 1
 435 1046 541 1112 681 1112 c 0
 992 1112 1026 788 1026 609 c 0
 1026 485 1000 347 1000 221 c 0
 1000 150 1009 90 1029 45 c 0
 1035 31 1038 16 1038 1 c 0
 1038 -55 995 -112 927 -112 c 0
 884 -112 841 -87 823 -45 c 0
 784 42 776 134 776 221 c 0
 776 348 800 486 800 609 c 0
 800 816 762 888 681 888 c 0
 556 888 438 714 350 398 c 1
 339 255 324 111 312 -11 c 0
 306 -68 257 -112 200 -112 c 0
 135 -112 88 -59 88 0 c 2
 88 11 l 1
 100 130 115 271 125 408 c 1
 125 413 l 2
 125 420 126 426 127 433 c 0
 135 546 140 655 140 746 c 0
 140 843 130 919 123 937 c 1
 109 957 101 980 101 1004 c 0
 101 1063 150 1116 213 1116 c 0
EndSplineSet
Colour: ffff
EndChar

StartChar: p
Encoding: 112 112 349
Width: 1187
VWidth: 2426
Flags: HMW
LayerCount: 2
Fore
SplineSet
193 -545 m 0
 130 -545 81 -493 81 -433 c 2
 81 -428 l 1
 113 259 l 2
 114 276 115 293 116 309 c 0
 116 344 119 378 122 412 c 0
 126 480 128 544 128 603 c 0
 128 738 109 861 79 921 c 0
 71 937 68 953 68 970 c 0
 68 1026 112 1083 179 1083 c 0
 221 1083 262 1060 281 1021 c 0
 297 988 310 953 320 916 c 1
 425 1041 559 1114 698 1114 c 0
 950 1114 1140 891 1140 568 c 0
 1140 287 953 -98 436 -98 c 0
 382 -98 336 -58 326 -6 c 1
 305 -438 l 2
 302 -498 252 -545 193 -545 c 0
341 287 m 0
 341 275 339 260 337 247 c 2
 328 46 l 1
 342 93 385 128 436 128 c 0
 809 128 914 375 914 568 c 0
 914 809 796 888 698 888 c 0
 570 888 358 718 341 287 c 0
EndSplineSet
Colour: ffff
EndChar

StartChar: q
Encoding: 113 113 350
Width: 1163
VWidth: 2426
Flags: HMW
LayerCount: 2
Fore
SplineSet
963 1089 m 0
 1027 1089 1075 1037 1075 977 c 2
 1075 969 l 1
 1053 674 1042 381 1042 87 c 0
 1042 -83 1053 -254 1053 -425 c 0
 1053 -485 1003 -537 940 -537 c 0
 881 -537 830 -490 828 -430 c 0
 822 -283 818 -136 817 11 c 1
 737 -55 635 -98 506 -98 c 0
 160 -98 48 213 48 484 c 0
 48 749 179 1114 532 1114 c 0
 665 1114 776 1057 850 976 c 1
 850 979 851 982 851 985 c 0
 855 1043 905 1089 963 1089 c 0
822 434 m 1
 826 553 831 670 838 789 c 1
 821 779 801 773 780 773 c 0
 747 773 714 787 692 815 c 0
 658 858 608 888 532 888 c 0
 381 888 272 715 272 484 c 0
 272 245 346 126 506 126 c 0
 666 126 762 245 822 434 c 1
EndSplineSet
Colour: ffff
EndChar

StartChar: r
Encoding: 114 114 351
Width: 905
VWidth: 2426
Flags: HMW
LayerCount: 2
Fore
SplineSet
744 1103 m 0
 801 1103 857 1059 857 992 c 0
 857 939 819 891 766 881 c 0
 542 838 451 710 394 494 c 0
 358 355 344 158 326 -12 c 0
 320 -65 273 -112 214 -112 c 0
 152 -112 102 -61 102 0 c 0
 102 56 110 112 115 166 c 0
 123 280 128 408 128 532 c 0
 128 701 114 863 92 939 c 0
 89 949 88 960 88 970 c 0
 88 1026 131 1083 199 1083 c 0
 248 1083 294 1051 308 1003 c 0
 319 966 327 925 333 880 c 1
 424 991 555 1068 724 1101 c 0
 731 1102 737 1103 744 1103 c 0
EndSplineSet
Colour: ffff
EndChar

StartChar: u
Encoding: 117 117 352
Width: 1103
VWidth: 2426
Flags: HMW
LayerCount: 2
Fore
SplineSet
863 1083 m 0
 926 1083 975 1031 975 971 c 0
 975 969 975 967 975 965 c 0
 969 858 966 749 966 639 c 0
 966 439 969 285 1013 67 c 0
 1014 60 1016 53 1016 46 c 0
 1016 -11 971 -67 904 -67 c 0
 852 -67 804 -30 793 23 c 0
 791 34 789 44 787 54 c 1
 710 -40 604 -98 454 -98 c 0
 151 -98 88 192 88 392 c 0
 88 635 110 867 138 995 c 0
 149 1047 197 1083 249 1083 c 0
 316 1083 360 1027 360 970 c 0
 360 962 360 955 358 947 c 0
 336 847 312 619 312 392 c 0
 312 196 357 128 454 128 c 0
 610 128 690 232 742 598 c 1
 742 639 l 2
 742 753 745 866 751 977 c 0
 754 1036 804 1083 863 1083 c 0
EndSplineSet
Colour: ffff
EndChar

StartChar: asciitilde
Encoding: 126 126 353
Width: 870
VWidth: 2426
Flags: HMW
LayerCount: 2
Fore
SplineSet
114 1040 m 0
 46 1040 3 1097 3 1153 c 0
 3 1164 4 1176 8 1187 c 0
 44 1295 134 1404 279 1404 c 0
 384 1404 462 1356 517 1316 c 0
 558 1286 580 1276 602 1276 c 0
 604 1277 630 1295 659 1363 c 0
 677 1405 719 1430 763 1430 c 0
 831 1430 874 1373 874 1317 c 0
 874 1302 871 1287 865 1273 c 0
 820 1170 757 1079 648 1056 c 0
 633 1053 617 1052 602 1052 c 0
 505 1052 432 1098 383 1134 c 0
 340 1166 314 1178 279 1178 c 0
 260 1178 240 1173 222 1117 c 0
 207 1070 161 1040 114 1040 c 0
EndSplineSet
Colour: ffff
EndChar

StartChar: cent
Encoding: 162 162 356
Width: 1031
VWidth: 1823
Flags: HMW
LayerCount: 2
Fore
SplineSet
547 888 m 0
 486 888 434 940 434 1001 c 2
 434 1316 l 2
 434 1377 486 1428 547 1428 c 0
 608 1428 660 1377 660 1316 c 2
 660 1001 l 2
 660 940 608 888 547 888 c 0
547 -478 m 0
 486 -478 434 -426 434 -365 c 2
 434 15 l 2
 434 76 486 128 547 128 c 0
 608 128 660 76 660 15 c 2
 660 -365 l 2
 660 -426 608 -478 547 -478 c 0
EndSplineSet
Refer: 1 99 N 1 0 0 1 0 0 2
Colour: ffff
EndChar

StartChar: sterling
Encoding: 163 163 357
Width: 1454
VWidth: 2426
Flags: HMW
LayerCount: 2
Fore
SplineSet
350 790 m 0
 362 790 376 788 386 785 c 1
 386 1043 l 2
 386 1210 403 1427 592 1456 c 0
 602 1457 611 1458 621 1458 c 0
 774 1458 838 1315 838 1196 c 0
 838 1135 795 1084 734 1084 c 0
 686 1084 639 1113 622 1153 c 1
 614 1094 612 1020 612 939 c 2
 612 766 l 1
 706 768 800 780 878 795 c 0
 885 796 892 797 899 797 c 0
 956 797 1012 753 1012 686 c 0
 1012 633 973 585 920 575 c 0
 829 557 721 543 609 541 c 1
 604 412 589 286 544 178 c 1
 622 151 728 128 828 128 c 0
 1052 128 1177 188 1194 276 c 0
 1204 329 1252 367 1305 367 c 0
 1372 367 1417 311 1417 254 c 0
 1417 247 1416 241 1415 234 c 0
 1361 -50 1046 -98 828 -98 c 0
 652 -98 500 -47 391 -4 c 1
 342 -32 285 -46 225 -46 c 0
 196 -46 168 -41 142 -31 c 0
 100 -15 38 28 38 110 c 0
 38 239 169 256 219 256 c 0
 252 256 288 253 327 246 c 1
 360 309 378 424 384 556 c 1
 363 560 342 564 321 569 c 0
 271 582 237 629 237 679 c 0
 237 747 293 790 350 790 c 0
EndSplineSet
Colour: ffff
EndChar

StartChar: currency
Encoding: 164 164 358
Width: 1109
VWidth: 1823
Flags: HMW
LayerCount: 2
Fore
SplineSet
251 267 m 0
 313 267 363 215 363 155 c 0
 363 128 353 101 334 80 c 2
 234 -30 l 2
 212 -54 182 -67 151 -67 c 0
 89 -67 39 -15 39 45 c 0
 39 72 49 99 68 120 c 2
 167 231 l 2
 189 255 220 267 251 267 c 0
959 1082 m 0
 1021 1082 1071 1030 1071 970 c 0
 1071 943 1062 916 1043 895 c 2
 943 782 l 2
 921 757 889 744 858 744 c 0
 796 744 746 797 746 857 c 0
 746 884 755 910 774 931 c 2
 875 1045 l 2
 897 1070 928 1082 959 1082 c 0
375 848 m 0
 375 788 325 736 263 736 c 0
 233 736 202 748 180 772 c 2
 67 894 l 2
 47 915 38 943 38 970 c 0
 38 1030 88 1082 150 1082 c 0
 180 1082 211 1070 233 1046 c 2
 346 924 l 2
 366 903 375 875 375 848 c 0
1071 45 m 0
 1071 -15 1022 -67 959 -67 c 0
 927 -67 896 -54 874 -29 c 2
 754 110 l 2
 736 131 727 157 727 183 c 0
 727 243 776 296 839 296 c 0
 871 296 902 282 924 257 c 2
 1044 119 l 2
 1062 98 1071 71 1071 45 c 0
EndSplineSet
Refer: 5 111 N 1 0 0 1 0 0 2
Colour: ffff
EndChar

StartChar: brokenbar
Encoding: 166 166 360
Width: 419
VWidth: 2426
Flags: HMW
LayerCount: 2
Fore
SplineSet
219 609 m 0
 281 609 331 558 331 497 c 0
 331 316 321 142 313 -6 c 0
 310 -65 260 -112 201 -112 c 0
 138 -112 89 -60 89 0 c 0
 89 2 89 4 89 6 c 0
 97 150 103 320 107 499 c 0
 108 560 159 609 219 609 c 0
200 783 m 0
 138 783 88 834 88 895 c 0
 88 1058 92 1216 92 1361 c 0
 92 1422 143 1474 204 1474 c 0
 265 1474 316 1422 316 1361 c 0
 316 1215 316 1057 313 893 c 0
 312 832 260 783 200 783 c 0
EndSplineSet
Colour: ffff
EndChar

StartChar: dieresis
Encoding: 168 168 361
Width: 688
VWidth: 1823
Flags: HMW
LayerCount: 2
Fore
SplineSet
289 1223 m 0
 289 1164 244 1119 185 1119 c 0
 131 1119 100 1169 100 1214 c 0
 100 1266 142 1308 194 1308 c 0
 240 1308 289 1276 289 1223 c 0
588 1211 m 0
 588 1155 541 1119 493 1119 c 0
 438 1119 399 1165 399 1210 c 0
 399 1264 436 1308 486 1308 c 0
 543 1308 588 1265 588 1211 c 0
EndSplineSet
Colour: ffff00
EndChar

StartChar: ordfeminine
Encoding: 170 170 363
Width: 936
VWidth: 2426
Flags: HMW
LayerCount: 2
Fore
SplineSet
631 1427 m 1
 643 1464 654 1509 697 1509 c 0
 727 1509 747 1484 747 1459 c 0
 747 1452 745 1444 742 1437 c 0
 718 1389 682 1243 682 1134 c 0
 682 1016 719 946 756 946 c 0
 783 946 806 923 806 896 c 0
 806 869 783 846 756 846 c 0
 677 846 633 898 609 961 c 1
 563 894 494 846 394 846 c 0
 233 846 130 988 130 1156 c 0
 130 1341 252 1509 437 1509 c 0
 515 1509 585 1482 631 1427 c 1
583 1177 m 0
 584 1195 586 1212 588 1230 c 2
 588 1247 l 2
 588 1371 530 1409 437 1409 c 0
 322 1409 230 1303 230 1156 c 0
 230 1024 303 946 394 946 c 0
 505 946 566 1055 583 1177 c 0
EndSplineSet
Colour: ffff00
EndChar

StartChar: logicalnot
Encoding: 172 172 364
Width: 975
VWidth: 1823
Flags: HMW
LayerCount: 2
Fore
SplineSet
38 661 m 0
 38 722 89 774 150 774 c 2
 795 774 l 2
 863 774 908 709 908 661 c 2
 908 388 l 2
 908 327 856 276 795 276 c 0
 734 276 682 327 682 388 c 2
 682 548 l 1
 150 548 l 2
 89 548 38 600 38 661 c 0
EndSplineSet
Colour: ffff
EndChar

StartChar: degree
Encoding: 176 176 368
Width: 830
VWidth: 2426
Flags: HMW
LayerCount: 2
Fore
SplineSet
700 1398 m 0
 700 1243 559 1119 400 1119 c 0
 255 1119 130 1245 130 1391 c 0
 130 1547 265 1689 414 1689 c 0
 574 1689 700 1547 700 1398 c 0
600 1398 m 0
 600 1495 514 1589 414 1589 c 0
 327 1589 230 1493 230 1391 c 0
 230 1301 313 1219 400 1219 c 0
 511 1219 600 1307 600 1398 c 0
EndSplineSet
Colour: ffff00
EndChar

StartChar: acute
Encoding: 180 180 369
Width: 522
VWidth: 2426
Flags: HMW
LayerCount: 2
Fore
SplineSet
362 1593 m 0
 426 1593 474 1540 474 1481 c 0
 474 1456 466 1431 450 1411 c 0
 376 1318 315 1238 263 1123 c 0
 244 1082 202 1057 159 1057 c 0
 91 1057 48 1114 48 1170 c 0
 48 1185 51 1200 58 1215 c 0
 122 1356 198 1456 274 1551 c 0
 296 1579 329 1593 362 1593 c 0
EndSplineSet
Colour: ffff
EndChar

StartChar: mu
Encoding: 181 181 370
Width: 1099
VWidth: 1823
Flags: HMW
LayerCount: 2
Fore
SplineSet
997 1015 m 0
 997 899 990 728 990 587 c 0
 990 403 994 228 1011 60 c 0
 1011 56 1012 52 1012 48 c 0
 1012 -11 965 -64 900 -64 c 0
 849 -64 801 -28 789 23 c 1
 721 -50 624 -98 511 -98 c 0
 444 -98 384 -86 328 -59 c 1
 337 -192 348 -321 360 -436 c 1
 360 -447 l 2
 360 -506 313 -559 248 -559 c 0
 191 -559 142 -515 136 -458 c 0
 112 -216 88 82 88 367 c 0
 88 422 89 478 92 534 c 0
 92 662 114 795 136 905 c 0
 146 957 156 1004 168 1046 c 0
 182 1095 228 1127 277 1127 c 0
 346 1127 388 1068 388 1013 c 0
 388 1004 387 995 385 987 c 0
 351 854 328 690 318 528 c 1
 318 432 323 338 341 269 c 0
 368 169 402 128 511 128 c 0
 607 128 676 200 722 385 c 0
 745 477 758 586 765 694 c 1
 765 801 767 922 773 1022 c 0
 776 1070 820 1127 885 1127 c 0
 946 1127 997 1077 997 1015 c 0
EndSplineSet
Colour: ffff
EndChar

StartChar: paragraph
Encoding: 182 182 371
Width: 1319
VWidth: 2426
Flags: HMW
LayerCount: 2
Fore
SplineSet
620 1132 m 0
 681 1132 732 1081 732 1020 c 2
 732 421 l 1
 738 421 744 420 750 420 c 0
 770 420 790 422 810 424 c 1
 810 960 l 2
 810 1021 862 1072 923 1072 c 0
 984 1072 1036 1021 1036 960 c 2
 1036 447 l 1
 1069 429 1092 395 1092 351 c 0
 1092 311 1071 272 1036 252 c 1
 1036 -442 l 2
 1036 -503 984 -554 923 -554 c 0
 862 -554 810 -503 810 -442 c 2
 810 198 l 1
 790 196 770 196 750 196 c 0
 744 196 738 196 732 196 c 1
 732 -382 l 2
 732 -443 681 -494 620 -494 c 0
 559 -494 508 -443 508 -382 c 2
 508 235 l 1
 259 316 48 519 48 811 c 0
 48 1176 359 1458 715 1458 c 0
 941 1458 1122 1361 1244 1221 c 0
 1262 1200 1271 1173 1271 1147 c 0
 1271 1087 1222 1035 1159 1035 c 0
 1127 1035 1096 1048 1074 1073 c 0
 990 1169 875 1234 715 1234 c 0
 475 1234 272 1042 272 811 c 0
 272 668 370 544 508 476 c 1
 508 1020 l 2
 508 1081 559 1132 620 1132 c 0
EndSplineSet
Colour: ffff
EndChar

StartChar: uni00B9
Encoding: 185 185 373
Width: 526
VWidth: 2426
Flags: HMW
LayerCount: 2
Fore
SplineSet
326 783 m 0
 297 783 274 808 276 836 c 2
 309 1351 l 1
 268 1324 226 1302 179 1283 c 0
 173 1281 167 1279 161 1279 c 0
 136 1279 110 1299 110 1329 c 0
 110 1349 123 1367 142 1375 c 0
 214 1403 278 1446 333 1496 c 0
 341 1503 353 1509 366 1509 c 0
 394 1509 418 1484 416 1456 c 2
 376 830 l 2
 374 804 352 783 326 783 c 0
EndSplineSet
Colour: ffff00
EndChar

StartChar: onequarter
Encoding: 188 188 375
Width: 2006
VWidth: 1839
Flags: HMW
LayerCount: 2
Fore
SplineSet
386 408 m 0
 322 408 274 460 274 520 c 2
 274 527 l 1
 329 1365 l 1
 291 1338 256 1314 217 1292 c 0
 200 1282 180 1277 161 1277 c 0
 104 1277 48 1322 48 1388 c 0
 48 1427 68 1465 104 1486 c 0
 187 1534 272 1602 344 1669 c 0
 360 1684 392 1700 421 1700 c 2
 456 1700 l 2
 516 1700 568 1649 568 1587 c 2
 568 1580 l 1
 498 513 l 2
 494 454 444 408 386 408 c 0
1627 486 m 0
 1692 486 1739 433 1739 374 c 2
 1739 361 l 1
 1700 22 l 1
 1740 30 1781 39 1820 48 c 0
 1829 50 1837 51 1845 51 c 0
 1902 51 1959 7 1959 -60 c 0
 1959 -111 1923 -158 1872 -170 c 0
 1808 -185 1742 -200 1674 -212 c 1
 1655 -378 l 2
 1649 -435 1599 -477 1543 -477 c 0
 1478 -477 1431 -424 1431 -365 c 2
 1431 -352 l 1
 1444 -242 l 1
 1381 -247 1318 -250 1255 -250 c 0
 1219 -250 1182 -249 1140 -243 c 0
 1112 -239 1049 -232 1005 -171 c 0
 986 -145 976 -110 976 -78 c 0
 976 -22 997 13 1014 36 c 0
 1183 282 1304 521 1420 806 c 0
 1438 849 1480 876 1525 876 c 0
 1593 876 1636 819 1636 763 c 0
 1636 749 1633 735 1628 722 c 0
 1518 451 1401 214 1244 -25 c 1
 1249 -25 1251 -26 1255 -26 c 0
 1326 -26 1398 -21 1470 -13 c 1
 1515 387 l 2
 1521 444 1571 486 1627 486 c 0
485 -67 m 0
 423 -67 373 -16 373 45 c 0
 373 73 383 101 403 122 c 0
 756 496 1199 1082 1414 1469 c 0
 1434 1506 1473 1526 1513 1526 c 0
 1580 1526 1624 1470 1624 1413 c 0
 1624 1395 1619 1376 1610 1359 c 0
 1380 946 934 358 567 -32 c 0
 545 -55 515 -67 485 -67 c 0
EndSplineSet
Colour: ffff
EndChar

StartChar: onehalf
Encoding: 189 189 376
Width: 2060
VWidth: 2426
Flags: HMW
LayerCount: 2
Fore
SplineSet
386 408 m 0
 322 408 274 460 274 520 c 2
 274 527 l 1
 329 1365 l 1
 291 1338 256 1314 217 1292 c 0
 200 1282 180 1277 161 1277 c 0
 104 1277 48 1322 48 1388 c 0
 48 1427 68 1465 104 1486 c 0
 187 1534 272 1602 344 1669 c 0
 360 1684 392 1700 421 1700 c 2
 456 1700 l 2
 516 1700 568 1649 568 1587 c 2
 568 1580 l 1
 498 513 l 2
 494 454 444 408 386 408 c 0
485 -67 m 0
 423 -67 373 -16 373 45 c 0
 373 73 383 101 403 122 c 0
 756 496 1199 1081 1414 1469 c 0
 1434 1506 1473 1526 1513 1526 c 0
 1580 1526 1624 1470 1624 1413 c 0
 1624 1395 1620 1376 1611 1359 c 0
 1381 945 936 358 567 -32 c 0
 545 -55 515 -67 485 -67 c 0
1250 -447 m 2
 1188 -447 1137 -396 1137 -335 c 0
 1137 -304 1149 -274 1173 -252 c 2
 1460 9 l 2
 1462 11 1465 14 1468 16 c 0
 1655 157 1748 264 1748 424 c 0
 1748 533 1692 592 1597 592 c 0
 1487 592 1406 501 1406 370 c 0
 1406 309 1354 258 1293 258 c 0
 1232 258 1180 309 1180 370 c 0
 1180 595 1339 818 1597 818 c 0
 1830 818 1972 631 1972 424 c 0
 1972 156 1800 -16 1608 -161 c 1
 1558 -206 l 1
 1604 -206 l 2
 1703 -206 1806 -210 1906 -215 c 0
 1965 -218 2013 -268 2013 -327 c 0
 2013 -390 1960 -439 1900 -439 c 0
 1898 -439 1896 -439 1894 -439 c 0
 1796 -434 1697 -430 1604 -430 c 0
 1487 -430 1374 -435 1260 -447 c 1
 1250 -447 l 2
EndSplineSet
Colour: ffff
EndChar

StartChar: threequarters
Encoding: 190 190 377
Width: 2156
VWidth: 1839
Flags: HMW
LayerCount: 2
Fore
SplineSet
464 928 m 0
 409 928 359 902 308 902 c 0
 250 902 195 947 195 1013 c 0
 195 1065 234 1111 279 1123 c 0
 341 1139 413 1156 466 1180 c 0
 554 1219 582 1257 582 1307 c 0
 582 1429 531 1446 479 1446 c 0
 413 1446 340 1396 324 1326 c 0
 312 1274 264 1239 213 1239 c 0
 146 1239 102 1295 102 1352 c 0
 102 1360 102 1368 104 1376 c 0
 146 1564 319 1672 479 1672 c 0
 649 1672 808 1539 808 1307 c 0
 808 1213 767 1133 711 1076 c 1
 784 1021 834 931 838 829 c 1
 838 656 739 533 607 471 c 1
 589 434 550 408 506 408 c 0
 482 408 460 415 442 427 c 1
 429 426 416 426 402 426 c 0
 291 426 178 461 89 535 c 0
 62 557 48 589 48 622 c 0
 48 685 101 734 160 734 c 0
 185 734 211 726 232 709 c 0
 276 673 341 650 402 650 c 0
 533 650 611 720 612 825 c 0
 609 887 558 928 464 928 c 0
1777 486 m 0
 1842 486 1889 433 1889 374 c 2
 1889 361 l 1
 1850 22 l 1
 1890 30 1931 39 1970 48 c 0
 1979 50 1987 51 1995 51 c 0
 2052 51 2109 7 2109 -60 c 0
 2109 -111 2073 -158 2022 -170 c 0
 1958 -185 1892 -200 1824 -212 c 1
 1805 -378 l 2
 1799 -435 1749 -477 1693 -477 c 0
 1628 -477 1581 -424 1581 -365 c 2
 1581 -352 l 1
 1594 -242 l 1
 1531 -247 1468 -250 1405 -250 c 0
 1369 -250 1332 -249 1290 -243 c 0
 1262 -239 1199 -232 1155 -171 c 0
 1136 -145 1126 -110 1126 -78 c 0
 1126 -22 1147 13 1164 36 c 0
 1333 282 1454 521 1570 806 c 0
 1588 849 1630 876 1675 876 c 0
 1743 876 1786 819 1786 763 c 0
 1786 749 1783 735 1778 722 c 0
 1668 451 1551 214 1394 -25 c 1
 1399 -25 1401 -26 1405 -26 c 0
 1476 -26 1548 -21 1620 -13 c 1
 1665 387 l 2
 1671 444 1721 486 1777 486 c 0
635 -67 m 0
 573 -67 523 -16 523 45 c 0
 523 73 533 101 553 122 c 0
 906 496 1349 1082 1564 1469 c 0
 1584 1506 1623 1526 1663 1526 c 0
 1730 1526 1774 1470 1774 1413 c 0
 1774 1395 1769 1376 1760 1359 c 0
 1530 946 1084 358 717 -32 c 0
 695 -55 665 -67 635 -67 c 0
EndSplineSet
Colour: ffff
EndChar

StartChar: Eth
Encoding: 208 208 394
Width: 1341
VWidth: 1823
Flags: HMW
LayerCount: 2
Fore
SplineSet
89 617 m 0
 30 617 -23 665 -23 729 c 0
 -23 787 22 836 80 841 c 0
 185 849 282 853 372 853 c 0
 475 853 568 848 653 841 c 0
 711 836 756 786 756 729 c 0
 756 665 702 617 643 617 c 0
 640 617 637 617 634 617 c 0
 555 624 468 628 372 628 c 0
 288 628 197 625 98 617 c 0
 95 617 92 617 89 617 c 0
EndSplineSet
Refer: 16 68 N 1 0 0 1 150 0 2
Colour: ffff
EndChar

StartChar: multiply
Encoding: 215 215 401
Width: 872
VWidth: 1823
Flags: HMW
LayerCount: 2
Fore
SplineSet
192 288 m 0
 128 288 80 341 80 400 c 0
 80 424 88 450 104 470 c 0
 163 545 223 615 285 683 c 1
 222 735 157 783 100 819 c 0
 66 840 48 877 48 915 c 0
 48 981 104 1026 161 1026 c 0
 181 1026 202 1020 220 1009 c 0
 292 964 369 906 442 845 c 1
 496 898 551 949 608 1001 c 0
 629 1020 656 1030 683 1030 c 0
 743 1030 795 980 795 918 c 0
 795 887 783 857 759 835 c 0
 707 788 657 741 609 694 c 1
 697 606 774 518 813 440 c 0
 821 424 824 408 824 391 c 0
 824 335 780 278 713 278 c 0
 672 278 632 301 612 340 c 0
 595 373 527 457 452 532 c 1
 393 468 336 401 280 330 c 0
 258 302 225 288 192 288 c 0
EndSplineSet
Colour: ffff
EndChar

StartChar: germandbls
Encoding: 223 223 408
Width: 1124
VWidth: 2426
Flags: HMW
LayerCount: 2
Fore
SplineSet
200 -108 m 0
 136 -108 88 -56 88 4 c 2
 88 12 l 1
 113 384 135 725 174 1025 c 0
 210 1301 355 1458 561 1458 c 0
 814 1458 944 1236 944 1060 c 0
 944 907 893 813 794 734 c 0
 749 697 724 651 724 619 c 0
 724 602 725 589 789 556 c 0
 895 503 1076 399 1076 182 c 0
 1076 165 1075 147 1071 131 c 0
 1028 -55 813 -98 672 -98 c 0
 568 -98 381 -71 381 54 c 0
 381 121 437 165 494 165 c 0
 513 165 531 161 548 151 c 0
 573 137 619 126 672 126 c 0
 777 126 848 173 852 182 c 1
 852 250 793 302 687 356 c 0
 607 397 498 474 498 619 c 0
 498 749 577 849 654 910 c 0
 716 959 720 948 720 1020 c 2
 720 1060 l 2
 720 1146 658 1234 561 1234 c 0
 493 1234 426 1215 398 997 c 0
 361 707 337 368 312 -4 c 0
 308 -63 258 -108 200 -108 c 0
EndSplineSet
Colour: ffff
EndChar

StartChar: ae
Encoding: 230 230 415
Width: 1885
VWidth: 2426
Flags: HMW
LayerCount: 2
Fore
SplineSet
1104 574 m 1
 1121 573 1137 572 1153 572 c 0
 1348 572 1580 687 1580 784 c 0
 1580 832 1526 888 1457 888 c 0
 1301 888 1161 757 1104 574 c 1
1138 1006 m 1
 1227 1072 1334 1114 1457 1114 c 0
 1630 1114 1806 980 1806 784 c 0
 1806 435 1340 348 1153 348 c 0
 1132 348 1110 348 1089 349 c 1
 1122 221 1232 128 1372 128 c 0
 1456 128 1562 186 1649 264 c 0
 1670 283 1698 293 1725 293 c 0
 1785 293 1837 243 1837 181 c 0
 1837 150 1825 120 1801 98 c 0
 1696 2 1546 -98 1372 -98 c 0
 1192 -98 1038 -7 947 126 c 1
 863 4 723 -98 529 -98 c 0
 234 -98 48 156 48 419 c 0
 48 706 243 1114 604 1114 c 0
 716 1114 826 1071 908 998 c 0
 916 991 922 983 927 975 c 1
 937 1028 985 1067 1038 1067 c 0
 1083 1067 1120 1041 1138 1006 c 1
908 831 m 1
 888 813 861 802 833 802 c 0
 806 802 780 811 759 830 c 0
 719 865 658 888 604 888 c 0
 441 888 272 648 272 419 c 0
 272 252 382 128 529 128 c 0
 726 128 819 300 856 495 c 0
 873 582 892 714 908 831 c 1
EndSplineSet
Colour: ffff
EndChar

StartChar: oslash
Encoding: 248 248 432
Width: 1144
VWidth: 1823
Flags: HMW
LayerCount: 2
Fore
SplineSet
159 -112 m 0
 94 -112 48 -56 48 1 c 0
 48 22 53 42 65 61 c 0
 307 435 616 822 907 1099 c 0
 928 1119 956 1129 984 1129 c 0
 1045 1129 1096 1079 1096 1017 c 0
 1096 987 1085 957 1062 935 c 0
 789 676 487 299 255 -61 c 0
 234 -94 196 -112 159 -112 c 0
EndSplineSet
Refer: 5 111 N 1 0 0 1 26 0 2
Colour: ffff
EndChar

StartChar: thorn
Encoding: 254 254 438
Width: 1166
VWidth: 1823
Flags: HMW
LayerCount: 2
Fore
SplineSet
234 1473 m 0
 297 1473 347 1421 346 1359 c 2
 312 -367 l 2
 311 -428 260 -477 200 -477 c 0
 137 -477 87 -425 88 -363 c 2
 122 1363 l 2
 123 1424 174 1473 234 1473 c 0
EndSplineSet
Refer: 5 111 N 1 0 0 1 57 0 2
Colour: ffff
EndChar

